<svg width="500" height="487" viewBox="0 0 500 487" fill="none" xmlns="http://www.w3.org/2000/svg">
<path d="M143.235 3.84766H7.22656V228.975H143.235V3.84766Z" fill="#E0E0E0"/>
<path d="M138.707 3.84766H2.69922V228.975H138.707V3.84766Z" fill="#EBEBEB"/>
<path d="M132.92 8.41016H8.5V224.402H132.92V8.41016Z" fill="#FAFAFA"/>
<path d="M108.683 36.4727H32.1797V196.328H108.683V36.4727Z" fill="#EBEBEB"/>
<path d="M32.1775 139.766C31.9995 124.831 45.4285 110.253 60.2175 108.166C67.2665 107.173 74.7175 108.566 81.3535 105.866C93.1095 101.048 96.8535 85.4212 108.692 80.7812L109.227 196.333H32.1775V139.766Z" fill="#E0E0E0"/>
<path d="M442.024 66.495L430.859 66.5508L431.137 122.097L442.302 122.041L442.024 66.495Z" fill="#E0E0E0"/>
<path d="M363.07 66.6406L334.16 66.7852L334.313 97.4472L363.223 97.3026L363.07 66.6406Z" fill="#EBEBEB"/>
<path d="M391.844 66.4961L362.934 66.6406L363.087 97.3026L391.997 97.1581L391.844 66.4961Z" fill="#F5F5F5"/>
<path d="M334.198 75.2853C353.405 75.4413 372.667 75.2853 391.874 75.0173C391.946 75.0037 392.01 74.9657 392.056 74.9097C392.103 74.8538 392.128 74.7834 392.128 74.7108C392.128 74.6382 392.103 74.5678 392.056 74.5119C392.01 74.4559 391.946 74.4179 391.874 74.4043C372.66 74.293 353.435 74.4083 334.198 74.7503C334.162 74.7481 334.125 74.7533 334.091 74.7658C334.057 74.7782 334.025 74.7975 333.998 74.8226C333.972 74.8476 333.951 74.8779 333.936 74.9115C333.922 74.945 333.914 74.9812 333.914 75.0178C333.914 75.0544 333.922 75.0906 333.936 75.1241C333.951 75.1577 333.972 75.1879 333.998 75.213C334.025 75.2381 334.057 75.2574 334.091 75.2698C334.125 75.2823 334.162 75.2875 334.198 75.2853Z" fill="#E0E0E0"/>
<path d="M368.664 96.8116L316.141 97.0742L316.266 122.058L368.789 121.796L368.664 96.8116Z" fill="#EBEBEB"/>
<path d="M420.929 96.5304L368.406 96.793L368.531 121.777L421.054 121.514L420.929 96.5304Z" fill="#F5F5F5"/>
<path d="M316.165 104.042C351.054 104.442 386.065 104.042 420.954 103.529C421.025 103.515 421.089 103.477 421.136 103.421C421.182 103.365 421.207 103.295 421.207 103.222C421.207 103.15 421.182 103.079 421.136 103.024C421.089 102.968 421.025 102.93 420.954 102.916C386.065 102.726 351.054 102.749 316.165 103.516C316.105 103.529 316.051 103.562 316.013 103.61C315.974 103.657 315.953 103.717 315.953 103.778C315.953 103.839 315.974 103.899 316.013 103.946C316.051 103.994 316.105 104.027 316.165 104.04V104.042Z" fill="#E0E0E0"/>
<path d="M499.997 122.078H296.52V131.034H499.997V122.078Z" fill="#E0E0E0"/>
<path d="M338.105 126.383H329.84V156.933H338.105V126.383Z" fill="#E0E0E0"/>
<path d="M461.406 126.383H453.141V156.933H461.406V126.383Z" fill="#E0E0E0"/>
<path d="M452.923 45.7801L441.758 45.8359L442.14 122.228L453.305 122.172L452.923 45.7801Z" fill="#EBEBEB"/>
<path d="M470.364 60.0109L453.02 60.0977L453.329 122.001L470.673 121.914L470.364 60.0109Z" fill="#F5F5F5"/>
<path d="M470.231 71.9535C464.456 72.355 458.661 72.355 452.887 71.9535C458.661 71.552 464.456 71.552 470.231 71.9535Z" fill="#E0E0E0"/>
<path d="M470.231 69.3519C464.456 69.7535 458.661 69.7535 452.887 69.3519C458.661 68.9504 464.456 68.9504 470.231 69.3519Z" fill="#E0E0E0"/>
<path d="M470.231 112.575C464.456 112.976 458.661 112.976 452.887 112.575C458.661 112.173 464.456 112.173 470.231 112.575Z" fill="#E0E0E0"/>
<path d="M470.231 110.02C464.456 110.407 458.662 110.407 452.887 110.02C458.661 109.618 464.456 109.618 470.231 110.02Z" fill="#E0E0E0"/>
<path d="M461.843 104.344C461.676 104.344 461.543 98.0982 461.543 90.3912C461.543 82.6842 461.677 76.4492 461.843 76.4492C462.009 76.4492 462.143 82.6842 462.143 90.3912C462.143 98.0982 461.989 104.344 461.843 104.344Z" fill="#E0E0E0"/>
<path d="M489.301 75.2188H470.418V121.942H489.301V75.2188Z" fill="#EBEBEB"/>
<path d="M450.377 58.8474C450.388 59.4849 450.209 60.1114 449.863 60.6469C449.517 61.1824 449.019 61.6028 448.433 61.8545C447.847 62.1062 447.2 62.1779 446.573 62.0604C445.946 61.9428 445.369 61.6414 444.914 61.1945C444.459 60.7476 444.148 60.1755 444.019 59.5509C443.891 58.9264 443.951 58.2777 444.192 57.6875C444.434 57.0973 444.845 56.5923 445.374 56.2369C445.904 55.8814 446.527 55.6915 447.165 55.6914C448.007 55.6913 448.816 56.022 449.416 56.6123C450.017 57.2026 450.362 58.0053 450.377 58.8474Z" fill="#E0E0E0"/>
<path d="M448.157 67.668H446.172V113.108H448.157V67.668Z" fill="#E0E0E0"/>
<path d="M162.834 422.201C162.834 422.201 152.606 430.009 162.399 440.281C162.482 440.369 162.583 440.439 162.694 440.487C162.805 440.534 162.925 440.56 163.046 440.56L252.398 440.036C252.398 440.036 260.027 431.481 253.692 421.621L162.834 422.201Z" fill="#EBEBEB"/>
<path d="M232.646 430.331C232.646 430.431 221.492 430.509 207.807 430.509C194.122 430.509 182.957 430.431 182.957 430.331C182.957 430.231 194.111 430.152 207.807 430.152C221.503 430.152 232.646 430.231 232.646 430.331Z" fill="#E0E0E0"/>
<path d="M218.747 433.569C218.747 433.669 213.527 433.747 207.069 433.747C200.611 433.747 195.391 433.669 195.391 433.569C195.391 433.469 200.622 433.379 207.069 433.379C213.516 433.379 218.747 433.468 218.747 433.569Z" fill="#E0E0E0"/>
<path d="M241.78 439.745C241.78 439.745 241.98 438.719 242.26 437.068C242.618 434.916 242.789 432.736 242.773 430.554C242.751 428.369 242.538 426.189 242.137 424.04C241.825 422.389 241.557 421.385 241.613 421.363C241.722 421.584 241.809 421.816 241.87 422.055C242.078 422.688 242.249 423.333 242.383 423.985C242.861 426.139 243.115 428.337 243.141 430.543C243.154 432.749 242.94 434.951 242.505 437.113C242.338 437.938 242.17 438.608 242.037 439.054C241.991 439.297 241.904 439.531 241.78 439.745Z" fill="#E0E0E0"/>
<path d="M248.449 421.531C248.612 421.727 248.747 421.945 248.849 422.178C248.996 422.438 249.129 422.705 249.249 422.978C249.418 423.342 249.567 423.714 249.695 424.093C250.061 425.054 250.348 426.042 250.554 427.049C250.788 428.289 250.918 429.547 250.944 430.808C250.941 432.072 250.829 433.334 250.609 434.578C250.424 435.591 250.157 436.587 249.809 437.556C249.675 437.98 249.509 438.337 249.374 438.671C249.262 438.946 249.131 439.213 248.984 439.471C248.886 439.706 248.758 439.927 248.605 440.129C248.538 440.129 249.04 439.136 249.575 437.486C250.263 435.323 250.601 433.064 250.575 430.794C250.56 429.553 250.44 428.315 250.218 427.094C250.034 426.096 249.78 425.112 249.46 424.149C248.951 422.49 248.394 421.531 248.449 421.531Z" fill="#E0E0E0"/>
<path d="M176.932 439.87C176.766 439.688 176.624 439.487 176.508 439.27C176.355 439.034 176.217 438.788 176.095 438.534C175.918 438.201 175.757 437.858 175.615 437.508C175.237 436.597 174.945 435.652 174.745 434.686C174.51 433.501 174.394 432.295 174.399 431.086C174.425 429.877 174.575 428.674 174.845 427.495C175.07 426.538 175.388 425.604 175.793 424.707C175.939 424.359 176.106 424.02 176.293 423.692C176.417 423.435 176.562 423.189 176.728 422.956C176.985 422.566 177.141 422.356 177.163 422.376C177.185 422.396 176.65 423.268 176.048 424.807C175.683 425.703 175.396 426.629 175.189 427.573C174.947 428.734 174.808 429.913 174.776 431.098C174.777 432.28 174.882 433.46 175.088 434.623C175.277 435.571 175.538 436.503 175.869 437.411C176.452 438.956 176.988 439.837 176.932 439.87Z" fill="#E0E0E0"/>
<path d="M167.281 442.045C167.097 441.846 166.943 441.62 166.824 441.376C166.664 441.093 166.526 440.799 166.411 440.495C166.209 440.133 166.026 439.761 165.864 439.38C165.434 438.36 165.094 437.304 164.849 436.224C164.226 433.574 164.165 430.823 164.671 428.149C164.868 427.058 165.163 425.987 165.552 424.949C165.697 424.503 165.887 424.124 166.032 423.778C166.161 423.484 166.307 423.197 166.467 422.919C166.586 422.672 166.728 422.438 166.891 422.219C166.958 422.219 166.391 423.279 165.776 425.041C165.431 426.075 165.166 427.134 164.984 428.209C164.775 429.525 164.678 430.858 164.694 432.191C164.753 434.621 165.224 437.024 166.088 439.296C166.723 441.019 167.337 442.012 167.281 442.045Z" fill="#E0E0E0"/>
<path d="M249.117 467.262V484.349H216.035V467.262H249.117Z" fill="#EBEBEB"/>
<path d="M142.267 475.952V476.409C142.427 478.904 143.535 481.244 145.364 482.948C147.193 484.653 149.605 485.593 152.105 485.577H250.636V484.339H227.216C224.95 484.339 222.777 483.438 221.175 481.836C219.573 480.234 218.672 478.061 218.672 475.795C218.672 473.529 219.573 471.355 221.175 469.753C222.777 468.151 224.95 467.251 227.216 467.251H250.636V465.434L152.082 465.769C150.763 465.772 149.458 466.041 148.245 466.559C147.032 467.077 145.935 467.833 145.019 468.783C144.104 469.732 143.389 470.856 142.916 472.088C142.443 473.319 142.223 474.633 142.267 475.952Z" fill="#E0E0E0"/>
<path d="M249.116 476.018C249.116 476.118 242.316 476.208 233.925 476.208C225.534 476.208 218.734 476.119 218.734 476.018C218.734 475.917 225.534 475.84 233.925 475.84C242.316 475.84 249.116 475.929 249.116 476.018Z" fill="#E0E0E0"/>
<path d="M248.637 479.878C248.637 479.978 242.201 480.056 234.26 480.056C226.319 480.056 219.883 479.978 219.883 479.878C219.883 479.778 226.319 479.699 234.26 479.699C242.201 479.699 248.637 479.778 248.637 479.878Z" fill="#E0E0E0"/>
<path d="M249.12 483.401C249.12 483.501 243.331 483.579 236.193 483.579C229.055 483.579 223.266 483.501 223.266 483.401C223.266 483.301 229.055 483.223 236.193 483.223C243.331 483.223 249.12 483.301 249.12 483.401Z" fill="#E0E0E0"/>
<path d="M249.117 472.561C249.117 472.661 242.425 472.74 234.238 472.74C226.051 472.74 219.359 472.662 219.359 472.561C219.359 472.46 226.051 472.383 234.238 472.383C242.425 472.383 249.117 472.461 249.117 472.561Z" fill="#E0E0E0"/>
<path d="M248.638 469.104C248.638 469.204 242.704 469.282 235.399 469.282C228.094 469.282 222.148 469.204 222.148 469.104C222.148 469.004 228.082 468.926 235.399 468.926C242.716 468.926 248.638 469.004 248.638 469.104Z" fill="#E0E0E0"/>
<path d="M154.209 466.047C153.443 466.817 152.741 467.649 152.109 468.534C150.614 470.692 149.826 473.263 149.856 475.888C149.886 478.514 150.732 481.066 152.276 483.19C152.933 484.056 153.652 484.873 154.429 485.633C154.177 485.485 153.942 485.309 153.729 485.109C153.118 484.581 152.565 483.991 152.078 483.347C150.438 481.205 149.535 478.589 149.505 475.891C149.475 473.193 150.319 470.557 151.911 468.379C152.38 467.722 152.918 467.119 153.517 466.579C153.724 466.372 153.956 466.193 154.209 466.047Z" fill="#F5F5F5"/>
<path d="M150.875 465.68C150.119 466.464 149.417 467.299 148.775 468.18C147.285 470.339 146.502 472.907 146.534 475.531C146.566 478.154 147.411 480.702 148.953 482.825C149.606 483.694 150.326 484.511 151.106 485.268C150.846 485.125 150.606 484.949 150.392 484.744C149.782 484.216 149.228 483.625 148.741 482.982C147.101 480.844 146.197 478.233 146.165 475.538C146.133 472.844 146.974 470.212 148.563 468.036C149.032 467.377 149.571 466.771 150.169 466.229C150.382 466.018 150.619 465.834 150.875 465.68Z" fill="#F5F5F5"/>
<path d="M217.823 466.046C217.067 466.822 216.37 467.654 215.737 468.533C214.241 470.691 213.454 473.262 213.484 475.888C213.514 478.513 214.359 481.065 215.904 483.189C216.56 484.055 217.28 484.872 218.057 485.632C217.799 485.487 217.559 485.311 217.343 485.108C216.736 484.58 216.186 483.989 215.703 483.346C214.056 481.209 213.145 478.595 213.107 475.897C213.069 473.199 213.905 470.561 215.491 468.378C215.956 467.719 216.495 467.115 217.097 466.578C217.318 466.373 217.561 466.193 217.822 466.043L217.823 466.046Z" fill="#F5F5F5"/>
<path d="M214.501 465.68C213.737 466.457 213.035 467.293 212.401 468.18C210.905 470.336 210.117 472.904 210.147 475.529C210.177 478.153 211.023 480.703 212.568 482.825C213.225 483.691 213.944 484.508 214.721 485.268C214.469 485.12 214.234 484.944 214.021 484.744C213.408 484.219 212.854 483.628 212.37 482.982C210.73 480.844 209.826 478.233 209.794 475.538C209.762 472.844 210.603 470.212 212.192 468.036C212.661 467.377 213.2 466.771 213.798 466.229C214.006 466.016 214.242 465.832 214.498 465.682L214.501 465.68Z" fill="#F5F5F5"/>
<path d="M165.419 478.417L165.319 471.457C165.354 470.852 165.275 470.246 165.085 469.672C164.983 469.384 164.807 469.129 164.573 468.933C164.34 468.737 164.058 468.607 163.758 468.557C162.888 468.167 161.527 468.892 160.925 469.896C160.391 470.95 160.156 472.13 160.245 473.309C160.223 475.142 160.312 476.974 160.513 478.797C160.55 479.673 160.771 480.531 161.16 481.318C161.335 481.723 161.633 482.062 162.011 482.288C162.39 482.515 162.831 482.616 163.27 482.577C163.71 482.539 164.126 482.363 164.46 482.075C164.794 481.787 165.029 481.401 165.131 480.972C165.389 480.146 165.487 479.279 165.419 478.417Z" fill="#F5F5F5"/>
<path d="M203.688 476.351C203.688 476.451 196.561 476.541 187.783 476.541C179.005 476.541 171.867 476.452 171.867 476.351C171.867 476.25 178.994 476.172 187.783 476.172C196.572 476.172 203.688 476.251 203.688 476.351Z" fill="#F5F5F5"/>
<path d="M158.819 465.366L158.641 449.16H167.464L167.764 465.366H158.819Z" fill="#F5F5F5"/>
<path d="M166.939 452.037C165.581 452.223 164.209 452.286 162.839 452.227C161.472 452.287 160.102 452.223 158.746 452.037C160.103 451.858 161.472 451.798 162.839 451.859C164.208 451.799 165.58 451.858 166.939 452.037Z" fill="#E0E0E0"/>
<path d="M166.939 454.549C165.58 454.728 164.208 454.787 162.839 454.727C161.472 454.788 160.103 454.728 158.746 454.549C160.103 454.37 161.472 454.31 162.839 454.37C164.208 454.31 165.58 454.37 166.939 454.549Z" fill="#E0E0E0"/>
<path d="M166.939 457.045C165.58 457.223 164.208 457.283 162.839 457.223C161.472 457.283 160.103 457.223 158.746 457.045C160.103 456.866 161.472 456.806 162.839 456.867C164.208 456.807 165.58 456.866 166.939 457.045Z" fill="#E0E0E0"/>
<path d="M166.939 459.544C165.58 459.723 164.208 459.783 162.839 459.723C161.472 459.784 160.103 459.724 158.746 459.545C160.103 459.366 161.472 459.306 162.839 459.366C164.208 459.306 165.58 459.366 166.939 459.544Z" fill="#E0E0E0"/>
<path d="M166.939 462.041C165.581 462.227 164.209 462.291 162.839 462.231C161.472 462.291 160.102 462.228 158.746 462.041C160.103 461.869 161.472 461.809 162.839 461.863C164.208 461.81 165.58 461.869 166.939 462.041Z" fill="#E0E0E0"/>
<path d="M158.172 448.727H255.946C257.068 454.513 257.068 460.462 255.946 466.249H158.607V465.033H164.562C164.931 465.033 165.296 464.96 165.636 464.818C165.976 464.677 166.286 464.47 166.546 464.209C166.806 463.947 167.012 463.637 167.152 463.296C167.292 462.955 167.363 462.59 167.362 462.222V452.529C167.363 452.16 167.292 451.795 167.152 451.454C167.012 451.113 166.806 450.803 166.546 450.542C166.286 450.28 165.976 450.073 165.636 449.932C165.296 449.79 164.931 449.718 164.562 449.718H158.193L158.172 448.727Z" fill="#EBEBEB"/>
<path d="M181.282 457.503H182.911C182.955 457.487 183.003 457.483 183.049 457.492C183.096 457.5 183.139 457.521 183.175 457.551C183.211 457.581 183.238 457.62 183.255 457.664C183.271 457.709 183.276 457.756 183.268 457.803C183.274 457.84 183.274 457.878 183.268 457.915C183.25 458.057 183.213 458.196 183.156 458.328C182.961 459.012 182.609 459.642 182.13 460.168C181.963 460.378 181.753 460.551 181.515 460.676C181.277 460.801 181.015 460.875 180.747 460.893H180.547C180.314 460.85 180.092 460.756 179.9 460.618C179.707 460.479 179.547 460.3 179.432 460.093C179.092 459.496 178.926 458.816 178.952 458.13C178.955 457.655 179.019 457.183 179.142 456.725C179.321 456.032 179.652 455.388 180.112 454.84C180.284 454.609 180.506 454.419 180.76 454.284C181.015 454.149 181.296 454.072 181.584 454.059C181.796 454.058 182.005 454.104 182.197 454.193C182.659 454.451 183.003 454.879 183.156 455.386C183.166 455.441 183.166 455.497 183.156 455.553C183.171 455.607 183.171 455.665 183.156 455.72C183.126 455.773 183.083 455.818 183.03 455.85C182.977 455.881 182.917 455.898 182.856 455.899C182.82 455.911 182.78 455.911 182.744 455.899C182.692 455.885 182.645 455.858 182.606 455.821C182.567 455.784 182.538 455.738 182.521 455.687C182.472 455.548 182.405 455.417 182.321 455.297C182.24 455.161 182.126 455.048 181.989 454.968C181.853 454.888 181.698 454.844 181.54 454.84C181.345 454.841 181.157 454.908 181.005 455.03C180.595 455.367 180.287 455.811 180.113 456.313C179.867 456.895 179.738 457.52 179.734 458.153C179.718 458.651 179.813 459.146 180.013 459.603C180.074 459.782 180.187 459.939 180.338 460.052C180.49 460.166 180.672 460.231 180.861 460.239C181.02 460.22 181.172 460.168 181.309 460.085C181.446 460.002 181.563 459.891 181.653 459.759C182.027 459.316 182.311 458.804 182.49 458.253H181.311C181.207 458.253 181.108 458.212 181.035 458.138C180.962 458.065 180.921 457.966 180.921 457.863V457.74C180.951 457.669 181.001 457.609 181.066 457.567C181.13 457.524 181.205 457.502 181.282 457.503Z" fill="#FAFAFA"/>
<path d="M186.838 454.314V454.437C186.905 454.667 187.276 456.686 187.953 460.493C187.958 460.522 187.958 460.552 187.953 460.582C187.968 460.64 187.968 460.702 187.953 460.761C187.927 460.815 187.886 460.861 187.834 460.893C187.783 460.924 187.723 460.94 187.663 460.939H187.607C187.544 460.928 187.484 460.899 187.437 460.856C187.389 460.812 187.355 460.756 187.339 460.694L186.949 458.675H184.941L183.971 460.705C183.979 460.726 183.979 460.75 183.971 460.772C183.946 460.811 183.914 460.846 183.876 460.873C183.838 460.901 183.795 460.92 183.749 460.931C183.703 460.941 183.656 460.942 183.61 460.934C183.564 460.926 183.519 460.909 183.48 460.884C183.432 460.85 183.393 460.805 183.366 460.753C183.338 460.7 183.324 460.642 183.324 460.584C183.314 460.551 183.314 460.516 183.324 460.484C183.38 460.339 183.48 460.127 183.624 459.826C185.029 456.748 185.855 454.941 186.145 454.383C186.172 454.314 186.218 454.255 186.277 454.212C186.337 454.169 186.407 454.143 186.48 454.138C186.55 454.133 186.62 454.147 186.683 454.178C186.745 454.209 186.799 454.255 186.838 454.314ZM186.403 455.675L185.288 457.961H186.827L186.403 455.675Z" fill="#FAFAFA"/>
<path d="M192.29 460.938H189.349C189.282 460.937 189.216 460.917 189.159 460.882C189.108 460.835 189.068 460.778 189.039 460.715C189.01 460.652 188.994 460.584 188.992 460.514C188.992 460.402 189.26 458.384 189.806 454.491C189.801 454.447 189.801 454.402 189.806 454.357C189.83 454.292 189.874 454.236 189.932 454.198C189.991 454.16 190.06 454.141 190.129 454.145C190.181 454.134 190.234 454.134 190.285 454.145C190.344 454.173 190.393 454.218 190.427 454.273C190.46 454.328 190.477 454.393 190.475 454.457L190.285 456.108C189.952 458.688 189.774 460.049 189.75 460.19H192.26C192.323 460.179 192.387 460.179 192.45 460.19C192.518 460.216 192.575 460.262 192.615 460.322C192.655 460.382 192.676 460.453 192.673 460.525C192.682 460.579 192.678 460.633 192.662 460.685C192.647 460.736 192.62 460.784 192.583 460.823C192.547 460.863 192.502 460.894 192.452 460.914C192.402 460.934 192.348 460.942 192.294 460.938H192.29Z" fill="#FAFAFA"/>
<path d="M196.316 454.311V454.434C196.383 454.668 196.773 456.665 197.431 460.49C197.436 460.519 197.436 460.549 197.431 460.579C197.428 460.642 197.408 460.703 197.375 460.757C197.349 460.811 197.307 460.857 197.256 460.889C197.205 460.92 197.145 460.936 197.085 460.935H197.029C196.966 460.922 196.908 460.892 196.861 460.849C196.814 460.806 196.779 460.751 196.761 460.69L196.527 458.671H194.519L193.549 460.701C193.553 460.723 193.553 460.746 193.549 460.768C193.512 460.816 193.465 460.857 193.411 460.885C193.357 460.914 193.298 460.931 193.237 460.935C193.17 460.932 193.104 460.913 193.047 460.879C192.999 460.845 192.959 460.8 192.932 460.748C192.905 460.696 192.891 460.638 192.891 460.579C192.885 460.546 192.885 460.512 192.891 460.479C192.947 460.334 193.047 460.122 193.191 459.821C194.596 456.743 195.422 454.936 195.712 454.378C195.739 454.31 195.785 454.25 195.844 454.207C195.903 454.164 195.973 454.138 196.047 454.133C196.101 454.142 196.154 454.163 196.2 454.193C196.246 454.224 196.286 454.264 196.316 454.311ZM195.881 455.672L194.766 457.959H196.305L195.881 455.672Z" fill="#FAFAFA"/>
<path d="M200.992 457.793L201.527 459.265C201.827 460.113 201.984 460.548 201.984 460.592C202.001 460.65 202.001 460.712 201.984 460.77C201.952 460.82 201.908 460.862 201.855 460.892C201.803 460.921 201.744 460.936 201.684 460.937C201.55 460.937 201.461 460.859 201.394 460.703C201.327 460.547 201.394 460.591 201.338 460.547C201.182 460.179 200.914 459.432 200.546 458.472L198.884 460.703C198.851 460.757 198.805 460.802 198.751 460.835C198.697 460.868 198.635 460.888 198.572 460.893C198.513 460.904 198.453 460.904 198.394 460.893C198.341 460.863 198.297 460.82 198.267 460.767C198.238 460.714 198.224 460.653 198.227 460.593V460.571C198.265 460.463 198.326 460.364 198.405 460.281C198.963 459.556 199.52 458.697 200.257 457.705C200.19 457.505 200.123 457.326 200.057 457.147C199.432 455.463 199.109 454.593 199.109 454.537C199.099 454.478 199.099 454.418 199.109 454.359C199.137 454.306 199.178 454.261 199.229 454.229C199.28 454.198 199.339 454.181 199.399 454.18C199.466 454.18 199.531 454.2 199.588 454.235C199.645 454.27 199.691 454.32 199.722 454.38L200.715 457.035L202.678 454.358C202.712 454.306 202.758 454.263 202.813 454.234C202.867 454.205 202.928 454.19 202.99 454.191C203.041 454.179 203.095 454.179 203.146 454.191C203.203 454.219 203.251 454.264 203.282 454.32C203.314 454.375 203.328 454.439 203.324 454.503C203.339 454.557 203.339 454.615 203.324 454.67L200.992 457.793Z" fill="#FAFAFA"/>
<path d="M208.305 454.156C208.356 454.145 208.409 454.145 208.461 454.156C208.518 454.182 208.567 454.224 208.6 454.278C208.634 454.331 208.652 454.393 208.651 454.456C208.171 458.271 207.904 460.323 207.859 460.635C207.775 461.213 207.557 461.763 207.223 462.241C206.905 462.688 206.437 463.006 205.905 463.137C205.373 463.268 204.811 463.203 204.323 462.955C203.884 462.775 203.519 462.452 203.286 462.04C203.276 461.985 203.276 461.928 203.286 461.873C203.269 461.815 203.269 461.753 203.286 461.695C203.313 461.64 203.356 461.593 203.409 461.562C203.462 461.53 203.524 461.514 203.586 461.516C203.638 461.52 203.689 461.535 203.735 461.56C203.781 461.585 203.822 461.619 203.854 461.661C204.017 461.914 204.24 462.125 204.502 462.274C204.764 462.423 205.058 462.508 205.36 462.52C205.577 462.51 205.79 462.451 205.983 462.349C206.176 462.247 206.344 462.104 206.475 461.929C206.876 461.393 207.102 460.746 207.122 460.077C207.01 460.258 206.862 460.413 206.687 460.534C206.385 460.762 206.016 460.883 205.639 460.88H205.439C205.205 460.839 204.983 460.746 204.79 460.607C204.597 460.469 204.437 460.288 204.324 460.08C203.975 459.486 203.805 458.805 203.833 458.117V457C203.923 456.146 204.056 455.297 204.233 454.457C204.223 454.424 204.223 454.39 204.233 454.357C204.25 454.287 204.29 454.226 204.347 454.181C204.403 454.137 204.473 454.113 204.545 454.112C204.604 454.116 204.662 454.135 204.712 454.168C204.765 454.192 204.811 454.231 204.842 454.281C204.874 454.33 204.89 454.388 204.89 454.447C204.858 454.896 204.802 455.343 204.723 455.786C204.607 456.469 204.533 457.158 204.5 457.85C204.478 458.394 204.565 458.936 204.757 459.445C204.957 459.925 205.248 460.159 205.627 460.159H205.75C206.119 460.042 206.433 459.793 206.631 459.459C206.983 458.973 207.23 458.418 207.356 457.831L207.802 454.485C207.795 454.437 207.795 454.388 207.802 454.34C207.815 454.29 207.841 454.243 207.876 454.205C207.912 454.167 207.956 454.138 208.005 454.12C208.054 454.103 208.107 454.097 208.158 454.105C208.21 454.112 208.259 454.132 208.302 454.162L208.305 454.156Z" fill="#FAFAFA"/>
<path d="M252.295 466.469C252.195 466.469 252.105 462.454 252.105 457.49C252.105 452.526 252.194 448.5 252.295 448.5C252.396 448.5 252.474 452.527 252.474 457.49C252.474 462.453 252.375 466.469 252.295 466.469Z" fill="#F5F5F5"/>
<path d="M172.256 466.469C172.156 466.469 172.078 462.454 172.078 457.49C172.078 452.526 172.156 448.5 172.256 448.5C172.356 448.5 172.434 452.527 172.434 457.49C172.434 462.453 172.357 466.469 172.256 466.469Z" fill="#E0E0E0"/>
<path d="M253.983 466.469C253.894 466.469 253.805 462.454 253.805 457.49C253.805 452.526 253.894 448.5 253.983 448.5C254.072 448.5 254.173 452.527 254.173 457.49C254.173 462.453 254.084 466.469 253.983 466.469Z" fill="#F5F5F5"/>
<path d="M170.663 466.469C170.563 466.469 170.473 462.454 170.473 457.49C170.473 452.526 170.562 448.5 170.663 448.5C170.764 448.5 170.841 452.527 170.841 457.49C170.841 462.453 170.752 466.469 170.663 466.469Z" fill="#E0E0E0"/>
<path d="M228.562 451.457L238.89 459.789L238.979 459.867H238.867L237.495 460.235L228.773 462.521L220.865 459.175L218.634 458.216L218.043 457.959L217.898 457.892L218.054 457.959L218.645 458.193L220.876 459.13L228.795 462.476L237.517 460.176L238.9 459.808V459.908L228.583 451.554" fill="#E0E0E0"/>
<path d="M237.941 458.473L238.51 458.997L239.268 458.841L238.933 459.533L239.323 460.202L238.553 460.113L238.04 460.682L237.895 459.924L237.195 459.612L237.864 459.244L237.941 458.473Z" fill="#E0E0E0"/>
<path d="M228.042 461.754L228.421 462.077L228.912 461.943L228.722 462.412L229.001 462.825L228.501 462.792L228.189 463.182L228.066 462.702L227.598 462.524L228.022 462.256L228.042 461.754Z" fill="#E0E0E0"/>
<path d="M217.086 457.267L217.699 457.3L218.078 456.82L218.234 457.411L218.814 457.623L218.29 457.946L218.268 458.571L217.788 458.181L217.208 458.348L217.431 457.768L217.086 457.267Z" fill="#E0E0E0"/>
<path d="M242.582 451.594L243.195 451.639L243.574 451.148L243.73 451.748L244.299 451.96L243.786 452.283L243.764 452.897L243.284 452.507L242.693 452.674L242.927 452.105L242.582 451.594Z" fill="#E0E0E0"/>
<path d="M228.059 451.188L228.449 451.21L228.694 450.91L228.794 451.289L229.162 451.423L228.827 451.635L228.816 452.025L228.516 451.768L228.137 451.88L228.282 451.512L228.059 451.188Z" fill="#E0E0E0"/>
<path d="M243.436 452.025C243.436 452.025 240.09 451.947 235.974 451.78C231.858 451.613 228.512 451.423 228.512 451.38C228.512 451.337 231.858 451.458 235.974 451.636C240.09 451.814 243.436 451.98 243.436 452.025Z" fill="#E0E0E0"/>
<path d="M247.199 448.578H148.032C146.738 445.633 146.415 442.834 148.032 440.324H247.199C247.815 441.613 248.134 443.023 248.134 444.451C248.134 445.879 247.815 447.289 247.199 448.578Z" fill="#E0E0E0"/>
<path d="M222.293 442.68H168.566V445.68H222.293V442.68Z" fill="#EBEBEB"/>
<path d="M151.834 448.625C151.507 448.35 151.241 448.009 151.053 447.625C150.547 446.724 150.239 445.727 150.149 444.698C150.059 443.669 150.188 442.633 150.529 441.658C150.639 441.244 150.844 440.863 151.129 440.543C151.031 440.949 150.912 441.35 150.772 441.743C150.513 442.698 150.422 443.69 150.504 444.676C150.601 445.66 150.861 446.621 151.274 447.52C151.493 447.871 151.681 448.241 151.834 448.625Z" fill="#E0E0E0"/>
<path d="M153.988 448.625C153.654 448.357 153.386 448.015 153.207 447.625C152.695 446.728 152.383 445.732 152.292 444.703C152.205 443.673 152.334 442.635 152.671 441.658C152.792 441.249 152.996 440.869 153.271 440.543C153.18 440.951 153.061 441.352 152.914 441.743C152.659 442.698 152.572 443.691 152.657 444.676C152.744 445.662 153.004 446.625 153.427 447.52C153.635 447.875 153.821 448.243 153.985 448.62L153.988 448.625Z" fill="#E0E0E0"/>
<path d="M243.184 448.424C243.579 447.115 243.814 445.762 243.884 444.397C243.826 443.026 243.605 441.666 243.226 440.348C243.954 441.568 244.307 442.977 244.241 444.397C244.298 445.814 243.93 447.217 243.184 448.424Z" fill="#F5F5F5"/>
<path d="M241.342 448.412C241.23 448.412 241.642 446.639 241.632 444.452C241.622 442.265 241.219 440.526 241.332 440.504C242.217 443.066 242.217 445.85 241.332 448.412H241.342Z" fill="#F5F5F5"/>
<path d="M303.885 410.111L164.542 410.022C160.558 410.021 156.613 409.234 152.933 407.708C149.253 406.182 145.909 403.947 143.093 401.128C140.277 398.31 138.043 394.965 136.52 391.284C134.997 387.602 134.213 383.657 134.215 379.673L134.285 30.349C134.288 22.2975 137.489 14.577 143.184 8.88552C148.879 3.19407 156.601 -0.00212107 164.653 1.05607e-06L303.985 0.0890018C312.031 0.0948319 319.746 3.29453 325.434 8.98512C331.123 14.6757 334.32 22.3918 334.323 30.438L334.245 379.761C334.245 383.747 333.459 387.695 331.934 391.378C330.408 395.06 328.171 398.407 325.352 401.225C322.533 404.043 319.186 406.278 315.502 407.803C311.819 409.328 307.871 410.111 303.885 410.11V410.111Z" fill="#263238"/>
<path d="M303.528 12.5474H276.514C275.632 12.5648 274.762 12.7563 273.955 13.1109C273.147 13.4656 272.418 13.9763 271.808 14.6138C271.199 15.2513 270.721 16.003 270.404 16.8257C270.086 17.6483 269.933 18.5257 269.956 19.4074V24.3074C269.976 25.1891 269.823 26.0662 269.503 26.8882C269.184 27.7102 268.705 28.461 268.095 29.0974C267.484 29.7338 266.754 30.2432 265.946 30.5964C265.137 30.9496 264.268 31.1396 263.386 31.1554H210.73C209.848 31.138 208.978 30.9465 208.171 30.5919C207.363 30.2373 206.634 29.7265 206.024 29.089C205.415 28.4515 204.937 27.6998 204.62 26.8771C204.302 26.0545 204.149 25.1771 204.172 24.2954V19.3844C204.199 18.5021 204.052 17.6231 203.739 16.7979C203.425 15.9728 202.952 15.2178 202.345 14.5764C201.739 13.9351 201.011 13.42 200.205 13.061C199.399 12.702 198.529 12.506 197.647 12.4844H164.508C161.714 12.479 158.947 13.0242 156.365 14.0887C153.782 15.1532 151.435 16.7162 149.457 18.6884C147.479 20.6606 145.909 23.0033 144.837 25.5825C143.764 28.1618 143.211 30.9271 143.208 33.7204L143.141 374.689C143.132 377.478 143.674 380.241 144.735 382.82C145.796 385.399 147.355 387.743 149.324 389.718C151.293 391.693 153.632 393.26 156.207 394.329C158.783 395.398 161.544 395.948 164.333 395.948L303.397 396.026C306.189 396.028 308.953 395.479 311.533 394.412C314.113 393.345 316.457 391.781 318.432 389.808C320.407 387.835 321.975 385.492 323.044 382.913C324.114 380.334 324.665 377.57 324.667 374.778L324.801 33.8094C324.801 31.0167 324.25 28.2514 323.181 25.6714C322.112 23.0914 320.545 20.7474 318.57 18.7731C316.595 16.7989 314.25 15.2332 311.67 14.1655C309.089 13.0978 306.323 12.549 303.531 12.5504L303.528 12.5474Z" fill="white"/>
<path d="M326.326 66.7236C326.326 66.8796 285.269 67.0136 234.642 67.0136C184.015 67.0136 142.992 66.8466 142.992 66.7236C142.992 66.6006 184.038 66.4336 234.698 66.4336C285.358 66.4336 326.326 66.5566 326.326 66.7236Z" fill="#263238"/>
<path d="M162.12 54.0855C161.986 54.0867 161.855 54.0391 161.752 53.9515L156.452 49.3005C156.39 49.2497 156.34 49.1849 156.307 49.1112C156.274 49.0375 156.258 48.9571 156.262 48.8765C156.261 48.7953 156.279 48.7149 156.313 48.6414C156.348 48.5679 156.399 48.5033 156.462 48.4525L161.762 43.9915C161.877 43.899 162.023 43.8553 162.169 43.87C162.315 43.8846 162.45 43.9563 162.543 44.0695C162.591 44.1254 162.626 44.1903 162.648 44.2602C162.669 44.3301 162.677 44.4036 162.669 44.4765C162.662 44.5493 162.64 44.6199 162.605 44.6842C162.57 44.7484 162.523 44.805 162.465 44.8505L157.68 48.8435L162.48 53.0595C162.536 53.1066 162.582 53.1643 162.615 53.2294C162.648 53.2944 162.668 53.3654 162.673 53.4382C162.678 53.511 162.669 53.584 162.645 53.6531C162.622 53.7222 162.585 53.7859 162.536 53.8405C162.491 53.9107 162.431 53.9694 162.359 54.0119C162.287 54.0545 162.207 54.0796 162.123 54.0855H162.12Z" fill="#263238"/>
<path d="M277.731 48.5752C277.731 48.7422 260.476 48.8652 239.184 48.8652C217.892 48.8652 200.637 48.7422 200.637 48.5752C200.637 48.4082 217.892 48.2852 239.184 48.2852C260.476 48.2852 277.731 48.4192 277.731 48.5752Z" fill="#263238"/>
<path d="M300.059 48.5432C300.059 48.9403 299.941 49.3285 299.721 49.6587C299.5 49.989 299.186 50.2463 298.819 50.3983C298.452 50.5503 298.049 50.5901 297.659 50.5126C297.27 50.4351 296.912 50.2439 296.631 49.963C296.35 49.6822 296.159 49.3244 296.082 48.9349C296.004 48.5454 296.044 48.1416 296.196 47.7747C296.348 47.4078 296.605 47.0942 296.935 46.8736C297.266 46.6529 297.654 46.5352 298.051 46.5352C298.584 46.5352 299.094 46.7467 299.471 47.1233C299.847 47.4999 300.059 48.0106 300.059 48.5432Z" fill="#263238"/>
<path d="M305.836 48.5447C305.834 49.0073 305.671 49.4548 305.376 49.8111C305.081 50.1673 304.672 50.4102 304.217 50.4984C303.763 50.5867 303.293 50.5148 302.886 50.295C302.479 50.0752 302.16 49.7211 301.985 49.293C301.81 48.8649 301.788 48.3893 301.924 47.9471C302.06 47.505 302.345 47.1237 302.731 46.8681C303.117 46.6125 303.579 46.4985 304.039 46.5455C304.499 46.5925 304.929 46.7975 305.255 47.1257C305.629 47.5032 305.838 48.0135 305.836 48.5447Z" fill="#263238"/>
<path d="M311.625 48.5413C311.625 48.9384 311.507 49.3266 311.286 49.6566C311.065 49.9866 310.751 50.2437 310.384 50.3953C310.017 50.5468 309.613 50.5862 309.223 50.5082C308.834 50.4303 308.476 50.2386 308.196 49.9574C307.915 49.6762 307.724 49.3181 307.647 48.9284C307.57 48.5388 307.611 48.135 307.763 47.7683C307.916 47.4015 308.174 47.0883 308.504 46.8681C308.835 46.6479 309.223 46.5307 309.62 46.5313C310.153 46.5313 310.664 46.7428 311.04 47.1194C311.417 47.496 311.628 48.0067 311.628 48.5392L311.625 48.5413Z" fill="#263238"/>
<path d="M217.244 141.632C217.244 142.926 216.709 143.707 215.816 143.707C215.606 143.727 215.395 143.672 215.222 143.552C215.048 143.431 214.923 143.253 214.868 143.049C214.719 143.265 214.516 143.44 214.28 143.555C214.043 143.67 213.781 143.723 213.518 143.707C213.043 143.666 212.6 143.448 212.277 143.096C211.954 142.744 211.775 142.284 211.775 141.807C211.775 141.329 211.954 140.869 212.277 140.517C212.6 140.166 213.043 139.948 213.518 139.907C213.754 139.894 213.989 139.936 214.205 140.029C214.422 140.122 214.614 140.263 214.768 140.442V139.951H215.592V142.494C215.592 142.873 215.77 143.007 215.982 143.007C216.382 143.007 216.607 142.527 216.607 141.646C216.614 141.277 216.542 140.91 216.398 140.571C216.253 140.231 216.039 139.925 215.768 139.674C215.498 139.422 215.178 139.231 214.828 139.111C214.479 138.992 214.108 138.947 213.74 138.98C213.353 138.945 212.962 138.991 212.594 139.115C212.225 139.239 211.886 139.438 211.599 139.701C211.312 139.963 211.082 140.282 210.925 140.638C210.768 140.994 210.687 141.379 210.687 141.768C210.687 142.157 210.768 142.542 210.925 142.898C211.082 143.254 211.312 143.574 211.599 143.836C211.886 144.098 212.225 144.298 212.594 144.422C212.962 144.546 213.353 144.592 213.74 144.557C214.243 144.559 214.74 144.444 215.191 144.222L215.391 144.822C214.873 145.059 214.309 145.178 213.74 145.168C213.276 145.194 212.811 145.126 212.375 144.966C211.939 144.807 211.54 144.56 211.202 144.241C210.864 143.922 210.595 143.538 210.411 143.111C210.228 142.684 210.133 142.225 210.133 141.76C210.133 141.296 210.228 140.836 210.411 140.41C210.595 139.983 210.864 139.598 211.202 139.279C211.54 138.96 211.939 138.714 212.375 138.554C212.811 138.395 213.276 138.326 213.74 138.353C214.189 138.319 214.641 138.379 215.066 138.529C215.491 138.679 215.88 138.916 216.209 139.224C216.538 139.532 216.8 139.905 216.977 140.32C217.154 140.734 217.244 141.181 217.24 141.632H217.244ZM214.779 141.799C214.764 141.543 214.66 141.3 214.486 141.112C214.312 140.923 214.079 140.8 213.825 140.764C213.571 140.728 213.312 140.78 213.092 140.912C212.872 141.044 212.705 141.248 212.618 141.489C212.531 141.731 212.53 141.995 212.614 142.237C212.699 142.479 212.865 142.684 213.084 142.818C213.303 142.952 213.561 143.007 213.815 142.973C214.069 142.939 214.304 142.818 214.479 142.631C214.584 142.52 214.664 142.389 214.716 142.246C214.767 142.103 214.789 141.951 214.779 141.799Z" fill="#263238"/>
<path d="M259.392 143.659C259.392 143.815 251.317 143.949 241.368 143.949C231.419 143.949 223.355 143.815 223.355 143.659C223.355 143.503 231.419 143.359 241.368 143.359C251.317 143.359 259.392 143.493 259.392 143.659Z" fill="#263238"/>
<path d="M188.133 194.63C186.489 195.017 184.777 195.017 183.133 194.63C184.777 194.243 186.489 194.243 188.133 194.63Z" fill="#263238"/>
<path d="M199.878 206.724C199.878 206.88 193.855 207.014 186.416 207.014C178.977 207.014 172.965 206.88 172.965 206.724C172.965 206.568 178.988 206.434 186.416 206.434C193.844 206.434 199.878 206.568 199.878 206.724Z" fill="#263238"/>
<path d="M242.259 194.629C239.72 194.923 237.162 195.02 234.608 194.919C232.054 195.02 229.496 194.923 226.957 194.629C229.497 194.342 232.054 194.245 234.608 194.339C237.162 194.245 239.719 194.342 242.259 194.629Z" fill="#263238"/>
<path d="M246.791 206.075C246.791 206.231 240.623 206.365 233.016 206.365C225.409 206.365 219.23 206.231 219.23 206.075C219.23 205.919 225.398 205.785 233.016 205.785C240.634 205.785 246.791 205.915 246.791 206.075Z" fill="#263238"/>
<path d="M292.228 194.801C288.797 195.088 285.352 195.185 281.911 195.091C278.469 195.185 275.025 195.088 271.594 194.801C275.024 194.507 278.469 194.41 281.911 194.511C285.352 194.41 288.797 194.507 292.228 194.801Z" fill="#263238"/>
<path d="M296.088 206.556C296.088 206.723 290.143 206.846 282.804 206.846C275.465 206.846 269.504 206.723 269.504 206.556C269.504 206.389 275.449 206.266 282.804 206.266C290.159 206.266 296.088 206.4 296.088 206.556Z" fill="#263238"/>
<path d="M257.847 218H181.659C180.251 218 179.109 219.142 179.109 220.55V238.817C179.109 240.225 180.251 241.367 181.659 241.367H257.847C259.256 241.367 260.397 240.225 260.397 238.817V220.55C260.397 219.142 259.256 218 257.847 218Z" fill="#2B3C8E"/>
<path d="M245.028 230.079C245.028 230.235 234.566 230.369 221.661 230.369C208.756 230.369 198.238 230.235 198.238 230.079C198.238 229.923 208.7 229.789 221.661 229.789C234.622 229.789 245.028 229.912 245.028 230.079Z" fill="white"/>
<path d="M287.973 217.562H269.491C268.182 217.562 267.121 218.624 267.121 219.932V239.139C267.121 240.448 268.182 241.51 269.491 241.51H287.973C289.282 241.51 290.343 240.448 290.343 239.139V219.932C290.343 218.624 289.282 217.562 287.973 217.562Z" fill="#EBEBEB"/>
<path d="M276.223 228.316H281.231L278.944 231.829L276.223 228.316Z" fill="#263238"/>
<path d="M260.396 258.743C260.396 258.91 247.469 259.033 231.53 259.033C215.591 259.033 202.664 258.91 202.664 258.743C202.664 258.576 215.591 258.453 231.53 258.453C247.469 258.453 260.396 258.587 260.396 258.743Z" fill="#E0E0E0"/>
<path d="M277.194 269.618C277.194 269.774 258.233 269.908 234.81 269.908C211.387 269.908 192.426 269.774 192.426 269.618C192.426 269.462 211.387 269.328 234.81 269.328C258.233 269.328 277.194 269.462 277.194 269.618Z" fill="#E0E0E0"/>
<path d="M325.913 288.47C325.913 288.637 285.258 288.77 235.099 288.77C184.94 288.77 144.285 288.636 144.285 288.47C144.285 288.304 184.94 288.18 235.099 288.18C285.258 288.18 325.913 288.314 325.913 288.47Z" fill="#263238"/>
<path d="M236.907 309.631C236.62 306.211 236.523 302.778 236.617 299.347C236.523 295.92 236.62 292.491 236.907 289.074C237.201 292.49 237.298 295.92 237.197 299.347C237.298 302.778 237.201 306.212 236.907 309.631Z" fill="#263238"/>
<path d="M225.629 158.887L220.409 170.866H218.178L212.949 158.887H215.358L219.34 168.122L223.366 158.887H225.629Z" fill="#2B3C8E"/>
<path d="M234.565 166.983H227.393C227.526 167.655 227.902 168.255 228.449 168.667C228.997 169.079 229.678 169.274 230.36 169.214C230.82 169.232 231.278 169.154 231.705 168.982C232.132 168.811 232.517 168.552 232.836 168.221L233.951 169.537C233.485 170.04 232.913 170.434 232.277 170.691C231.641 170.947 230.955 171.059 230.27 171.02C227.214 171.02 225.229 169.057 225.229 166.335C225.207 165.707 225.315 165.081 225.548 164.497C225.78 163.914 226.132 163.385 226.58 162.944C227.028 162.504 227.562 162.161 228.15 161.938C228.738 161.716 229.365 161.618 229.992 161.651C230.614 161.628 231.233 161.735 231.81 161.965C232.387 162.196 232.91 162.544 233.345 162.988C233.78 163.433 234.117 163.963 234.335 164.545C234.553 165.127 234.647 165.748 234.61 166.369C234.599 166.515 234.576 166.771 234.565 166.983ZM227.382 165.555H232.557C232.495 164.924 232.193 164.34 231.714 163.925C231.235 163.51 230.614 163.295 229.98 163.324C229.346 163.3 228.725 163.516 228.243 163.93C227.761 164.343 227.453 164.924 227.38 165.555H227.382Z" fill="#2B3C8E"/>
<path d="M241.937 161.65V163.68C241.775 163.647 241.611 163.628 241.446 163.624C241.075 163.596 240.703 163.651 240.356 163.785C240.009 163.919 239.697 164.129 239.443 164.4C239.188 164.671 238.997 164.995 238.884 165.349C238.771 165.703 238.739 166.078 238.791 166.446V170.908H236.684V161.773H238.725V163.1C239.091 162.604 239.579 162.209 240.141 161.956C240.704 161.702 241.322 161.597 241.937 161.65Z" fill="#2B3C8E"/>
<path d="M243.465 158.936C243.466 158.76 243.503 158.586 243.574 158.425C243.644 158.264 243.747 158.119 243.875 157.999C244.003 157.879 244.155 157.786 244.32 157.727C244.486 157.667 244.661 157.642 244.837 157.653C245.008 157.639 245.18 157.66 245.342 157.715C245.505 157.77 245.654 157.858 245.782 157.973C245.909 158.087 246.012 158.227 246.083 158.383C246.155 158.539 246.194 158.708 246.198 158.88C246.167 159.221 246.01 159.538 245.757 159.769C245.504 160.001 245.174 160.129 244.831 160.129C244.489 160.129 244.158 160.001 243.906 159.769C243.653 159.538 243.495 159.221 243.465 158.88V158.936ZM243.755 161.724H245.897V170.859H243.755V161.724Z" fill="#2B3C8E"/>
<path d="M252.297 158.047C252.979 158.017 253.655 158.191 254.238 158.547L253.638 160.153C253.291 159.911 252.879 159.779 252.456 159.774C251.564 159.774 251.106 160.265 251.106 161.246V161.793H253.627V163.5H251.184V170.861H248.953V163.5H247.457V161.793H248.952V161.213C248.916 160.773 248.98 160.33 249.138 159.917C249.296 159.504 249.545 159.132 249.866 158.828C250.187 158.524 250.572 158.296 250.993 158.16C251.414 158.025 251.86 157.986 252.298 158.045L252.297 158.047ZM256.134 158.939C256.135 158.764 256.172 158.59 256.243 158.429C256.313 158.268 256.416 158.123 256.544 158.003C256.673 157.883 256.824 157.79 256.989 157.731C257.155 157.671 257.331 157.646 257.506 157.656C257.677 157.643 257.849 157.664 258.012 157.719C258.174 157.774 258.324 157.862 258.451 157.977C258.578 158.091 258.681 158.231 258.753 158.387C258.824 158.543 258.863 158.712 258.867 158.883C258.836 159.225 258.679 159.542 258.426 159.773C258.173 160.004 257.843 160.133 257.501 160.133C257.158 160.133 256.828 160.004 256.575 159.773C256.322 159.542 256.165 159.225 256.134 158.883V158.939ZM256.424 161.727H258.565V170.862H256.424V161.727Z" fill="#2B3C8E"/>
<path d="M269.879 166.982H262.718C262.847 167.653 263.221 168.253 263.767 168.665C264.313 169.077 264.992 169.272 265.674 169.213C266.134 169.227 266.593 169.147 267.021 168.976C267.449 168.805 267.837 168.547 268.161 168.22L269.276 169.536C268.81 170.04 268.239 170.435 267.602 170.692C266.965 170.948 266.28 171.06 265.595 171.019C262.539 171.019 260.553 169.056 260.553 166.334C260.535 165.712 260.646 165.093 260.878 164.516C261.11 163.939 261.457 163.416 261.9 162.979C262.342 162.541 262.87 162.2 263.449 161.975C264.029 161.75 264.649 161.647 265.271 161.672C265.892 161.649 266.511 161.756 267.088 161.986C267.666 162.216 268.188 162.565 268.623 163.009C269.058 163.453 269.395 163.983 269.613 164.566C269.831 165.148 269.925 165.769 269.889 166.39C269.907 166.587 269.904 166.785 269.879 166.982ZM262.696 165.554H267.916C267.851 164.921 267.547 164.338 267.065 163.923C266.584 163.508 265.962 163.293 265.328 163.323C264.688 163.293 264.062 163.506 263.573 163.92C263.085 164.333 262.771 164.916 262.696 165.552V165.554Z" fill="#2B3C8E"/>
<path d="M280.92 158.172V170.865H278.868V169.683C278.494 170.112 278.028 170.452 277.505 170.676C276.981 170.9 276.414 171.003 275.845 170.977C274.606 170.977 273.417 170.484 272.541 169.608C271.664 168.732 271.172 167.543 271.172 166.303C271.172 165.064 271.664 163.875 272.541 162.999C273.417 162.122 274.606 161.63 275.845 161.63C276.394 161.605 276.942 161.703 277.449 161.915C277.956 162.127 278.41 162.449 278.778 162.857V158.172H280.92ZM278.812 166.292C278.786 165.76 278.605 165.247 278.29 164.818C277.976 164.388 277.542 164.06 277.043 163.874C276.544 163.688 276.001 163.653 275.482 163.772C274.964 163.892 274.491 164.161 274.124 164.547C273.756 164.932 273.51 165.417 273.415 165.941C273.32 166.465 273.381 167.005 273.591 167.495C273.8 167.985 274.149 168.402 274.593 168.696C275.037 168.989 275.558 169.146 276.09 169.147C276.461 169.154 276.829 169.084 277.172 168.941C277.514 168.798 277.823 168.586 278.079 168.318C278.335 168.049 278.532 167.731 278.658 167.382C278.785 167.033 278.837 166.662 278.812 166.292Z" fill="#2B3C8E"/>
<path d="M196.095 173.865C201.275 173.865 205.475 169.666 205.475 164.485C205.475 159.305 201.275 155.105 196.095 155.105C190.914 155.105 186.715 159.305 186.715 164.485C186.715 169.666 190.914 173.865 196.095 173.865Z" fill="#2B3C8E"/>
<path d="M191.855 164.665L193.055 163.465L195.386 165.528L199.948 161.133L201.063 162.333L195.207 167.843L191.855 164.665Z" fill="white"/>
<path d="M236.416 395.981H162.801C157.536 395.963 152.492 393.857 148.778 390.124C145.064 386.391 142.983 381.337 142.992 376.072V309.629H236.471L236.416 395.981Z" fill="#EBEBEB"/>
<path d="M304.31 396.159L235.57 395.981V309.629H325.001V375.514C324.887 380.961 322.669 386.153 318.812 390.001C314.955 393.85 309.758 396.057 304.31 396.159Z" fill="#455A64"/>
<path d="M325.915 309.626C325.915 309.782 285.26 309.916 235.115 309.916C184.97 309.916 144.301 309.782 144.301 309.626C144.301 309.47 184.945 309.336 235.115 309.336C285.285 309.336 325.915 309.47 325.915 309.626Z" fill="#263238"/>
<path d="M233.751 360.188C233.751 360.188 233.651 360.188 233.494 360.032L232.794 359.519L230.142 357.533L220.442 350.127C218.401 348.577 216.148 346.781 213.75 345.027C213.11 344.655 212.378 344.472 211.638 344.498C210.898 344.523 210.18 344.757 209.567 345.172C208.949 345.684 208.368 346.24 207.827 346.834L206.054 348.634L190.439 364.405L189.48 365.375L189.302 365.553L189.102 365.408L180.09 358.716L175.807 355.516C175.222 354.962 174.485 354.594 173.691 354.461C172.896 354.328 172.08 354.435 171.346 354.769C170.658 355.167 170.033 355.667 169.494 356.252L167.732 357.892L164.386 361.015L158.363 366.592L149.63 374.645L147.23 376.809L146.605 377.367C146.464 377.493 146.386 377.549 146.371 377.534C146.425 377.455 146.489 377.384 146.561 377.322L147.152 376.731L149.472 374.5L158.083 366.313L164.061 360.669L167.407 357.535L169.158 355.884L170.05 355.047C170.383 354.745 170.759 354.493 171.165 354.3C171.979 353.906 172.894 353.774 173.786 353.921C174.238 353.991 174.675 354.134 175.08 354.345C175.476 354.556 175.849 354.806 176.195 355.092L180.489 358.271L189.512 364.963H189.133L190.092 363.981L205.707 348.243L207.492 346.458C208.054 345.841 208.662 345.266 209.31 344.74C210.005 344.279 210.816 344.022 211.65 343.998C212.484 343.974 213.308 344.185 214.028 344.606C216.504 346.446 218.668 348.206 220.72 349.793L230.312 357.344L232.912 359.419L233.57 359.977C233.639 360.039 233.7 360.11 233.751 360.188Z" fill="#263238"/>
<path d="M197.269 331.187C197.189 330.529 197.066 329.877 196.901 329.235C196.42 327.503 195.376 325.98 193.934 324.907C192.947 324.17 191.801 323.677 190.588 323.468C189.208 323.223 187.788 323.346 186.472 323.825C185.332 324.244 184.304 324.921 183.471 325.804C182.637 326.688 182.02 327.752 181.667 328.914C181.315 330.077 181.237 331.305 181.44 332.502C181.642 333.7 182.12 334.834 182.836 335.815C183.711 337.002 184.9 337.922 186.27 338.47C187.64 339.017 189.135 339.172 190.588 338.915C191.803 338.705 192.95 338.208 193.934 337.465C195.375 336.392 196.418 334.87 196.899 333.139C197.234 331.912 197.199 331.187 197.267 331.187C197.284 331.361 197.284 331.537 197.267 331.711C197.268 332.21 197.212 332.708 197.1 333.194C196.686 335.022 195.649 336.648 194.167 337.794C193.146 338.596 191.95 339.145 190.676 339.394C188.604 339.805 186.453 339.416 184.657 338.305C182.86 337.193 181.552 335.443 180.995 333.405C180.438 331.368 180.674 329.195 181.654 327.324C182.635 325.454 184.289 324.024 186.282 323.324C187.691 322.825 189.208 322.709 190.677 322.989C191.949 323.242 193.144 323.788 194.168 324.584C195.648 325.732 196.684 327.358 197.101 329.184C197.213 329.674 197.269 330.176 197.268 330.679C197.284 330.85 197.284 331.021 197.268 331.192L197.269 331.187Z" fill="#263238"/>
<path d="M322.232 357.422C322.232 357.422 322.143 357.422 321.987 357.266L321.318 356.766L318.753 354.766L309.395 347.349C307.432 345.799 305.268 344.003 302.959 342.249C302.341 341.878 301.627 341.699 300.907 341.737C300.188 341.775 299.496 342.027 298.921 342.461C298.334 342.981 297.779 343.536 297.259 344.123L295.559 345.923L280.624 361.639L279.687 362.609L279.509 362.799L279.297 362.643L270.608 355.951L266.481 352.751C265.925 352.193 265.207 351.825 264.429 351.701C263.652 351.577 262.855 351.703 262.153 352.06C261.499 352.478 260.903 352.981 260.38 353.555L258.696 355.195L255.473 358.307L249.684 363.884L241.308 371.915L239.008 374.079L238.395 374.626C238.261 374.749 238.183 374.816 238.172 374.804C238.226 374.725 238.29 374.654 238.362 374.592C238.507 374.425 238.697 374.235 238.92 374.001L241.151 371.77L249.405 363.605L255.138 357.972C256.175 356.972 257.238 355.92 258.338 354.838L260.011 353.198L260.87 352.362C261.175 352.063 261.52 351.808 261.896 351.604C262.682 351.188 263.581 351.035 264.461 351.169C264.905 351.233 265.335 351.373 265.732 351.582C266.126 351.796 266.499 352.046 266.847 352.329L270.974 355.519L279.674 362.211H279.284L280.221 361.229L295.189 345.547L296.895 343.762C297.438 343.153 298.02 342.579 298.635 342.044C299.294 341.557 300.084 341.277 300.903 341.239C301.722 341.201 302.533 341.407 303.235 341.832C305.635 343.672 307.697 345.432 309.682 347.018L318.917 354.58L321.404 356.666L322.04 357.213L322.232 357.422Z" fill="#263238"/>
<path d="M284.311 328.698C284.24 328.043 284.121 327.395 283.954 326.757C283.479 325.022 282.434 323.498 280.987 322.429C279.484 321.297 277.623 320.743 275.745 320.867C273.867 320.991 272.096 321.785 270.754 323.105C269.412 324.425 268.589 326.183 268.434 328.059C268.28 329.935 268.804 331.804 269.911 333.326C270.527 334.167 271.304 334.876 272.197 335.413C273.089 335.95 274.08 336.304 275.111 336.454C276.141 336.605 277.192 336.549 278.201 336.289C279.21 336.03 280.157 335.572 280.987 334.943C282.432 333.873 283.477 332.349 283.954 330.615C284.107 329.971 284.226 329.32 284.311 328.663C284.34 328.837 284.34 329.014 284.311 329.187C284.313 329.686 284.257 330.184 284.144 330.67C283.761 332.499 282.756 334.139 281.3 335.31C280.276 336.103 279.08 336.645 277.809 336.894C276.341 337.185 274.821 337.07 273.414 336.559C272.276 336.156 271.239 335.511 270.375 334.669C269.51 333.826 268.839 332.806 268.407 331.678C267.975 330.551 267.794 329.343 267.874 328.139C267.954 326.934 268.295 325.761 268.873 324.701C269.451 323.641 270.252 322.719 271.221 321.999C272.19 321.279 273.303 320.777 274.485 320.529C275.666 320.281 276.888 320.293 278.064 320.563C279.241 320.833 280.345 321.355 281.3 322.093C282.783 323.242 283.82 324.871 284.233 326.7C284.346 327.187 284.402 327.684 284.4 328.183C284.401 328.359 284.371 328.533 284.311 328.698Z" fill="#263238"/>
<path d="M236.941 134.312C251.208 134.312 262.773 122.747 262.773 108.48C262.773 94.2138 251.208 82.6484 236.941 82.6484C222.675 82.6484 211.109 94.2138 211.109 108.48C211.109 122.747 222.675 134.312 236.941 134.312Z" fill="#F5F5F5"/>
<path d="M253.638 128.078C253.197 123.98 251.232 120.198 248.133 117.481C245.034 114.765 241.027 113.312 236.907 113.411C227.739 113.411 221.459 120.349 220.176 128.134C220.176 128.134 225.842 134.402 236.907 134.313C247.972 134.224 253.638 128.078 253.638 128.078Z" fill="#E0E0E0"/>
<path d="M247.45 105.968C248.348 100.432 244.587 95.2166 239.051 94.3192C233.515 93.4218 228.3 97.1821 227.402 102.718C226.505 108.254 230.265 113.47 235.801 114.367C241.337 115.265 246.553 111.504 247.45 105.968Z" fill="#E0E0E0"/>
<path d="M253.515 127.198C253.198 125.545 252.67 123.941 251.942 122.424C251.002 120.728 249.763 119.216 248.284 117.963C246.341 116.323 244.104 115.068 241.692 114.263L241.157 114.096L241.648 113.839C243.35 112.914 244.748 111.515 245.674 109.813C246.479 108.312 246.882 106.629 246.843 104.926C246.803 103.223 246.323 101.56 245.449 100.099C244.574 98.637 243.336 97.427 241.855 96.5869C240.373 95.7468 238.699 95.3052 236.996 95.3052C235.293 95.3052 233.619 95.7468 232.138 96.5869C230.656 97.427 229.418 98.637 228.544 100.099C227.67 101.56 227.189 103.223 227.15 104.926C227.11 106.629 227.513 108.312 228.319 109.813C228.788 110.683 229.381 111.48 230.081 112.178C230.759 112.831 231.507 113.407 232.312 113.896L232.758 114.175L232.245 114.32C229.777 114.97 227.509 116.224 225.645 117.967C224.229 119.308 223.059 120.885 222.187 122.629C221.624 123.747 221.169 124.916 220.826 126.12C220.703 126.533 220.626 126.856 220.569 127.068C220.554 127.179 220.524 127.288 220.48 127.391C220.46 127.28 220.46 127.167 220.48 127.056C220.512 126.727 220.575 126.402 220.67 126.086C220.962 124.855 221.384 123.659 221.93 122.517C222.775 120.714 223.939 119.078 225.365 117.687C227.243 115.876 229.543 114.561 232.057 113.861L231.99 114.285C231.148 113.788 230.363 113.201 229.648 112.534C228.905 111.805 228.274 110.97 227.774 110.058C226.783 108.244 226.354 106.177 226.541 104.119C226.728 102.06 227.523 100.104 228.825 98.4994C230.127 96.8944 231.877 95.7129 233.852 95.1051C235.828 94.4974 237.939 94.4909 239.918 95.0865C241.897 95.6821 243.654 96.8528 244.966 98.4498C246.278 100.047 247.085 101.998 247.285 104.055C247.485 106.112 247.069 108.182 246.089 110.002C245.109 111.821 243.61 113.308 241.783 114.274V113.839C244.244 114.681 246.518 115.995 248.475 117.709C249.973 119.016 251.21 120.594 252.122 122.36C252.44 123.014 252.705 123.693 252.914 124.39C253.087 124.895 253.217 125.413 253.304 125.94C253.36 126.33 253.404 126.654 253.438 126.922C253.446 127.018 253.472 127.112 253.515 127.198Z" fill="#263238"/>
<path d="M262.771 108.48C262.736 108.342 262.717 108.199 262.715 108.056C262.723 107.649 262.693 107.242 262.626 106.84L262.57 105.94C262.536 105.565 262.476 105.192 262.391 104.825C262.275 103.924 262.092 103.033 261.844 102.159C261.238 99.7525 260.272 97.4511 258.977 95.3334C255.913 90.2206 251.165 86.3342 245.547 84.3416C239.93 82.3491 233.794 82.3748 228.193 84.4144C227.045 84.8278 225.927 85.3196 224.847 85.8864C223.756 86.4842 222.709 87.1589 221.713 87.9054C220.693 88.6621 219.724 89.4855 218.813 90.3704C217.912 91.3029 217.073 92.2941 216.303 93.3374C214.718 95.4728 213.487 97.8491 212.656 100.375C210.902 105.612 210.902 111.278 212.656 116.514C213.487 119.044 214.718 121.424 216.303 123.563C217.076 124.604 217.915 125.595 218.813 126.53C219.724 127.415 220.693 128.239 221.713 128.995C222.711 129.738 223.758 130.413 224.847 131.014C230.662 134.109 237.442 134.857 243.793 133.106C250.143 131.355 255.581 127.238 258.989 121.6C260.285 119.48 261.252 117.174 261.856 114.763C262.104 113.893 262.287 113.006 262.403 112.108C262.47 111.718 262.537 111.361 262.581 110.993L262.637 110.093C262.637 109.58 262.704 109.178 262.726 108.866C262.729 108.727 262.748 108.588 262.782 108.453C262.797 108.594 262.797 108.736 262.782 108.877V111.007C262.782 111.33 262.682 111.707 262.637 112.122C262.538 113.03 262.371 113.928 262.137 114.81C261.558 117.256 260.61 119.599 259.326 121.759C256.256 126.991 251.448 130.981 245.739 133.033C240.031 135.085 233.783 135.071 228.084 132.991C226.914 132.57 225.774 132.07 224.671 131.496C223.554 130.888 222.481 130.202 221.459 129.444C220.414 128.672 219.423 127.83 218.492 126.923C217.569 125.975 216.712 124.965 215.927 123.9C214.298 121.716 213.032 119.283 212.179 116.695C211.323 114.028 210.868 111.248 210.828 108.447C210.864 105.643 211.323 102.861 212.189 100.193C213.036 97.6086 214.298 95.1789 215.925 92.9994C216.71 91.9311 217.567 90.9174 218.49 89.9654C219.426 89.068 220.417 88.2297 221.457 87.4554C222.479 86.6977 223.552 86.012 224.669 85.4034C225.772 84.8293 226.912 84.3298 228.082 83.9084C233.781 81.8307 240.028 81.8167 245.736 83.8689C251.445 85.9211 256.253 89.9096 259.324 95.1404C260.608 97.2969 261.556 99.6364 262.135 102.078C262.369 102.965 262.536 103.867 262.635 104.778C262.635 105.168 262.747 105.536 262.78 105.893C262.797 106.198 262.797 106.504 262.78 106.808V108.035C262.793 108.184 262.79 108.333 262.771 108.48Z" fill="#263238"/>
<path d="M130.096 225.816C116.533 232.843 106.127 244.945 98.6535 258.262C91.1805 271.579 86.3845 286.202 81.5775 300.713L77.3945 375.555C93.1775 348.708 105.848 317.143 109.272 286.18L98.7645 285.243C105.814 284.128 111.726 279.064 115.496 272.974C119.266 266.884 121.196 259.935 123.081 253.074L110.265 254.974C120.374 248.163 127.475 237.722 130.096 225.816Z" fill="#455A64"/>
<path d="M130.096 225.816C116.533 232.843 106.127 244.945 98.6535 258.262C91.1805 271.579 86.3845 286.202 81.5775 300.713L77.3945 375.555C93.1775 348.708 105.848 317.143 109.272 286.18L98.7645 285.243C105.814 284.128 111.726 279.064 115.496 272.974C119.266 266.884 121.196 259.935 123.081 253.074L110.265 254.974C120.374 248.163 127.475 237.722 130.096 225.816Z" fill="#455A64"/>
<path d="M75.0554 393.099C75.0554 393.099 40.8024 352.087 41.1924 312.938H55.0344C55.0344 312.938 39.9994 303.056 41.1924 297.524C42.3854 291.992 42.7764 271.024 42.7764 271.024L55.4354 274.192C55.4354 274.192 45.9434 269.452 44.7504 261.923C43.5574 254.394 47.5164 219.648 47.5164 219.648C47.5164 219.648 62.9424 235.854 67.6934 252.462C72.4444 269.07 84.8934 288.444 81.2344 339.062C77.5754 389.68 75.0554 393.099 75.0554 393.099Z" fill="#455A64"/>
<path d="M92.4286 396.991C92.4286 396.991 129.549 372.263 137.791 340.698L126.637 337.675C126.637 337.675 140.891 333.013 141.137 328.306C141.383 323.599 145.598 306.657 145.598 306.657L134.734 306.434C134.734 306.434 143.4 304.694 145.999 298.916C148.598 293.138 153.128 264.262 153.128 264.262C153.128 264.262 137.178 273.932 129.705 286.246C122.232 298.56 108 311.409 99.8686 352.901C91.7376 394.393 92.4286 396.991 92.4286 396.991Z" fill="#455A64"/>
<path d="M56.8828 255.34C56.8959 255.486 56.9337 255.63 56.9948 255.764C57.1176 256.178 57.2178 256.599 57.2948 257.024C57.5518 258.139 57.9078 259.812 58.4098 261.898C58.9118 263.984 59.4358 266.605 60.0268 269.616C60.6178 272.627 61.3428 276.063 62.0348 279.866C63.5068 287.473 65.0468 296.597 66.6408 306.635C68.2348 316.673 69.7308 327.905 71.1018 339.635C72.4728 351.365 73.4888 362.589 74.2918 372.795C75.0948 383.001 75.6188 392.214 75.9198 399.943C76.1198 403.813 76.2098 407.316 76.3098 410.394C76.4098 413.472 76.4658 416.116 76.4878 418.28C76.5098 420.444 76.4878 422.095 76.5438 423.266V425.006C76.5252 424.858 76.5252 424.708 76.5438 424.56V423.27C76.5438 422.099 76.4438 420.426 76.3768 418.284C76.3098 416.142 76.2318 413.477 76.0978 410.409C75.9638 407.341 75.8408 403.839 75.6298 399.969C75.2618 392.239 74.6478 383.049 73.8678 372.843C73.0878 362.637 71.9678 351.443 70.6328 339.705C69.2978 327.967 67.7328 316.829 66.1718 306.712C64.6108 296.595 63.1048 287.505 61.7098 279.943C61.0408 276.128 60.3598 272.704 59.7918 269.682C59.2238 266.66 58.6768 264.105 58.2638 261.941C57.8508 259.777 57.5168 258.204 57.2938 257.056C57.1938 256.509 57.1038 256.097 57.0488 255.773C56.98 255.634 56.9245 255.489 56.8828 255.34Z" fill="#263238"/>
<path d="M70.3 418.184C70.3 418.184 38.947 382.637 29.221 361.133L36.571 357.954C31.24 358.835 25.785 356.549 21.647 353.069C17.509 349.589 14.486 345.016 11.508 340.51L21.189 338.87C12.2799 336.34 4.69008 330.471 0 322.484C11.421 324.369 21.761 330.637 30.271 338.49C37.171 344.836 43.009 352.209 48.619 359.749C51.3634 363.416 53.75 367.338 55.746 371.46C61.055 382.384 70.324 405.144 70.3 418.184Z" fill="#455A64"/>
<path d="M138.283 284.977C138.25 285.102 138.202 285.222 138.138 285.334L137.658 286.371C137.201 287.308 136.543 288.602 135.74 290.308C134.937 292.014 133.877 294.108 132.717 296.554C131.557 299 130.207 301.763 128.791 304.854C125.891 311.022 122.567 318.406 118.991 326.659C115.415 334.912 111.674 344.081 107.915 353.759C104.156 363.437 100.821 372.72 97.8766 381.253C94.9326 389.786 92.4556 397.482 90.4486 403.984C89.4226 407.23 88.5636 410.184 87.7716 412.773C86.9796 415.362 86.3326 417.591 85.8086 419.465C85.2846 421.339 84.8716 422.677 84.5706 423.665L84.2356 424.78C84.2039 424.907 84.159 425.03 84.1016 425.148C84.1164 425.016 84.1425 424.885 84.1796 424.758C84.2466 424.479 84.3466 424.122 84.4586 423.643L85.5736 419.405C86.0646 417.576 86.6886 415.323 87.4366 412.713C88.1846 410.103 89.0316 407.136 90.0366 403.902C91.9886 397.377 94.4976 389.659 97.3426 381.126C100.188 372.593 103.611 363.28 107.381 353.587C111.151 343.894 114.932 334.748 118.535 326.487C122.138 318.226 125.517 310.872 128.451 304.726C129.901 301.636 131.273 298.882 132.466 296.45C133.659 294.018 134.697 291.989 135.578 290.25L137.586 286.357L138.121 285.357C138.163 285.225 138.219 285.098 138.288 284.978L138.283 284.977Z" fill="#263238"/>
<path d="M72.9709 433.454C72.8977 433.24 72.8491 433.02 72.8259 432.796L72.5259 430.911C72.4029 430.086 72.2579 429.082 72.0349 427.922C71.8119 426.762 71.6349 425.435 71.3099 423.985C70.7519 421.074 69.9489 417.639 68.9229 413.846C67.8969 410.053 66.5639 405.974 64.9709 401.733C63.3779 397.492 61.6249 393.557 59.9299 390.022C58.2349 386.487 56.5839 383.397 55.0219 380.842C54.2969 379.542 53.5719 378.411 52.9589 377.407C52.3459 376.403 51.8439 375.533 51.3529 374.842L50.3269 373.225C50.202 373.041 50.0939 372.847 50.0039 372.645C50.1678 372.796 50.3105 372.968 50.4279 373.158L51.5429 374.72C52.0229 375.389 52.6029 376.237 53.2429 377.23C53.8829 378.223 54.6259 379.338 55.3729 380.63C56.9349 383.162 58.6409 386.274 60.4139 389.787C62.314 393.609 64.0189 397.525 65.5219 401.521C67.0309 405.516 68.3376 409.585 69.4369 413.712C70.3604 417.068 71.1051 420.471 71.6679 423.907C71.9579 425.368 72.1249 426.707 72.3039 427.878C72.4829 429.049 72.6159 430.053 72.6939 430.878C72.7719 431.703 72.8389 432.283 72.8839 432.785C72.9433 433.003 72.9732 433.228 72.9729 433.454H72.9709Z" fill="#263238"/>
<path d="M114.337 425.09H45.7188V439.088H114.337V425.09Z" fill="#2B3C8E"/>
<path d="M52.2539 439.086L59.6819 486.166H101.14L108.055 439.086H52.2539Z" fill="#2B3C8E"/>
<path d="M110.133 439.085C110.133 439.241 97.1498 439.375 81.1328 439.375C65.1158 439.375 52.1328 439.241 52.1328 439.085C52.1328 438.929 65.1158 438.785 81.1328 438.785C97.1498 438.785 110.133 438.914 110.133 439.085Z" fill="#263238"/>
<g opacity="0.3">
<path d="M130.096 225.816C116.533 232.843 106.127 244.945 98.6535 258.262C91.1805 271.579 86.3845 286.202 81.5775 300.713L77.3945 375.555C93.1775 348.708 105.848 317.143 109.272 286.18L98.7645 285.243C105.814 284.128 111.726 279.064 115.496 272.974C119.266 266.884 121.196 259.935 123.081 253.074L110.265 254.974C120.374 248.163 127.475 237.722 130.096 225.816Z" fill="black"/>
</g>
<path d="M449.571 286.226C449.571 286.226 460.945 305.11 462.645 323.089C464.345 341.068 452.326 486.355 452.326 486.355H310.785C310.785 486.355 348.708 306.955 361.111 295.439L361.959 283.504L449.571 286.226Z" fill="#263238"/>
<path d="M455.616 300.629C455.647 301.473 455.628 302.319 455.56 303.161C455.397 305.582 454.944 307.975 454.21 310.288C453.064 313.968 451.274 317.416 448.923 320.471C447.459 322.383 445.774 324.116 443.904 325.635C441.794 327.295 439.556 328.787 437.212 330.097C434.769 331.525 432.159 332.908 429.549 334.558C426.815 336.174 424.324 338.172 422.154 340.492C419.938 343.067 418.227 346.038 417.113 349.248C416 352.689 415.226 356.23 414.804 359.822C414.304 363.503 413.979 367.306 413.477 371.188C413.026 375.165 412.128 379.079 410.8 382.855C409.361 386.781 407.01 390.31 403.941 393.15C400.729 395.978 397.093 398.285 393.166 399.987C385.358 403.567 377.149 405.854 370.223 410.025C366.827 412.036 363.853 414.688 361.467 417.833C359.287 420.937 357.612 424.366 356.504 427.994C354.273 435.065 353.269 442.126 351.418 448.517C351.173 449.309 350.927 450.101 350.693 450.882C350.459 451.663 350.146 452.41 349.879 453.168C349.307 454.639 348.659 456.079 347.938 457.484C347.28 458.878 346.443 460.15 345.707 461.421C345.294 462.034 344.87 462.637 344.458 463.228L343.845 464.109L343.176 464.946C340.032 468.958 336.267 472.441 332.022 475.263C328.825 477.399 325.379 479.137 321.76 480.438C319.474 481.24 317.128 481.863 314.744 482.301L312.881 482.58L312.234 482.658L312.87 482.524L314.722 482.189C317.088 481.707 319.414 481.051 321.682 480.226C330.051 477.114 337.389 471.734 342.874 464.689L343.532 463.864L344.146 462.983L345.373 461.183C346.109 459.923 346.934 458.662 347.604 457.268C348.316 455.879 348.952 454.453 349.511 452.996C349.779 452.249 350.035 451.49 350.303 450.765C350.571 450.04 350.783 449.203 351.017 448.412C352.846 442.066 353.783 435.028 356.059 427.856C357.182 424.173 358.88 420.691 361.089 417.539C363.512 414.315 366.544 411.597 370.012 409.539C377.028 405.289 385.212 403.003 393 399.434C396.873 397.776 400.46 395.517 403.629 392.742C406.62 389.97 408.913 386.531 410.321 382.704C411.619 378.936 412.488 375.034 412.909 371.071C413.409 367.212 413.745 363.408 414.259 359.717C414.695 356.092 415.479 352.517 416.601 349.043C417.751 345.773 419.503 342.746 421.765 340.12C423.979 337.777 426.514 335.76 429.294 334.13C431.926 332.524 434.547 331.141 436.979 329.747C439.321 328.433 441.558 326.942 443.671 325.286C445.523 323.795 447.196 322.096 448.657 320.222C450.999 317.21 452.8 313.813 453.977 310.184C454.738 307.891 455.228 305.518 455.438 303.112C455.527 302.287 455.527 301.662 455.561 301.227C455.595 300.792 455.616 300.629 455.616 300.629Z" fill="#455A64"/>
<path d="M459.588 313.832C459.67 314.018 459.741 314.208 459.8 314.401C460.002 314.955 460.163 315.523 460.28 316.101C460.713 318.342 460.671 320.648 460.157 322.871C459.357 326.393 457.775 329.691 455.528 332.519C452.49 336.176 449.044 339.473 445.255 342.345C441.206 345.691 436.6 349.271 433.064 354.335C431.233 356.934 429.951 359.879 429.294 362.99C428.679 366.304 428.306 369.659 428.179 373.028C428.048 376.609 427.551 380.166 426.696 383.646C425.761 387.272 424.394 390.774 422.625 394.075C418.904 401.045 413.509 406.982 406.925 411.352C400.11 415.813 392.425 417.952 385.677 421.312C382.333 422.885 379.255 424.969 376.553 427.491C374.046 429.989 372.02 432.926 370.575 436.157C367.709 442.47 366.526 449.04 364.931 455.018C364.192 457.924 363.283 460.784 362.21 463.584C361.188 466.16 359.883 468.614 358.317 470.901C356.868 472.956 355.175 474.829 353.276 476.478C352.406 477.292 351.458 477.961 350.576 478.653C349.713 479.32 348.791 479.906 347.821 480.404C344.705 482.231 341.316 483.547 337.783 484.304C335.564 484.765 333.303 485 331.035 485.004L329.273 484.915H331.035C333.287 484.855 335.527 484.582 337.727 484.101C341.208 483.305 344.542 481.969 347.609 480.141C348.54 479.606 349.442 479.022 350.309 478.39C351.254 477.736 352.145 477.009 352.975 476.215C354.843 474.56 356.505 472.688 357.927 470.638C359.46 468.368 360.74 465.937 361.742 463.388C362.793 460.601 363.683 457.756 364.408 454.867C365.992 448.911 367.141 442.308 369.985 435.906C371.448 432.61 373.505 429.612 376.053 427.061C378.796 424.496 381.924 422.377 385.322 420.781C392.122 417.381 399.822 415.204 406.514 410.843C416.176 404.436 423.14 394.697 426.078 383.483C426.924 380.036 427.421 376.512 427.561 372.965C427.673 369.562 428.046 366.172 428.676 362.826C429.35 359.653 430.663 356.651 432.535 354.003C436.149 348.883 440.811 345.292 444.871 341.979C448.705 339.16 452.204 335.912 455.3 332.298C457.541 329.519 459.137 326.277 459.973 322.806C460.49 320.612 460.566 318.337 460.196 316.114C459.867 314.602 459.544 313.843 459.588 313.832Z" fill="#455A64"/>
<path d="M315.93 212.799C315.93 212.799 325.11 276.108 339.23 282.253C346.346 285.365 352.068 282.688 355.961 275.561C359.854 268.434 369.792 216.647 369.792 216.647L342.32 215.999L341.294 226.299L330.694 206.59L315.93 212.799Z" fill="#936760"/>
<path d="M356.427 254.138C356.373 253.962 356.294 253.793 356.193 253.638L355.446 252.255L352.68 247.18C350.315 242.897 347.103 236.963 343.523 230.394C339.943 223.825 336.831 217.902 334.523 213.518L331.801 208.398L331.054 207.015C330.876 206.703 330.775 206.535 330.754 206.547C330.804 206.725 330.871 206.896 330.954 207.06L331.623 208.488C332.214 209.726 333.084 211.5 334.188 213.697C336.419 218.069 339.508 224.07 343.111 230.64C346.714 237.21 349.959 243.121 352.402 247.371C353.629 249.49 354.633 251.186 355.358 252.357L356.195 253.695C356.258 253.85 356.335 253.999 356.427 254.138Z" fill="#6F4C47"/>
<path d="M452.159 227.606L444.318 262.683L448.032 286.229H361.859L367.492 176.329L388.974 174.5L441.463 183.367L452.159 227.606Z" fill="#2B3C8E"/>
<path d="M430.242 182.734C430.242 182.734 452.683 180.671 463.38 195.94C469.927 205.287 479.107 226.758 479.107 226.758L449.226 231.924L430.242 182.734Z" fill="#2B3C8E"/>
<g opacity="0.3">
<path d="M443.848 228.019C442.331 224.917 439.964 222.31 437.023 220.501C434.081 218.693 430.687 217.757 427.234 217.802C425.739 217.802 424.055 218.202 423.263 219.464C422.471 220.726 422.906 222.531 423.486 223.992C424.233 225.899 425.226 227.918 427.055 228.833C428.394 229.502 429.966 229.469 431.405 229.948C433.122 230.608 434.692 231.601 436.023 232.87C437.217 233.76 438.247 234.851 439.068 236.093C439.619 237.147 440.017 238.274 440.25 239.439C441.711 245.172 442.871 257.006 444.321 262.739L445.927 257.798C445.972 253.084 446.013 248.369 446.05 243.655C446.09 238.303 446.09 232.815 443.848 228.019Z" fill="black"/>
</g>
<path d="M417.059 257.264C417.059 257.175 418.174 257.376 420.115 257.52C422.564 257.714 425.027 257.654 427.465 257.342C429.903 257.015 432.302 256.443 434.626 255.635C436.411 255.01 437.481 254.52 437.515 254.598C437.303 254.775 437.067 254.922 436.815 255.033C436.149 255.387 435.464 255.703 434.763 255.981C430.106 257.832 425.061 258.491 420.085 257.899C419.334 257.812 418.589 257.682 417.854 257.509C417.576 257.474 417.307 257.391 417.059 257.264Z" fill="#263238"/>
<path d="M379.449 258.801C379.449 258.667 391.718 262.147 406.675 266.609C421.632 271.071 433.812 274.729 433.767 274.874C433.722 275.019 421.498 271.528 406.53 267.066C391.562 262.604 379.449 258.946 379.449 258.801Z" fill="#263238"/>
<g opacity="0.3">
<path d="M417.672 257.406C418.771 259.036 420.294 260.335 422.076 261.163C423.859 261.991 425.834 262.317 427.788 262.106C429.653 261.897 431.419 261.155 432.874 259.968C434.328 258.781 435.409 257.2 435.988 255.414C430.16 257.662 423.846 258.349 417.672 257.406Z" fill="black"/>
</g>
<g opacity="0.3">
<path d="M430.497 273.76L430.185 273.883C422.485 275.255 415.273 273.883 407.878 271.251C400.483 268.619 393.635 264.851 386.82 261.023L430.497 273.76Z" fill="black"/>
</g>
<path d="M367.492 176.332C367.492 176.332 353.282 178.072 347.772 190.207C343.985 198.862 340.781 207.76 338.18 216.842L367.18 223.367C367.18 223.367 371.742 198.829 372.088 190.207C372.48 180.738 372.857 176.053 367.492 176.332Z" fill="#2B3C8E"/>
<path d="M364.759 227.247C364.502 224.545 364.42 221.829 364.514 219.116C364.434 216.406 364.527 213.694 364.793 210.996C365.05 213.695 365.132 216.407 365.038 219.116C365.118 221.83 365.025 224.545 364.759 227.247Z" fill="#263238"/>
<path d="M380.495 98.5797C388.158 89.2107 398.464 83.8117 410.61 83.6117C417.436 83.4997 420.269 84.9117 425.188 86.2437C430.104 87.4327 434.446 90.3105 437.457 94.3747C440.948 99.3267 443.881 104.875 444.54 110.882C445.209 117.072 445.89 123.296 445.421 129.498C444.952 135.7 443.279 141.934 439.621 146.976L423.838 149.72C415.116 150.01 406.282 150.3 397.794 148.315C389.306 146.33 381.063 141.757 376.513 134.315C370.2 123.98 372.821 107.959 380.495 98.5797Z" fill="#263238"/>
<path d="M434.836 155.851C435.095 156.185 435.417 156.466 435.784 156.676C436.768 157.287 437.878 157.669 439.03 157.791C440.982 158.023 442.953 157.545 444.582 156.444C446.211 155.344 447.39 153.694 447.904 151.796C448.418 149.899 448.233 147.879 447.382 146.107C446.53 144.335 445.07 142.928 443.268 142.142C442.217 141.668 441.075 141.432 439.922 141.451C439.5 141.422 439.077 141.502 438.695 141.685C440.188 141.744 441.656 142.083 443.023 142.685C444.428 143.417 445.591 144.541 446.369 145.92C447.227 147.636 447.425 149.607 446.923 151.458C446.42 153.31 445.254 154.912 443.647 155.958C442.299 156.754 440.75 157.141 439.186 157.073C437.67 156.951 436.193 156.534 434.836 155.846V155.851Z" fill="#E0E0E0"/>
<path d="M365.193 144.388C365.343 142.591 365.903 140.853 366.829 139.306C367.755 137.76 369.023 136.446 370.536 135.465C372.073 134.534 373.866 134.115 375.656 134.27C377.446 134.424 379.141 135.143 380.496 136.324L382.983 139.28C384.905 140.172 386.501 141.641 387.55 143.482C388.599 145.322 389.05 147.444 388.839 149.553C388.55 151.654 387.669 153.629 386.298 155.247C384.927 156.865 383.123 158.058 381.098 158.688C379.059 159.261 376.907 159.3 374.848 158.802C372.789 158.304 370.893 157.285 369.342 155.844C367.824 154.376 366.662 152.581 365.943 150.595C365.224 148.61 364.967 146.487 365.193 144.388Z" fill="#263238"/>
<path d="M368.295 155.032C367.688 154.099 367.391 152.999 367.447 151.887C367.581 149.868 369.042 147.225 371.047 144.804C372.811 142.724 374.958 141.002 377.371 139.729C379.223 138.736 380.494 138.379 380.449 138.246C379.277 138.344 378.138 138.682 377.103 139.239C374.52 140.404 372.233 142.134 370.411 144.303C369.399 145.484 368.541 146.789 367.857 148.185C367.24 149.322 366.892 150.585 366.842 151.877C366.817 152.762 367.061 153.634 367.542 154.377C367.994 154.883 368.295 155.062 368.295 155.032Z" fill="#455A64"/>
<path d="M375.956 159.69C376.213 159.69 375.142 154.905 376.656 149.261C378.17 143.617 381.363 139.981 381.117 139.836C380.282 140.48 379.575 141.274 379.031 142.178C377.583 144.273 376.515 146.606 375.875 149.071C375.232 151.533 375.021 154.088 375.25 156.622C375.295 157.678 375.532 158.718 375.95 159.689L375.956 159.69Z" fill="#455A64"/>
<path d="M423.84 175.316C423.74 169.739 423.606 165.278 423.606 165.278C423.606 165.278 436.477 163.861 440.024 147.378C441.797 139.178 442.124 125.584 442.032 114.463C441.954 104.425 433.421 90.817 421.063 90.772L415.563 90.125L394.527 98.49C393.059 98.5591 391.67 99.1779 390.637 100.224C389.604 101.269 389.002 102.665 388.95 104.134L388.371 174.554L408.704 223.92L423.293 204.144L423.84 175.316Z" fill="#936760"/>
<path d="M415.297 143.505C415.418 142.661 415.845 141.891 416.497 141.341C417.095 140.826 417.846 140.521 418.634 140.475C419.422 140.429 420.203 140.642 420.858 141.084C421.536 141.606 422.063 142.3 422.382 143.094C422.702 143.889 422.803 144.754 422.676 145.601C422.316 146.108 421.85 146.532 421.311 146.844C420.772 147.156 420.173 147.348 419.553 147.408C419.356 147.419 419.159 147.419 418.962 147.408C417.98 147.403 417.037 147.029 416.319 146.36C415.944 145.992 415.656 145.544 415.478 145.05C415.301 144.555 415.237 144.027 415.293 143.505H415.297Z" fill="#6F4C47"/>
<path d="M433.857 125.835C433.834 126.392 433.593 126.918 433.186 127.3C432.78 127.681 432.24 127.888 431.682 127.876C431.409 127.884 431.137 127.837 430.883 127.738C430.628 127.639 430.396 127.49 430.201 127.299C430.005 127.109 429.849 126.881 429.743 126.63C429.637 126.378 429.582 126.108 429.582 125.835C429.608 125.279 429.85 124.754 430.256 124.373C430.662 123.992 431.2 123.784 431.757 123.794C432.03 123.786 432.302 123.833 432.556 123.932C432.811 124.031 433.043 124.18 433.239 124.37C433.434 124.561 433.59 124.788 433.696 125.04C433.802 125.291 433.857 125.562 433.857 125.835Z" fill="#263238"/>
<path d="M437.937 120.628C437.658 120.885 436.108 119.602 433.81 119.513C431.512 119.424 429.772 120.45 429.538 120.16C429.304 119.87 429.717 119.535 430.475 119.045C431.51 118.415 432.712 118.115 433.921 118.186C435.116 118.25 436.26 118.691 437.189 119.446C437.859 119.992 438.071 120.505 437.937 120.628Z" fill="#263238"/>
<path d="M423.516 138.017C424.744 137.7 426.007 137.543 427.275 137.549C427.866 137.549 428.39 137.437 428.547 137.036C428.635 136.436 428.533 135.824 428.257 135.285C427.777 133.835 427.287 132.307 426.762 130.723C424.71 124.232 423.249 118.911 423.516 118.833C423.783 118.755 425.657 123.941 427.71 130.433C428.201 132.028 428.68 133.556 429.127 135.017C429.459 135.741 429.523 136.559 429.306 137.326C429.212 137.53 429.07 137.708 428.894 137.847C428.718 137.986 428.511 138.082 428.291 138.126C427.963 138.202 427.627 138.232 427.291 138.215C426.029 138.313 424.76 138.246 423.516 138.017Z" fill="#263238"/>
<path d="M423.606 165.266C415.768 164.957 408.169 162.478 401.656 158.105C401.656 158.105 406.956 169.961 423.696 169.314L423.606 165.266Z" fill="#6F4C47"/>
<path d="M416.67 139.235C417.049 139.235 416.915 141.722 418.901 143.607C420.887 145.492 423.608 145.369 423.608 145.715C423.608 145.871 422.995 146.172 421.868 146.139C420.407 146.077 419.013 145.505 417.931 144.522C416.899 143.573 416.271 142.263 416.18 140.864C416.19 139.815 416.502 139.213 416.67 139.235Z" fill="#263238"/>
<path d="M437.445 111.975C437.032 112.51 435.292 112.042 433.229 112.098C431.166 112.154 429.437 112.598 429.013 112.098C428.823 111.841 429.08 111.306 429.813 110.782C430.825 110.125 432.007 109.779 433.213 109.789C434.413 109.748 435.597 110.067 436.613 110.704C437.445 111.184 437.657 111.708 437.445 111.975Z" fill="#263238"/>
<path d="M407.143 125.234C407.116 125.798 407.313 126.349 407.691 126.767C408.07 127.185 408.599 127.436 409.162 127.465C409.433 127.49 409.706 127.46 409.965 127.379C410.224 127.297 410.464 127.164 410.672 126.989C410.879 126.814 411.05 126.599 411.174 126.357C411.298 126.115 411.372 125.851 411.393 125.58C411.421 125.017 411.224 124.465 410.845 124.047C410.466 123.629 409.938 123.378 409.374 123.349C409.103 123.323 408.83 123.352 408.57 123.433C408.31 123.514 408.07 123.646 407.862 123.822C407.654 123.997 407.483 124.213 407.36 124.455C407.236 124.698 407.163 124.963 407.143 125.234Z" fill="#263238"/>
<path d="M406.484 119.804C406.741 120.083 408.384 118.912 410.678 118.956C412.972 119 414.638 120.183 414.894 119.904C415.15 119.625 414.76 119.279 414.035 118.789C413.06 118.083 411.892 117.694 410.689 117.674C409.494 117.644 408.321 118 407.343 118.689C406.595 119.18 406.35 119.671 406.484 119.804Z" fill="#263238"/>
<path d="M405.157 114.861C405.603 115.396 407.388 114.861 409.518 114.861C411.648 114.861 413.455 115.285 413.879 114.738C414.058 114.481 413.79 113.957 413.009 113.444C411.938 112.817 410.714 112.5 409.473 112.529C408.24 112.52 407.03 112.861 405.982 113.511C405.224 114.07 404.968 114.605 405.157 114.861Z" fill="#263238"/>
<path d="M391.829 132.082C391.896 130.833 390.629 127.844 389.409 127.621C386.174 126.941 380.263 126.874 379.761 135.172C379.061 146.504 390.58 144.865 390.625 144.541C390.67 144.217 391.606 136.354 391.829 132.082Z" fill="#936760"/>
<path d="M387.757 140.169C387.701 140.169 387.545 140.292 387.199 140.426C386.719 140.595 386.193 140.575 385.727 140.37C384.556 139.857 383.664 137.883 383.727 135.842C383.758 134.867 384.006 133.91 384.452 133.042C384.577 132.693 384.788 132.38 385.064 132.133C385.341 131.885 385.675 131.711 386.036 131.625C386.264 131.581 386.501 131.618 386.705 131.73C386.908 131.842 387.066 132.022 387.151 132.238C387.285 132.561 387.207 132.785 387.263 132.807C387.319 132.829 387.52 132.629 387.453 132.16C387.41 131.876 387.268 131.615 387.053 131.424C386.903 131.29 386.725 131.189 386.533 131.127C386.341 131.066 386.138 131.045 385.938 131.067C385.466 131.128 385.018 131.311 384.637 131.596C384.256 131.881 383.955 132.26 383.763 132.695C383.223 133.647 382.921 134.714 382.882 135.807C382.815 138.107 383.852 140.268 385.47 140.882C385.768 140.989 386.086 141.027 386.401 140.994C386.715 140.962 387.019 140.858 387.288 140.692C387.713 140.459 387.791 140.187 387.757 140.169Z" fill="#6F4C47"/>
<path d="M388.94 127.613L391.829 130.602C404.265 118.702 428.581 88.8866 427.22 90.6606C421.552 88.5439 415.443 87.8804 409.452 88.7306C400.194 90.3036 382.683 94.9306 382.928 105.852C383.173 116.773 388.94 127.613 388.94 127.613Z" fill="#263238"/>
<path d="M389.207 155.854C388.95 156.186 388.632 156.466 388.27 156.679C387.282 157.292 386.169 157.673 385.013 157.794C383.059 158.027 381.087 157.549 379.457 156.448C377.827 155.347 376.648 153.696 376.135 151.796C375.622 149.897 375.81 147.877 376.664 146.105C377.517 144.333 378.981 142.927 380.786 142.145C381.836 141.668 382.979 141.432 384.132 141.454C384.557 141.428 384.983 141.509 385.37 141.688C383.882 141.764 382.421 142.12 381.065 142.736C379.66 143.468 378.498 144.592 377.719 145.971C376.86 147.686 376.663 149.657 377.165 151.509C377.666 153.36 378.832 154.962 380.44 156.009C381.808 156.814 383.382 157.202 384.968 157.124C386.449 156.976 387.888 156.544 389.206 155.852L389.207 155.854Z" fill="#E0E0E0"/>
<path d="M372.465 125.114C372.504 124.89 372.564 124.67 372.643 124.456C372.848 123.84 373.106 123.243 373.413 122.671C374.586 120.57 376.203 118.751 378.153 117.34C381.046 115.274 384.271 113.718 387.689 112.74C391.481 111.513 395.764 110.509 399.958 108.747C403.905 107.095 407.648 104.992 411.112 102.479C413.951 100.418 416.598 98.1032 419.02 95.5642C420.645 93.8448 422.172 92.0349 423.593 90.1432L424.708 88.5702C424.846 88.3768 425.003 88.1976 425.176 88.0352C425.097 88.2465 424.988 88.4455 424.853 88.6262C424.608 89.0052 424.273 89.5632 423.738 90.2542C422.385 92.217 420.894 94.0807 419.276 95.8312C416.879 98.431 414.238 100.795 411.39 102.891C407.891 105.461 404.098 107.603 400.09 109.271C396.073 110.81 391.978 112.136 387.821 113.242C384.446 114.177 381.25 115.666 378.363 117.648C376.433 119.008 374.804 120.751 373.578 122.768C372.755 124.233 372.532 125.139 372.465 125.114Z" fill="#455A64"/>
<path d="M375.766 126.898C375.737 126.051 375.889 125.207 376.212 124.422C377.063 122.254 378.548 120.392 380.473 119.079C382.838 117.317 386.217 116.224 389.931 115.379C393.975 114.572 397.918 113.319 401.687 111.642C405.435 109.926 408.956 107.753 412.172 105.173C414.791 103.06 417.197 100.696 419.355 98.1134C420.802 96.3624 422.138 94.5221 423.355 92.6034L424.314 91.0194C424.418 90.8289 424.541 90.6496 424.682 90.4844C424.624 90.6941 424.533 90.8935 424.414 91.0754C424.191 91.5104 423.901 92.0574 423.544 92.7264C422.392 94.7016 421.095 96.5882 419.663 98.3704C414.903 104.287 408.832 109.014 401.929 112.178C398.125 113.878 394.14 115.136 390.05 115.926C386.336 116.751 383.034 117.778 380.703 119.451C378.815 120.699 377.328 122.465 376.42 124.537C376.128 125.304 375.907 126.095 375.762 126.902L375.766 126.898Z" fill="#455A64"/>
<path d="M317.076 218.982C316.44 218.748 315.604 209.724 315.604 209.724C315.604 209.724 306.581 202.508 305.354 199.574C304.127 196.64 304.306 189.647 304.306 189.647L319.086 179.609C319.086 179.609 327.819 187.417 330.106 190.495C331.389 192.213 332.337 196.953 333.006 200.79C333.541 204.052 333.665 207.369 333.374 210.661L333.162 213.204C333.162 213.204 327.217 222.752 317.076 218.982Z" fill="#936760"/>
<path d="M306.035 201.349C304.972 200.406 303.963 199.404 303.012 198.349C301.094 196.274 298.963 194.334 300.781 192.136C301.054 191.772 301.401 191.471 301.799 191.252C302.197 191.033 302.637 190.9 303.09 190.864C303.09 190.864 301.975 188.934 302.945 187.719C303.218 187.36 303.573 187.071 303.981 186.877C304.388 186.683 304.836 186.59 305.287 186.604C305.287 186.604 303.848 183.838 305.175 181.975C305.681 181.295 306.368 180.77 307.157 180.459C307.946 180.149 308.806 180.065 309.64 180.217C309.64 180.217 303.65 168.017 303.294 167.39C301.955 165.081 302.078 162.56 304.755 162.282C305.737 162.182 306.584 162.951 309.127 166.743C311.67 170.535 315.927 176.949 315.927 176.949C315.927 176.949 320.578 180.886 322.909 183.095C325.24 185.304 330.114 190.479 330.929 192.018C333.015 196.018 332.569 202.469 332.569 202.469L315.615 209.73C315.615 209.73 307.128 202.317 306.035 201.349Z" fill="#936760"/>
<path d="M303.602 191.288C304.305 191.703 304.977 192.168 305.61 192.682L307.74 194.266C308.17 194.577 308.571 194.923 308.94 195.303C309.373 195.725 309.654 196.278 309.74 196.876C309.796 197.185 309.767 197.504 309.657 197.798C309.547 198.093 309.36 198.352 309.115 198.549C308.641 198.878 308.057 199.01 307.487 198.917C307.011 198.867 306.54 198.77 306.082 198.627C305.647 198.504 305.257 198.382 304.889 198.259C304.175 198.025 303.595 197.813 303.205 197.646C302.815 197.479 302.614 197.378 302.625 197.346C302.636 197.314 303.525 197.603 304.967 198.004C305.802 198.261 306.656 198.451 307.521 198.573C307.998 198.631 308.479 198.52 308.882 198.261C309.071 198.099 309.215 197.89 309.299 197.656C309.383 197.421 309.405 197.169 309.362 196.923C309.279 196.407 309.034 195.931 308.662 195.562C308.32 195.193 307.947 194.853 307.547 194.547L305.461 192.885C304.795 192.407 304.172 191.872 303.598 191.285L303.602 191.288Z" fill="#6F4C47"/>
<path d="M318.36 187.673C317.879 186.82 317.608 185.864 317.568 184.885C317.398 183.922 317.456 182.933 317.735 181.996C317.858 181.996 317.735 183.29 317.947 184.851C318.143 185.782 318.281 186.725 318.36 187.673Z" fill="#6F4C47"/>
<path d="M326.567 188.913C324.41 187.948 322.021 187.627 319.685 187.987C317.359 188.346 315.102 189.061 312.993 190.106C311.293 190.906 309.446 192.091 309.212 193.954C308.978 195.817 310.729 197.601 312.625 197.969C314.555 198.184 316.504 197.794 318.202 196.854C319.888 195.892 321.686 195.142 323.556 194.623" fill="#936760"/>
<path d="M323.582 194.677C323.112 194.804 322.651 194.957 322.199 195.134C320.977 195.634 319.782 196.196 318.619 196.818C317.799 197.24 316.944 197.591 316.065 197.866C315.041 198.203 313.956 198.313 312.886 198.189C311.672 198.031 310.568 197.407 309.808 196.449C309.393 195.947 309.123 195.342 309.027 194.698C308.956 194.024 309.088 193.345 309.406 192.746C310.097 191.654 311.094 190.79 312.273 190.259C313.315 189.736 314.388 189.274 315.485 188.876C317.345 188.18 319.31 187.803 321.296 187.761C322.632 187.729 323.964 187.929 325.233 188.352C325.58 188.467 325.919 188.605 326.248 188.765C326.362 188.817 326.47 188.881 326.571 188.955C326.118 188.778 325.656 188.626 325.188 188.498C323.922 188.144 322.608 187.99 321.295 188.041C319.345 188.131 317.423 188.542 315.607 189.257C314.527 189.654 313.473 190.116 312.45 190.64C311.341 191.141 310.402 191.955 309.75 192.982C309.46 193.501 309.343 194.099 309.416 194.689C309.496 195.265 309.731 195.809 310.096 196.262C310.8 197.144 311.812 197.725 312.929 197.89C313.952 198.009 314.989 197.914 315.974 197.611C316.843 197.35 317.69 197.018 318.506 196.618C319.688 196.016 320.906 195.487 322.153 195.034C322.495 194.921 322.846 194.832 323.201 194.766C323.323 194.719 323.451 194.689 323.582 194.677Z" fill="#6F4C47"/>
<path d="M303.816 191.443C306.646 193.612 309.357 195.931 311.936 198.392C312.632 199.155 313.517 199.721 314.501 200.032C315.293 200.199 316.665 198.917 317.301 198.359L308.188 188.789" fill="#936760"/>
<path d="M308.188 188.789C308.466 188.987 308.72 189.215 308.946 189.469L310.91 191.459C312.572 193.159 314.87 195.53 317.446 198.229L317.58 198.374L317.424 198.508C316.938 198.945 316.428 199.354 315.896 199.735C315.667 199.887 315.424 200.017 315.171 200.125C315.036 200.181 314.893 200.214 314.747 200.225C314.6 200.255 314.448 200.255 314.301 200.225C313.796 200.076 313.323 199.834 312.907 199.511C312.093 198.886 311.446 198.211 310.765 197.604C309.427 196.377 308.222 195.284 307.196 194.381C306.17 193.478 305.311 192.764 304.72 192.273C304.404 192.032 304.103 191.771 303.82 191.492C304.174 191.679 304.507 191.903 304.813 192.161C305.438 192.607 306.319 193.276 307.367 194.169C308.415 195.062 309.667 196.121 311.003 197.348C311.683 197.939 312.364 198.631 313.133 199.211C313.513 199.505 313.944 199.724 314.404 199.858C314.633 199.885 314.864 199.863 315.083 199.794C315.302 199.725 315.505 199.611 315.676 199.458C316.2 199.088 316.702 198.69 317.182 198.265V198.465C314.605 195.755 312.352 193.345 310.735 191.605L308.85 189.542C308.615 189.305 308.394 189.053 308.188 188.789Z" fill="#6F4C47"/>
<path d="M305.621 185.887L314.811 196.238C315.419 197.012 316.155 197.675 316.986 198.201C317.403 198.462 317.878 198.614 318.369 198.645C318.86 198.676 319.35 198.585 319.797 198.38C320.352 197.995 320.764 197.436 320.966 196.792C321.168 196.148 321.149 195.454 320.912 194.821C320.416 193.56 319.655 192.419 318.681 191.475C315.908 188.33 313.383 184.974 311.13 181.438" fill="#936760"/>
<path d="M311.155 181.404C311.248 181.505 311.334 181.613 311.411 181.727L312.08 182.697C312.671 183.534 313.519 184.738 314.612 186.197C315.705 187.656 317.077 189.342 318.661 191.16C319.557 192.071 320.31 193.113 320.892 194.25C321.183 194.893 321.295 195.602 321.215 196.302C321.157 197.044 320.822 197.737 320.278 198.243C319.993 198.485 319.658 198.661 319.298 198.76C318.938 198.858 318.56 198.876 318.192 198.812C317.495 198.709 316.837 198.425 316.285 197.987C315.33 197.143 314.446 196.221 313.642 195.232L309.415 190.402C308.244 189.052 307.296 187.937 306.593 187.123L305.835 186.186C305.74 186.085 305.658 185.972 305.59 185.851C305.59 185.851 305.702 185.94 305.89 186.13L306.704 186.989L309.615 190.189L313.909 194.963C314.706 195.927 315.579 196.826 316.519 197.651C317.02 198.048 317.616 198.305 318.248 198.398C318.562 198.451 318.884 198.435 319.192 198.352C319.5 198.269 319.787 198.121 320.033 197.918C320.503 197.472 320.789 196.865 320.833 196.218C320.906 195.586 320.805 194.946 320.543 194.366C319.956 193.255 319.204 192.24 318.312 191.354C316.728 189.525 315.39 187.796 314.319 186.313C313.248 184.83 312.419 183.603 311.876 182.733C311.608 182.298 311.396 181.963 311.263 181.733C311.214 181.626 311.176 181.514 311.151 181.398L311.155 181.404Z" fill="#6F4C47"/>
<path d="M325.174 205.154C324.831 205.334 324.445 205.415 324.059 205.388C323.153 205.437 322.249 205.277 321.416 204.92C320.565 204.578 319.802 204.048 319.185 203.37C318.915 203.105 318.713 202.78 318.594 202.422C319.395 203.356 320.403 204.089 321.538 204.564C322.672 205.038 323.903 205.241 325.13 205.155L325.174 205.154Z" fill="#6F4C47"/>
<path d="M442.055 175.974L438.843 216.507C438.788 217.201 438.463 217.845 437.937 218.3C437.41 218.755 436.726 218.985 436.032 218.938L413.446 217.421C413.093 217.4 412.747 217.309 412.431 217.151C412.114 216.994 411.832 216.775 411.602 216.506C411.372 216.237 411.198 215.925 411.091 215.588C410.985 215.251 410.947 214.895 410.981 214.543L414.673 174.043C414.732 173.356 415.059 172.719 415.582 172.268C416.105 171.818 416.784 171.591 417.473 171.634L439.591 173.073C439.945 173.097 440.29 173.192 440.607 173.351C440.924 173.511 441.206 173.732 441.436 174.003C441.665 174.273 441.839 174.587 441.945 174.925C442.052 175.264 442.089 175.62 442.056 175.973L442.055 175.974Z" fill="#455A64"/>
<path d="M474.387 227.57C474.387 227.57 481.135 273.17 480.867 279.29C480.599 285.41 473.673 299.01 464.348 300.337C455.023 301.664 446.234 293.143 445.967 281.956C445.7 270.769 444.316 235.389 444.316 235.389L451.276 231.552L474.387 227.57Z" fill="#936760"/>
<path d="M435.965 189.895C435.965 189.895 442.947 194.189 445.011 195.316C447.075 196.443 446.811 204.763 446.811 204.763L458.567 232.09L444.402 237.165C444.402 237.165 439.349 227.606 437.902 226.402C436.91 225.62 435.773 225.042 434.556 224.702C434.556 224.702 433.831 227.357 431.656 226.152C429.929 225.013 428.379 223.626 427.056 222.036C427.056 222.036 425.115 223.252 424.39 221.802C423.665 220.352 422.46 217.202 422.46 217.202C422.46 217.202 426.56 211.882 428.26 211.882C429.96 211.882 438.66 212.362 438.66 212.362C438.66 212.362 438.18 211.637 435.76 210.678C433.34 209.719 418.951 205.469 418.271 205.213C417.256 204.823 416.118 202.179 419.264 201.934C422.41 201.689 440.11 204.856 440.11 204.856C440.11 204.856 441.08 200.283 440.355 199.279C439.63 198.275 433.299 194.245 435.965 189.895Z" fill="#936760"/>
<path d="M426.994 221.884C426.871 221.226 426.89 220.549 427.05 219.899C427.201 219.142 427.592 218.454 428.165 217.936C428.919 217.39 429.835 217.115 430.765 217.155C432.354 217.053 433.95 217.109 435.528 217.322C436.187 217.365 436.835 217.516 437.446 217.768C437.446 217.935 434.457 217.433 430.754 217.679C429.934 217.638 429.122 217.857 428.434 218.304C427.934 218.751 427.581 219.338 427.419 219.988C427.311 220.629 427.17 221.263 426.995 221.888L426.994 221.884Z" fill="#6F4C47"/>
<path d="M429.809 222.695C430.734 223.074 431.639 223.503 432.519 223.978C433.471 224.291 434.402 224.663 435.307 225.093C434.266 225.162 433.226 224.938 432.307 224.446C431.32 224.121 430.451 223.512 429.809 222.695Z" fill="#6F4C47"/>
<path d="M439.264 204.762C440.205 204.904 441.078 205.336 441.762 205.997C442.446 206.659 442.906 207.518 443.079 208.454C442.566 207.724 442.003 207.031 441.395 206.379C440.334 205.42 439.208 204.907 439.264 204.762Z" fill="#6F4C47"/>
<path d="M318.569 448.771C318.413 448.771 324.503 423.117 332.177 391.571C339.851 360.025 346.186 334.535 346.342 334.535C346.498 334.535 340.408 360.189 332.735 391.742C325.062 423.295 318.725 448.805 318.569 448.771Z" fill="#455A64"/>
<path d="M485.488 486.001C485.488 486.157 379.082 486.291 247.847 486.291C116.612 486.291 10.1719 486.157 10.1719 486.001C10.1719 485.845 116.572 485.711 247.847 485.711C379.122 485.711 485.488 485.834 485.488 486.001Z" fill="#263238"/>
<path d="M430.087 83.7793L433.366 71.9453C429.026 64.9126 427.473 56.5107 429.014 48.3913C430.554 40.2719 435.076 33.0224 441.691 28.0682C448.305 23.1139 456.534 20.8133 464.759 21.6185C472.984 22.4238 480.61 26.2767 486.138 32.4198C491.666 38.5629 494.696 46.5518 494.633 54.8158C494.569 63.0798 491.416 71.021 485.794 77.0783C480.172 83.1356 472.488 86.8707 464.251 87.5492C456.015 88.2278 447.823 85.8008 441.285 80.7453L430.087 83.7793Z" fill="white"/>
<path d="M430.087 83.7774L430.834 83.5544L432.987 82.9544L441.263 80.6344L441.185 80.8464C441.163 80.8219 441.151 80.7902 441.151 80.7574C441.151 80.7246 441.163 80.6929 441.185 80.6684C441.21 80.6526 441.239 80.6441 441.268 80.6441C441.298 80.6441 441.327 80.6526 441.352 80.6684C445.748 84.0417 450.929 86.2438 456.409 87.0684C459.917 87.6073 463.489 87.562 466.983 86.9344C473.488 85.8047 479.503 82.7413 484.242 78.1435C488.981 73.5457 492.225 67.6268 493.551 61.1584C494.517 56.2186 494.349 51.1239 493.06 46.2584C491.738 41.1762 489.202 36.4908 485.671 32.6049C482.139 28.719 477.716 25.7488 472.783 23.9494C466.392 21.6008 459.428 21.2993 452.858 23.0869C446.288 24.8745 440.437 28.6624 436.117 33.9253C431.796 39.1882 429.221 45.6651 428.748 52.4576C428.275 59.2501 429.928 66.0215 433.477 71.8324C433.488 71.8689 433.488 71.9079 433.477 71.9444C432.362 75.7444 431.547 78.6364 430.967 80.6774C430.688 81.6704 430.467 82.4174 430.309 82.9084C430.151 83.3994 430.075 83.7004 430.075 83.7004C430.075 83.7004 430.131 83.4554 430.254 82.9534C430.377 82.4514 430.589 81.6814 430.854 80.7224C431.389 78.6814 432.193 75.7034 433.219 71.7994V71.9114C429.709 66.2691 427.984 59.6991 428.269 53.0605C428.553 46.4219 430.834 40.0237 434.814 34.7024C439.917 27.8885 447.432 23.284 455.82 21.8323C464.209 20.3807 472.835 22.1917 479.931 26.8944C482.142 28.3937 484.17 30.1455 485.976 32.1144C487.795 34.108 489.378 36.3048 490.694 38.6614C494.372 45.5618 495.554 53.5209 494.04 61.1924C492.694 67.7596 489.394 73.7664 484.573 78.4243C479.752 83.0822 473.635 86.1735 467.026 87.2924C463.482 87.918 459.86 87.9481 456.307 87.3814C450.772 86.4966 445.552 84.2208 441.138 80.7674L441.328 80.5894C441.34 80.6009 441.349 80.6147 441.356 80.63C441.362 80.6453 441.366 80.6617 441.366 80.6784C441.366 80.695 441.362 80.7115 441.356 80.7268C441.349 80.7421 441.34 80.7559 441.328 80.7674L432.907 82.9984L430.754 83.5784L430.087 83.7774Z" fill="#263238"/>
<path d="M446.715 55.4577L450.574 51.5877L458.025 58.2127L472.647 44.1367L476.239 48.0067L457.478 65.6637L446.715 55.4577Z" fill="#2B3C8E"/>
</svg>
