<svg width="501" height="492" viewBox="0 0 501 492" fill="none" xmlns="http://www.w3.org/2000/svg">
<path d="M500.003 331.133H308.188V220.133H500.003V331.133ZM309.358 329.963H498.832V221.303H309.358V329.963Z" fill="#E0E0E0"/>
<path d="M460.433 279.316H333.879V283.026H460.433V279.316Z" fill="#F0F0F0"/>
<path d="M469.153 293.152H333.879V297.202H469.153V293.152Z" fill="#F0F0F0"/>
<path d="M469.153 307.148H333.879V311.198H469.153V307.148Z" fill="#F0F0F0"/>
<path d="M378.108 259.223H333.879V268.855H378.108V259.223Z" fill="#F0F0F0"/>
<path d="M499.418 220.719H308.809V238.392H499.418V220.719Z" fill="#E0E0E0"/>
<path d="M484.751 235.744C484.505 235.51 486.963 232.544 490.228 229.131C493.493 225.718 496.361 223.131 496.595 223.349C496.829 223.567 494.383 226.549 491.118 229.973C487.853 233.397 484.989 235.978 484.751 235.744Z" fill="white"/>
<path d="M496.619 235.745C496.385 235.979 493.529 233.404 490.252 229.975C486.975 226.546 484.529 223.585 484.775 223.351C485.021 223.117 487.865 225.692 491.142 229.133C494.419 232.574 496.841 235.511 496.619 235.745Z" fill="white"/>
<path d="M263.968 0.90625H73.3594V110.747H263.968V0.90625Z" fill="#E6E6E6"/>
<path d="M224.995 59.5195H98.4414V63.2295H224.995V59.5195Z" fill="#F0F0F0"/>
<path d="M233.715 73.3516H98.4414V77.4016H233.715V73.3516Z" fill="#F0F0F0"/>
<path d="M233.715 87.3516H98.4414V91.4016H233.715V87.3516Z" fill="#F0F0F0"/>
<path d="M142.67 39.4219H98.4414V49.0539H142.67V39.4219Z" fill="#F0F0F0"/>
<path d="M263.968 0.90625H73.3594V18.5793H263.968V0.90625Z" fill="#E0E0E0"/>
<path d="M248.661 15.8503C248.415 15.6283 250.873 12.6503 254.138 9.23735C257.403 5.82435 260.271 3.23735 260.505 3.46735C260.739 3.69735 258.294 6.66735 255.029 10.0803C251.764 13.4933 248.896 16.0613 248.661 15.8503Z" fill="white"/>
<path d="M260.506 15.8509C260.272 16.0849 257.416 13.5099 254.139 10.0809C250.862 6.65189 248.416 3.70189 248.662 3.46789C248.908 3.23389 251.752 5.80889 255.029 9.23789C258.306 12.6669 260.752 15.6259 260.506 15.8509Z" fill="white"/>
<path d="M191.78 204.952H0V93.9414H191.78V204.952ZM1.17 203.782H190.609V95.1114H1.17V203.782Z" fill="#E0E0E0"/>
<path d="M152.222 153.137H25.668V156.847H152.222V153.137Z" fill="#F0F0F0"/>
<path d="M160.942 166.973H25.668V171.023H160.942V166.973Z" fill="#F0F0F0"/>
<path d="M160.942 180.969H25.668V185.019H160.942V180.969Z" fill="#F0F0F0"/>
<path d="M69.897 133.043H25.668V142.675H69.897V133.043Z" fill="#F0F0F0"/>
<path d="M191.195 94.5234H0.585938V112.196H191.195V94.5234Z" fill="#E0E0E0"/>
<path d="M413.113 230.383H188.047V431.877H413.113V230.383Z" fill="#E6E6E6"/>
<path d="M199.366 166.914H23.0586V350.092H199.366V166.914Z" fill="#F0F0F0"/>
<path d="M199.366 166.914H23.0586V186.869H199.366V166.914Z" fill="#E0E0E0"/>
<path d="M37.6191 176.682C37.5874 177.406 37.3437 178.105 36.9183 178.692C36.493 179.279 35.9046 179.728 35.2264 179.983C34.5481 180.238 33.8098 180.289 33.1031 180.128C32.3963 179.968 31.7523 179.603 31.2509 179.08C30.7495 178.557 30.4129 177.898 30.2828 177.185C30.1527 176.472 30.2348 175.736 30.519 175.069C30.8031 174.403 31.2769 173.834 31.8813 173.434C32.4858 173.035 33.1944 172.821 33.9191 172.82C34.921 172.844 35.8726 173.264 36.5659 173.988C37.2593 174.712 37.6379 175.68 37.6191 176.682Z" fill="white"/>
<path d="M52.6317 176.682C52.6019 177.409 52.359 178.111 51.9332 178.701C51.5074 179.291 50.9175 179.743 50.237 180.001C49.5564 180.258 48.8152 180.309 48.1056 180.149C47.396 179.988 46.7492 179.622 46.2459 179.097C45.7425 178.572 45.4048 177.91 45.2747 177.194C45.1445 176.478 45.2278 175.74 45.514 175.071C45.8002 174.402 46.2769 173.832 46.8845 173.432C47.4922 173.032 48.2041 172.819 48.9317 172.82C49.9336 172.844 50.8852 173.264 51.5786 173.988C52.2719 174.712 52.6505 175.68 52.6317 176.682Z" fill="white"/>
<path d="M67.6474 176.682C67.6175 177.409 67.3746 178.111 66.9488 178.701C66.523 179.291 65.9332 179.743 65.2526 180.001C64.572 180.258 63.8308 180.309 63.1212 180.149C62.4116 179.988 61.7649 179.622 61.2615 179.097C60.7582 178.572 60.4204 177.91 60.2903 177.194C60.1602 176.478 60.2434 175.74 60.5296 175.071C60.8159 174.402 61.2925 173.832 61.9002 173.432C62.5078 173.032 63.2198 172.819 63.9474 172.82C64.9493 172.844 65.9009 173.264 66.5942 173.988C67.2875 174.712 67.6661 175.68 67.6474 176.682Z" fill="white"/>
<path d="M474.828 40.9688H249.762V265.286H474.828V40.9688Z" fill="#F0F0F0"/>
<path d="M474.828 40.9688H249.762V67.2437H474.828V40.9688Z" fill="#E0E0E0"/>
<path d="M268.933 53.841C268.892 54.7964 268.571 55.7187 268.01 56.4933C267.45 57.2679 266.674 57.8607 265.779 58.1981C264.884 58.5355 263.91 58.6026 262.977 58.3912C262.045 58.1797 261.195 57.6989 260.533 57.0086C259.871 56.3182 259.427 55.4487 259.255 54.508C259.083 53.5673 259.192 52.5968 259.567 51.7171C259.942 50.8374 260.567 50.0873 261.364 49.5598C262.162 49.0323 263.097 48.7507 264.053 48.75C265.375 48.7812 266.63 49.3343 267.544 50.2883C268.459 51.2423 268.959 52.5196 268.934 53.841H268.933Z" fill="white"/>
<path d="M287.271 50.4018C287.92 51.1064 288.347 51.9863 288.499 52.9318C288.651 53.8774 288.522 54.8468 288.127 55.7194C287.732 56.5919 287.089 57.3289 286.278 57.8386C285.467 58.3483 284.524 58.6082 283.567 58.5859C282.609 58.5635 281.68 58.2599 280.894 57.7129C280.107 57.1659 279.5 56.3996 279.146 55.5096C278.792 54.6196 278.708 53.6452 278.904 52.7078C279.1 51.7703 279.568 50.9113 280.249 50.2378C281.203 49.3302 282.477 48.8378 283.794 48.8685C285.11 48.8993 286.36 49.4507 287.271 50.4018Z" fill="white"/>
<path d="M308.466 53.841C308.425 54.7961 308.104 55.7179 307.543 56.4922C306.983 57.2665 306.207 57.859 305.313 58.1962C304.418 58.5335 303.444 58.6006 302.512 58.3892C301.58 58.1778 300.73 57.6973 300.068 57.0073C299.407 56.3172 298.962 55.4481 298.791 54.5077C298.619 53.5673 298.727 52.5972 299.101 51.7177C299.476 50.8382 300.101 50.0881 300.898 49.5605C301.695 49.0329 302.629 48.7511 303.585 48.75C304.907 48.7812 306.162 49.3343 307.076 50.2883C307.991 51.2423 308.491 52.5196 308.466 53.841Z" fill="white"/>
<path d="M426.206 491.394C426.206 491.558 344.935 491.694 244.714 491.694C144.494 491.694 63.1875 491.554 63.1875 491.394C63.1875 491.234 144.447 491.094 244.714 491.094C344.982 491.094 426.206 491.242 426.206 491.394Z" fill="#263238"/>
<path d="M347.022 348.114C328.939 335.486 324.843 312.043 325.557 290.964C325.674 287.453 325.288 283.731 326.957 280.653C328.626 277.575 332.54 275.453 335.688 276.931C338.298 278.16 339.433 281.203 340.896 283.719C342.848 287.071 345.708 289.802 349.147 291.596C351.382 292.766 354.156 293.469 356.368 292.251C359.411 290.577 359.762 286.399 359.739 282.888C359.739 276.355 359.7 269.832 359.622 263.319C359.411 259.821 359.767 256.311 360.675 252.926C361.763 249.602 364.186 246.526 367.498 245.588C370.81 244.65 374.942 246.583 375.691 250C375.819 251.448 375.854 252.902 375.796 254.354C375.89 255.817 376.569 257.42 377.938 257.865C379.307 258.31 380.738 257.291 381.789 256.265C385.389 252.754 387.852 248.178 390.134 243.66C392.416 239.142 394.652 234.496 397.929 230.645C401.206 226.794 405.736 223.74 410.803 223.445C415.87 223.15 421.149 226.266 422.413 231.181C423.677 236.096 420.813 241.118 417.732 245.109C413.087 251.033 407.611 256.257 401.475 260.617C400.277 261.271 399.321 262.293 398.748 263.531C397.987 265.872 400.199 268.212 402.505 268.95C405.115 269.816 407.947 269.55 410.698 269.875C413.449 270.2 416.374 271.397 417.416 273.975C418.844 277.556 415.848 281.302 412.91 283.759C407.012 288.674 400.315 292.542 393.11 295.194C390.535 296.13 387.831 296.961 385.748 298.764C383.665 300.567 382.424 303.715 383.677 306.184C384.93 308.653 388.148 309.438 390.852 308.934C393.556 308.43 395.952 306.98 398.53 306.008C403.34 304.194 409.543 304.522 412.575 308.677C413.514 310.109 414.109 311.739 414.312 313.439C414.515 315.14 414.321 316.864 413.745 318.477C412.574 321.685 410.772 324.626 408.445 327.126C400.779 336.285 390.819 343.244 379.583 347.292C368.429 351.154 358.095 352.208 347.011 348.146" fill="#2B3C8E"/>
<path d="M417.267 226.336C417.267 226.336 417.162 226.453 416.928 226.664L415.886 227.589C414.973 228.408 413.627 229.602 411.93 231.182C407.119 235.65 402.65 240.474 398.564 245.613C395.954 248.855 393.251 252.53 390.371 256.521C387.491 260.512 384.519 264.821 381.571 269.395C378.427 274.221 375.547 279.214 372.945 284.353C371.587 287.033 370.393 289.83 369.165 292.686L365.537 301.405C360.754 312.388 356.588 323.629 353.059 335.076C350.217 344.442 348.258 354.054 347.207 363.786C346.526 370.353 346.417 376.967 346.879 383.554C347.066 385.895 347.242 387.685 347.406 388.903C347.476 389.488 347.523 389.956 347.57 390.296V390.776C347.52 390.624 347.485 390.467 347.465 390.308C347.406 389.969 347.336 389.508 347.243 388.927C347.032 387.757 346.81 385.907 346.599 383.567C346.035 376.968 346.074 370.332 346.716 363.741C347.701 353.968 349.618 344.311 352.439 334.903C355.938 323.423 360.092 312.153 364.88 301.149L368.602 292.465C369.831 289.621 371.036 286.8 372.402 284.108C375.023 278.954 377.928 273.948 381.102 269.115C384.102 264.433 387.118 260.197 389.962 256.241C392.806 252.285 395.556 248.587 398.155 245.356C402.283 240.23 406.811 235.44 411.696 231.03C413.428 229.473 414.809 228.303 415.746 227.519L416.834 226.641C416.968 226.525 417.113 226.422 417.267 226.336Z" fill="#263238"/>
<path d="M372.56 284.076C372.395 283.594 372.282 283.096 372.221 282.59C372.034 281.619 371.821 280.249 371.577 278.47C371.077 274.959 370.559 270.149 370.009 264.823C369.459 259.497 368.839 254.676 368.324 251.2C368.055 249.468 367.824 248.075 367.657 247.1C367.529 246.603 367.462 246.092 367.457 245.578C367.658 246.047 367.804 246.538 367.89 247.041C368.147 248.001 368.44 249.382 368.768 251.126C369.435 254.637 370.091 259.412 370.641 264.749C371.191 270.086 371.659 274.767 372.022 278.407C372.198 280.046 372.35 281.438 372.467 282.55C372.558 283.052 372.59 283.563 372.561 284.072L372.56 284.076Z" fill="#263238"/>
<path d="M417.596 275.678C417.026 275.802 416.446 275.873 415.864 275.889C414.694 275.994 413.032 276.135 410.972 276.369C406.852 276.814 401.188 277.633 394.972 278.803C388.756 279.973 383.172 281.296 379.16 282.314C377.16 282.829 375.543 283.297 374.478 283.614C373.909 283.816 373.321 283.957 372.723 284.035C373.263 283.763 373.827 283.54 374.408 283.368C375.508 282.982 377.1 282.443 379.09 281.868C383.081 280.698 388.664 279.305 394.902 278.111C400.186 277.1 405.518 276.358 410.878 275.887C412.949 275.712 414.623 275.641 415.794 275.618C416.395 275.578 416.998 275.598 417.596 275.678Z" fill="#263238"/>
<path d="M353.017 334.08C352.894 333.911 352.793 333.726 352.717 333.53L351.945 331.903C351.278 330.487 350.377 328.392 349.3 325.829C347.123 320.679 344.349 313.47 341.4 305.464C338.451 297.458 335.735 290.249 333.675 285.041C332.668 282.513 331.837 280.441 331.217 278.896L330.562 277.222C330.471 277.029 330.408 276.824 330.375 276.613C330.498 276.783 330.599 276.968 330.675 277.163L331.447 278.79C332.102 280.206 333.015 282.301 334.092 284.864C336.269 290.014 339.043 297.223 341.992 305.229C344.941 313.235 347.657 320.444 349.717 325.652C350.723 328.18 351.554 330.252 352.163 331.797C352.432 332.464 352.655 332.967 352.83 333.471C352.921 333.664 352.984 333.869 353.017 334.08Z" fill="#263238"/>
<path d="M412.796 314.805C412.608 314.913 412.406 314.995 412.196 315.051L410.464 315.636L404.064 317.708C398.657 319.464 391.19 321.968 382.997 324.73C374.804 327.492 367.302 329.95 361.86 331.589C359.145 332.42 356.933 333.052 355.399 333.473L353.632 333.929C353.426 333.994 353.215 334.037 353 334.058C353.188 333.95 353.39 333.867 353.6 333.812L355.332 333.227L361.732 331.155C367.139 329.4 374.606 326.895 382.799 324.133C390.992 321.371 398.482 318.913 403.924 317.274C406.651 316.443 408.851 315.811 410.396 315.39L412.163 314.933C412.369 314.868 412.581 314.825 412.796 314.805Z" fill="#263238"/>
<path d="M388.404 30.9029L382.376 33.0519L379.789 25.1749C375.038 10.6519 359.894 2.94287 345.976 7.84687C332.058 12.7509 324.652 28.6799 329.403 43.2039L331.989 51.0809L325.938 53.2459C323.631 54.1409 321.757 55.8907 320.707 58.1315C319.656 60.3723 319.51 62.9317 320.297 65.2779L337.069 116.529C337.417 117.69 337.995 118.77 338.769 119.704C339.543 120.637 340.496 121.406 341.572 121.964C342.649 122.522 343.827 122.858 345.035 122.951C346.244 123.045 347.46 122.895 348.609 122.51L411.076 100.167C413.414 99.2736 415.315 97.5084 416.378 95.2425C417.441 92.9767 417.584 90.3869 416.776 88.0179L399.991 36.7669C399.634 35.6087 399.047 34.5343 398.266 33.6079C397.484 32.6815 396.524 31.9219 395.443 31.3747C394.361 30.8274 393.181 30.5035 391.972 30.4225C390.762 30.3414 389.549 30.5048 388.404 30.9029ZM340.793 39.0959C339.512 35.3192 339.742 31.1931 341.435 27.5823C343.128 23.9714 346.153 21.156 349.876 19.7259C351.714 19.097 353.66 18.8448 355.598 18.9844C357.536 19.124 359.426 19.6525 361.155 20.5384C362.884 21.4242 364.417 22.6493 365.662 24.1405C366.908 25.6318 367.84 27.3585 368.403 29.2179L370.978 37.0949L343.369 46.9729L340.793 39.0959ZM375.905 84.5769L380.189 97.6619C380.268 97.9242 380.243 98.2069 380.118 98.451C379.994 98.6952 379.781 98.8821 379.522 98.9729L373.522 101.115C373.283 101.181 373.028 101.152 372.81 101.034C372.592 100.916 372.428 100.719 372.352 100.483L368.028 87.4519C365.647 87.3225 363.362 86.4685 361.479 85.0042C359.597 83.5399 358.207 81.5353 357.495 79.2589C356.477 76.2497 356.663 72.9632 358.013 70.0877C359.364 67.2123 361.774 64.9709 364.74 63.8329C366.205 63.3326 367.755 63.1323 369.298 63.2438C370.841 63.3553 372.346 63.7764 373.724 64.482C375.101 65.1875 376.322 66.1631 377.314 67.3506C378.306 68.5381 379.049 69.9132 379.498 71.3939C380.251 73.706 380.314 76.1876 379.678 78.5347C379.042 80.8818 377.735 82.9923 375.917 84.6079L375.905 84.5769Z" fill="#2B3C8E"/>
<path d="M382.112 32.9143C382.112 33.0783 370.935 37.2803 357.031 42.2773C343.127 47.2743 331.786 51.2893 331.731 51.1723C331.676 51.0553 342.899 46.8143 356.812 41.8143C370.725 36.8143 382.049 32.7623 382.112 32.9143Z" fill="#263238"/>
<path d="M395.379 35.0704C395.43 35.1719 395.474 35.2776 395.508 35.3864C395.602 35.6204 395.708 35.9244 395.847 36.2994C396.147 37.1534 396.573 38.3354 397.099 39.8104L401.593 52.8954C403.466 58.4434 405.701 65.0204 408.182 72.3234C409.352 75.9864 410.733 79.8024 412.021 83.8164C412.71 85.885 413.007 88.0638 412.899 90.2414C412.799 91.374 412.477 92.4758 411.951 93.4834C411.388 94.4877 410.637 95.374 409.739 96.0934C407.931 97.4132 405.924 98.4363 403.794 99.1244L397.766 101.289L386.359 105.375L367.036 112.257L353.986 116.845L350.475 118.015L349.539 118.315C349.439 118.36 349.332 118.388 349.223 118.397C349.331 118.378 349.432 118.329 349.516 118.257L350.429 117.894L353.94 116.571L366.92 111.796L386.208 104.774L397.596 100.654L403.624 98.4774C405.693 97.8172 407.642 96.8249 409.394 95.5394C410.23 94.8717 410.929 94.049 411.454 93.1164C411.949 92.1845 412.248 91.1607 412.332 90.1084C412.439 88.0102 412.153 85.9104 411.489 83.9174C410.225 79.9384 408.889 76.0874 407.689 72.4244C405.254 65.1094 403.007 58.5084 401.228 52.9604C399.449 47.4124 397.951 42.9534 396.921 39.8174C396.429 38.2844 396.055 37.0904 395.751 36.2244L395.47 35.2884C395.434 35.2176 395.407 35.1432 395.388 35.0664L395.379 35.0704Z" fill="#263238"/>
<path d="M362.422 18.929C362.422 18.929 361.802 18.629 360.655 18.157C359.02 17.5288 357.291 17.1805 355.54 17.127C352.945 17.0381 350.363 17.5258 347.979 18.555C345.08 19.8366 342.602 21.9096 340.828 24.536C339.042 27.1547 338.084 30.2494 338.078 33.419C338.102 36.0169 338.496 38.5981 339.248 41.085C339.857 43.215 340.489 44.912 340.91 46.094C341.159 46.6943 341.362 47.3124 341.519 47.943C341.186 47.3817 340.908 46.7901 340.688 46.176C340.208 45.006 339.518 43.344 338.839 41.202C338.006 38.6891 337.552 36.0659 337.493 33.419C337.462 30.1294 338.442 26.9097 340.302 24.196C342.138 21.474 344.718 19.3371 347.734 18.04C350.192 17.0053 352.855 16.5489 355.517 16.706C357.306 16.7972 359.063 17.2137 360.702 17.935C361.14 18.1365 361.563 18.3705 361.966 18.635C362.132 18.7086 362.286 18.8078 362.422 18.929Z" fill="#263238"/>
<path d="M362.959 64.7286C363.145 64.6152 363.341 64.5172 363.544 64.4356C364.129 64.1711 364.736 63.9557 365.358 63.7916C366.344 63.5004 367.361 63.3276 368.389 63.2766C369.786 63.2014 371.184 63.4123 372.497 63.8966C375.497 64.9496 378.244 68.0046 379.597 72.0896C380.248 74.2816 380.248 76.6155 379.597 78.8076C378.875 81.1866 377.58 83.3524 375.828 85.1156L375.898 84.7996C377.455 89.0716 379.152 93.7066 380.907 98.5396L381.012 98.8326L380.719 98.9376L378.039 99.8266L372.187 101.782L371.894 101.876L371.801 101.583C370.201 96.7376 368.442 92.2196 367.119 87.7826L367.376 87.9826C365.088 87.7928 362.906 86.9342 361.103 85.5136C359.471 84.2566 358.133 82.6588 357.182 80.8316C356.324 79.2112 355.896 77.3976 355.941 75.5646C355.994 73.6917 356.462 71.8539 357.309 70.1827C358.156 68.5114 359.362 67.0482 360.841 65.8976C361.45 65.4033 362.133 65.0084 362.866 64.7276C362.205 65.12 361.564 65.5458 360.947 66.0036C359.322 67.3787 358.077 69.1477 357.331 71.1416C356.69 72.6451 356.391 74.2718 356.454 75.9048C356.516 77.5377 356.94 79.1366 357.694 80.5866C358.629 82.3441 359.935 83.8775 361.521 85.0806C363.241 86.431 365.321 87.2452 367.502 87.4216H367.702L367.761 87.5976C369.048 91.9516 370.816 96.5046 372.443 101.373L372.057 101.186L377.909 99.2316L380.578 98.3316L380.391 98.7316C378.647 93.8976 376.962 89.2516 375.417 84.9796V84.8036L375.558 84.6636C377.26 82.9736 378.529 80.8979 379.258 78.6126C379.878 76.5159 379.878 74.2843 379.258 72.1876C377.982 68.2556 375.349 65.2706 372.493 64.2176C371.228 63.7301 369.879 63.5033 368.525 63.5506C367.512 63.5736 366.506 63.7111 365.525 63.9606C363.79 64.3896 362.971 64.7876 362.959 64.7286Z" fill="#263238"/>
<path d="M326.784 402.665L209.874 402.127C203.123 402.09 196.662 399.374 191.911 394.577C187.16 389.78 184.507 383.293 184.535 376.542L185.776 83.4646C185.79 80.1198 186.463 76.8105 187.756 73.7259C189.05 70.6412 190.938 67.8417 193.314 65.4874C195.69 63.133 198.507 61.27 201.603 60.0047C204.699 58.7395 208.015 58.0969 211.359 58.1136L328.259 58.6516C335.011 58.6855 341.473 61.3977 346.226 66.1926C350.98 70.9875 353.635 77.473 353.61 84.2246L352.369 377.29C352.356 380.636 351.683 383.946 350.39 387.033C349.097 390.119 347.208 392.92 344.833 395.276C342.457 397.633 339.64 399.498 336.543 400.766C333.447 402.033 330.131 402.679 326.784 402.665Z" fill="#455A64"/>
<path d="M328.082 68.7313H305.423C304.683 68.7451 303.954 68.9044 303.276 69.2001C302.598 69.4958 301.986 69.9221 301.473 70.4547C300.96 70.9872 300.557 71.6156 300.287 72.3039C300.017 72.9923 299.885 73.7271 299.899 74.4663V78.5734C299.913 79.3121 299.781 80.0463 299.51 80.7339C299.24 81.4216 298.837 82.0491 298.324 82.5807C297.811 83.1123 297.198 83.5375 296.52 83.8319C295.842 84.1263 295.113 84.2841 294.375 84.2964L250.205 84.0963C248.71 84.0565 247.293 83.4253 246.264 82.3411C245.234 81.257 244.678 79.8087 244.716 78.3143V74.2084C244.754 72.716 244.198 71.2695 243.172 70.1857C242.145 69.1019 240.731 68.4693 239.239 68.4263H231.269L211.431 68.3323C206.712 68.3043 202.175 70.1471 198.812 73.4572C195.449 76.7673 193.535 81.275 193.489 85.9933L192.317 372.061C192.306 374.402 192.756 376.722 193.642 378.889C194.528 381.056 195.832 383.027 197.479 384.69C199.127 386.352 201.086 387.674 203.244 388.58C205.403 389.486 207.719 389.958 210.06 389.968L326.724 390.506C329.066 390.517 331.388 390.066 333.556 389.18C335.724 388.294 337.696 386.989 339.36 385.34C341.024 383.691 342.347 381.731 343.254 379.571C344.16 377.411 344.632 375.094 344.643 372.751L345.813 86.6854C345.841 81.9537 343.989 77.4046 340.664 74.0379C337.339 70.6713 332.813 68.7625 328.082 68.7313Z" fill="white"/>
<path d="M312.388 352.337L225.639 351.962C224.739 351.962 224.012 350.979 224.024 349.785L224.118 327.091C224.118 325.921 224.855 324.914 225.757 324.914L312.506 325.314C313.005 325.4 313.452 325.676 313.753 326.084C314.054 326.492 314.185 327 314.121 327.503L314.039 350.173C314.034 351.378 313.29 352.349 312.388 352.337Z" fill="#2B3C8E"/>
<path d="M250.416 336.032C249.996 336.032 249.584 335.884 249.376 335.668L249.492 335.44C249.692 335.636 250.048 335.78 250.416 335.78C250.94 335.78 251.168 335.56 251.168 335.284C251.168 334.516 249.444 334.988 249.444 333.952C249.444 333.54 249.764 333.184 250.476 333.184C250.792 333.184 251.12 333.276 251.344 333.432L251.243 333.668C251.004 333.512 250.724 333.436 250.476 333.436C249.964 333.436 249.736 333.664 249.736 333.944C249.736 334.712 251.46 334.248 251.46 335.268C251.46 335.68 251.132 336.032 250.416 336.032ZM252.104 336.008V333.208H252.4V336.008H252.104ZM255.359 333.208H255.651V336.008H255.407L253.607 333.736V336.008H253.311V333.208H253.555L255.359 335.48V333.208ZM258.537 335.552V334.608H258.821V335.676C258.557 335.912 258.181 336.032 257.793 336.032C256.941 336.032 256.317 335.428 256.317 334.608C256.317 333.788 256.941 333.184 257.797 333.184C258.221 333.184 258.589 333.32 258.837 333.588L258.653 333.776C258.417 333.544 258.137 333.448 257.809 333.448C257.117 333.448 256.609 333.94 256.609 334.608C256.609 335.272 257.117 335.768 257.805 335.768C258.073 335.768 258.321 335.708 258.537 335.552ZM261.834 336.032C261.118 336.032 260.682 335.616 260.682 334.812V333.208H260.978V334.8C260.978 335.464 261.29 335.768 261.834 335.768C262.382 335.768 262.694 335.464 262.694 334.8V333.208H262.982V334.812C262.982 335.616 262.55 336.032 261.834 336.032ZM264.922 333.208C265.634 333.208 266.066 333.568 266.066 334.168C266.066 334.764 265.634 335.124 264.922 335.124H264.17V336.008H263.874V333.208H264.922ZM264.914 334.864C265.474 334.864 265.77 334.608 265.77 334.168C265.77 333.72 265.474 333.464 264.914 333.464H264.17V334.864H264.914Z" fill="#E8E8E3"/>
<path d="M242.942 152.824L212.84 152.688L212.815 158.211L242.916 158.348L242.942 152.824Z" fill="#2B3C8E"/>
<path opacity="0.1" d="M242.942 152.824L212.84 152.688L212.815 158.211L242.916 158.348L242.942 152.824Z" fill="black"/>
<path d="M331.186 186.741C331.423 186.717 331.655 186.662 331.877 186.577C332.201 186.45 332.483 186.235 332.69 185.956C332.897 185.676 333.021 185.344 333.047 184.997V169.455C333.123 168.921 333.007 168.378 332.719 167.922C332.558 167.704 332.348 167.525 332.107 167.401C331.865 167.277 331.598 167.211 331.326 167.208H312.589L214.698 166.845C214.448 166.841 214.2 166.897 213.976 167.009C213.752 167.122 213.558 167.286 213.411 167.489C213.13 167.947 213.024 168.492 213.111 169.022C213.111 170.193 213.111 171.363 213.111 172.533V183.066C213.063 183.611 213.063 184.16 213.111 184.705C213.173 184.939 213.287 185.155 213.445 185.338C213.604 185.52 213.802 185.664 214.024 185.758C214.255 185.85 214.502 185.894 214.75 185.887H220.707L246.701 186.027L290.708 186.296L320.377 186.53L328.441 186.624H290.703L246.696 186.484L220.702 186.379H214.748C214.42 186.392 214.093 186.337 213.788 186.215C213.48 186.084 213.206 185.884 212.987 185.63C212.768 185.376 212.61 185.076 212.524 184.752C212.457 184.445 212.433 184.13 212.454 183.816V168.909C212.432 168.598 212.432 168.285 212.454 167.973C212.498 167.629 212.631 167.302 212.84 167.025C213.042 166.743 213.31 166.514 213.619 166.357C213.929 166.2 214.272 166.121 214.619 166.125L312.51 166.663L329.422 166.78H331.248C331.57 166.78 331.887 166.858 332.172 167.007C332.458 167.155 332.703 167.371 332.887 167.634C333.217 168.143 333.35 168.755 333.262 169.355V176.834C333.262 180.345 333.18 183.034 333.157 184.91C333.128 185.27 332.997 185.614 332.78 185.903C332.562 186.191 332.267 186.411 331.928 186.537C331.705 186.673 331.448 186.744 331.186 186.741Z" fill="#E0E0E0"/>
<path d="M276.938 172.719H221.883V177.88H276.938V172.719Z" fill="#2B3C8E"/>
<path opacity="0.2" d="M276.938 172.719H221.883V177.88H276.938V172.719Z" fill="white"/>
<path d="M242.735 203.219L212.633 203.082L212.608 208.606L242.709 208.743L242.735 203.219Z" fill="#2B3C8E"/>
<path opacity="0.1" d="M242.735 203.219L212.633 203.082L212.608 208.606L242.709 208.743L242.735 203.219Z" fill="black"/>
<path d="M330.425 237.138C330.661 237.108 330.895 237.065 331.125 237.009C331.452 236.905 331.753 236.732 332.007 236.502C332.262 236.271 332.464 235.989 332.6 235.675C332.785 235.202 332.857 234.694 332.811 234.189V220.225C332.867 219.687 332.748 219.145 332.472 218.68C332.184 218.202 331.729 217.848 331.196 217.685C330.613 217.58 330.02 217.549 329.429 217.591H312.588L215.036 217.228C214.512 217.229 214.005 217.42 213.611 217.767C213.217 218.114 212.962 218.591 212.894 219.112C212.894 220.224 212.894 221.453 212.894 222.623V233.157C212.851 233.704 212.874 234.254 212.964 234.796C213.11 235.27 213.411 235.682 213.818 235.966C214.251 236.24 214.758 236.371 215.269 236.341H220.278L246.178 236.47L290.032 236.739L319.596 236.973L327.636 237.067H290.036L246.158 237.02L220.258 236.926H215.167C214.534 236.963 213.906 236.795 213.376 236.446C212.844 236.077 212.455 235.535 212.276 234.913C212.171 234.319 212.14 233.714 212.182 233.113V219.064C212.268 218.394 212.594 217.779 213.1 217.333C213.606 216.887 214.258 216.641 214.932 216.641L312.484 217.179L329.326 217.308C329.954 217.269 330.583 217.313 331.199 217.437C331.808 217.635 332.321 218.052 332.639 218.607C332.942 219.122 333.073 219.721 333.013 220.316V234.337C333.056 234.86 332.971 235.386 332.767 235.87C332.615 236.192 332.396 236.479 332.123 236.709C331.85 236.939 331.531 237.108 331.187 237.204C330.931 237.226 330.674 237.204 330.425 237.138Z" fill="#E0E0E0"/>
<path d="M242.508 255.801L212.406 255.664L212.381 261.188L242.483 261.325L242.508 255.801Z" fill="#2B3C8E"/>
<path opacity="0.1" d="M242.508 255.801L212.406 255.664L212.381 261.188L242.483 261.325L242.508 255.801Z" fill="black"/>
<path d="M330.186 289.698C330.422 289.669 330.656 289.626 330.886 289.569C331.212 289.465 331.512 289.294 331.766 289.066C332.02 288.838 332.223 288.558 332.361 288.246C332.545 287.773 332.617 287.265 332.572 286.76V272.786C332.628 272.248 332.509 271.706 332.233 271.241C331.938 270.772 331.486 270.424 330.957 270.258C330.375 270.15 329.781 270.114 329.19 270.153H312.351L214.799 269.79C214.275 269.791 213.768 269.982 213.374 270.329C212.98 270.675 212.726 271.153 212.657 271.674V285.719C212.614 286.262 212.637 286.808 212.727 287.346C212.868 287.823 213.17 288.237 213.581 288.516C214.011 288.796 214.521 288.928 215.032 288.891H220.123L246.023 289.032L289.878 289.301L319.442 289.535L327.483 289.629H289.883L246.029 289.5L220.129 289.395H215.038C214.405 289.437 213.775 289.269 213.247 288.915C212.715 288.546 212.326 288.004 212.147 287.382C212.043 286.788 212.011 286.183 212.053 285.582V271.482C212.136 270.813 212.46 270.198 212.964 269.752C213.469 269.306 214.119 269.059 214.792 269.059L312.344 269.597L329.186 269.726C329.814 269.687 330.443 269.731 331.059 269.855C331.668 270.053 332.181 270.47 332.499 271.025C332.802 271.54 332.933 272.139 332.873 272.734V286.755C332.918 287.278 332.834 287.804 332.627 288.288C332.475 288.61 332.256 288.897 331.983 289.127C331.71 289.357 331.391 289.526 331.047 289.622C330.77 289.715 330.475 289.741 330.186 289.698Z" fill="#E0E0E0"/>
<path d="M275.761 224.574L220.707 224.324L220.684 229.485L275.738 229.735L275.761 224.574Z" fill="#2B3C8E"/>
<path opacity="0.2" d="M275.761 224.574L220.707 224.324L220.684 229.485L275.738 229.735L275.761 224.574Z" fill="white"/>
<path d="M225.687 280.15C225.652 280.621 225.48 281.071 225.192 281.445C224.904 281.819 224.512 282.1 224.066 282.254C223.619 282.407 223.138 282.426 222.681 282.308C222.224 282.191 221.811 281.941 221.494 281.591C221.178 281.241 220.971 280.806 220.899 280.339C220.827 279.873 220.894 279.396 221.091 278.967C221.289 278.538 221.607 278.176 222.008 277.927C222.409 277.677 222.874 277.551 223.346 277.563C223.998 277.6 224.609 277.892 225.048 278.376C225.486 278.86 225.716 279.498 225.687 280.15Z" fill="#2B3C8E"/>
<path d="M233.14 280.184C233.104 280.709 232.897 281.207 232.55 281.603C232.204 281.999 231.738 282.271 231.223 282.378C230.708 282.484 230.172 282.419 229.697 282.193C229.223 281.966 228.835 281.591 228.593 281.123C228.352 280.656 228.27 280.123 228.36 279.605C228.45 279.086 228.706 278.612 229.091 278.253C229.476 277.894 229.967 277.671 230.491 277.618C231.014 277.565 231.54 277.684 231.989 277.957C232.367 278.187 232.674 278.517 232.877 278.909C233.08 279.302 233.171 279.743 233.14 280.184Z" fill="#2B3C8E"/>
<path d="M240.609 280.22C240.574 280.69 240.402 281.141 240.114 281.515C239.826 281.889 239.435 282.17 238.988 282.324C238.542 282.477 238.06 282.496 237.603 282.379C237.146 282.261 236.733 282.012 236.417 281.662C236.1 281.312 235.893 280.877 235.821 280.41C235.749 279.943 235.816 279.466 236.013 279.037C236.21 278.608 236.529 278.247 236.93 277.997C237.33 277.748 237.796 277.621 238.268 277.634C238.918 277.673 239.528 277.966 239.966 278.449C240.403 278.932 240.634 279.568 240.609 280.22Z" fill="#2B3C8E"/>
<path d="M248.062 280.255C248.027 280.726 247.855 281.176 247.567 281.55C247.279 281.924 246.888 282.205 246.441 282.359C245.995 282.512 245.513 282.532 245.056 282.414C244.599 282.296 244.187 282.047 243.87 281.697C243.553 281.347 243.346 280.912 243.274 280.445C243.202 279.979 243.269 279.501 243.466 279.072C243.663 278.643 243.982 278.282 244.383 278.032C244.784 277.783 245.249 277.656 245.721 277.669C246.372 277.708 246.981 278.001 247.419 278.484C247.856 278.968 248.087 279.603 248.062 280.255Z" fill="#2B3C8E"/>
<path d="M255.516 280.275C255.483 280.747 255.313 281.198 255.026 281.574C254.739 281.949 254.349 282.232 253.902 282.387C253.456 282.543 252.974 282.563 252.516 282.447C252.058 282.33 251.644 282.082 251.326 281.732C251.008 281.382 250.8 280.947 250.728 280.48C250.655 280.013 250.722 279.535 250.919 279.106C251.115 278.676 251.434 278.314 251.835 278.064C252.236 277.814 252.702 277.687 253.175 277.7C253.824 277.739 254.431 278.031 254.869 278.512C255.306 278.993 255.538 279.625 255.516 280.275Z" fill="#2B3C8E"/>
<path d="M262.984 280.313C262.952 280.782 262.784 281.232 262.5 281.606C262.216 281.981 261.828 282.264 261.385 282.421C260.942 282.579 260.463 282.603 260.006 282.491C259.55 282.38 259.136 282.137 258.815 281.793C258.495 281.449 258.282 281.019 258.202 280.556C258.123 280.092 258.181 279.616 258.369 279.185C258.557 278.754 258.867 278.388 259.261 278.131C259.654 277.874 260.114 277.737 260.584 277.738C261.244 277.763 261.867 278.047 262.317 278.53C262.766 279.013 263.007 279.654 262.984 280.313Z" fill="#2B3C8E"/>
<path d="M270.441 280.348C270.405 280.873 270.197 281.371 269.851 281.767C269.505 282.163 269.039 282.435 268.524 282.542C268.009 282.648 267.473 282.583 266.998 282.357C266.523 282.13 266.136 281.755 265.894 281.288C265.653 280.82 265.571 280.287 265.66 279.769C265.75 279.25 266.007 278.776 266.392 278.417C266.777 278.058 267.268 277.835 267.791 277.782C268.315 277.729 268.841 277.848 269.29 278.121C269.668 278.351 269.975 278.681 270.178 279.074C270.381 279.466 270.472 279.907 270.441 280.348Z" fill="#2B3C8E"/>
<path d="M277.895 280.384C277.863 280.853 277.694 281.302 277.41 281.677C277.126 282.051 276.739 282.334 276.296 282.492C275.853 282.649 275.373 282.673 274.917 282.562C274.46 282.45 274.046 282.207 273.725 281.863C273.405 281.52 273.192 281.089 273.113 280.626C273.033 280.163 273.091 279.686 273.279 279.255C273.467 278.825 273.777 278.458 274.171 278.201C274.564 277.944 275.024 277.808 275.495 277.809C276.154 277.833 276.777 278.117 277.227 278.6C277.677 279.083 277.917 279.724 277.895 280.384Z" fill="#2B3C8E"/>
<path d="M285.352 280.416C285.319 280.887 285.149 281.339 284.862 281.714C284.575 282.09 284.185 282.373 283.738 282.528C283.292 282.683 282.81 282.704 282.352 282.587C281.894 282.471 281.48 282.222 281.162 281.873C280.844 281.523 280.636 281.088 280.564 280.621C280.491 280.154 280.558 279.676 280.754 279.246C280.951 278.817 281.27 278.454 281.671 278.204C282.072 277.955 282.538 277.828 283.011 277.841C283.659 277.88 284.267 278.171 284.705 278.652C285.142 279.133 285.374 279.766 285.352 280.416Z" fill="#2B3C8E"/>
<g opacity="0.2">
<path d="M225.687 280.15C225.652 280.621 225.48 281.071 225.192 281.445C224.904 281.819 224.512 282.1 224.066 282.254C223.619 282.407 223.138 282.426 222.681 282.308C222.224 282.191 221.811 281.941 221.494 281.591C221.178 281.241 220.971 280.806 220.899 280.339C220.827 279.873 220.894 279.396 221.091 278.967C221.289 278.538 221.607 278.176 222.008 277.927C222.409 277.677 222.874 277.551 223.346 277.563C223.998 277.6 224.609 277.892 225.048 278.376C225.486 278.86 225.716 279.498 225.687 280.15Z" fill="white"/>
<path d="M233.144 280.184C233.108 280.709 232.9 281.207 232.554 281.603C232.208 281.999 231.742 282.271 231.227 282.378C230.712 282.484 230.176 282.419 229.701 282.193C229.226 281.966 228.839 281.591 228.597 281.123C228.356 280.656 228.274 280.123 228.364 279.605C228.453 279.086 228.71 278.612 229.095 278.253C229.48 277.894 229.971 277.671 230.494 277.618C231.018 277.565 231.544 277.684 231.993 277.957C232.371 278.187 232.678 278.517 232.881 278.909C233.084 279.302 233.175 279.743 233.144 280.184Z" fill="white"/>
<path d="M240.609 280.22C240.574 280.69 240.402 281.141 240.114 281.515C239.826 281.889 239.435 282.17 238.988 282.324C238.542 282.477 238.06 282.496 237.603 282.379C237.146 282.261 236.733 282.012 236.417 281.662C236.1 281.312 235.893 280.877 235.821 280.41C235.749 279.943 235.816 279.466 236.013 279.037C236.21 278.608 236.529 278.247 236.93 277.997C237.33 277.748 237.796 277.621 238.268 277.634C238.918 277.673 239.528 277.966 239.966 278.449C240.403 278.932 240.634 279.568 240.609 280.22Z" fill="white"/>
<path d="M248.066 280.255C248.031 280.726 247.859 281.176 247.571 281.55C247.283 281.924 246.892 282.205 246.445 282.359C245.999 282.512 245.517 282.532 245.06 282.414C244.603 282.296 244.19 282.047 243.874 281.697C243.557 281.347 243.35 280.912 243.278 280.445C243.206 279.979 243.273 279.501 243.47 279.072C243.667 278.643 243.986 278.282 244.387 278.032C244.788 277.783 245.253 277.656 245.725 277.669C246.375 277.708 246.985 278.001 247.423 278.484C247.86 278.968 248.091 279.603 248.066 280.255Z" fill="white"/>
<path d="M255.52 280.279C255.487 280.75 255.317 281.202 255.03 281.578C254.743 281.953 254.352 282.236 253.906 282.391C253.46 282.547 252.978 282.567 252.52 282.451C252.062 282.334 251.648 282.086 251.33 281.736C251.012 281.386 250.804 280.951 250.732 280.484C250.659 280.017 250.726 279.539 250.922 279.109C251.119 278.68 251.438 278.318 251.839 278.068C252.24 277.818 252.706 277.691 253.178 277.704C253.827 277.743 254.435 278.034 254.873 278.515C255.31 278.996 255.542 279.629 255.52 280.279Z" fill="white"/>
<path d="M262.988 280.313C262.956 280.782 262.788 281.232 262.504 281.606C262.22 281.981 261.832 282.264 261.389 282.421C260.946 282.579 260.467 282.603 260.01 282.491C259.554 282.38 259.14 282.137 258.819 281.793C258.499 281.449 258.286 281.019 258.206 280.556C258.127 280.092 258.185 279.616 258.373 279.185C258.561 278.754 258.871 278.388 259.264 278.131C259.658 277.874 260.118 277.737 260.588 277.738C261.248 277.763 261.871 278.047 262.32 278.53C262.77 279.013 263.01 279.654 262.988 280.313Z" fill="white"/>
<path d="M270.441 280.348C270.405 280.873 270.197 281.371 269.851 281.767C269.505 282.163 269.039 282.435 268.524 282.542C268.009 282.648 267.473 282.583 266.998 282.357C266.523 282.13 266.136 281.755 265.894 281.288C265.653 280.82 265.571 280.287 265.66 279.769C265.75 279.25 266.007 278.776 266.392 278.417C266.777 278.058 267.268 277.835 267.791 277.782C268.315 277.729 268.841 277.848 269.29 278.121C269.668 278.351 269.975 278.681 270.178 279.074C270.381 279.466 270.472 279.907 270.441 280.348Z" fill="white"/>
<path d="M277.898 280.384C277.866 280.853 277.698 281.302 277.414 281.677C277.13 282.051 276.743 282.334 276.3 282.492C275.857 282.649 275.377 282.673 274.921 282.562C274.464 282.45 274.05 282.207 273.729 281.863C273.409 281.52 273.196 281.089 273.117 280.626C273.037 280.163 273.095 279.686 273.283 279.255C273.471 278.825 273.781 278.458 274.175 278.201C274.568 277.944 275.028 277.808 275.498 277.809C276.158 277.833 276.781 278.117 277.231 278.6C277.68 279.083 277.921 279.724 277.898 280.384Z" fill="white"/>
<path d="M285.355 280.42C285.323 280.891 285.153 281.343 284.866 281.718C284.579 282.094 284.188 282.377 283.742 282.532C283.296 282.687 282.814 282.708 282.356 282.591C281.898 282.475 281.484 282.226 281.166 281.877C280.848 281.527 280.64 281.092 280.568 280.625C280.495 280.158 280.561 279.68 280.758 279.25C280.955 278.82 281.274 278.458 281.675 278.208C282.076 277.958 282.542 277.832 283.014 277.845C283.663 277.884 284.271 278.175 284.709 278.656C285.146 279.137 285.378 279.77 285.355 280.42Z" fill="white"/>
</g>
<path d="M274.76 111.462C275.572 111.103 276.261 110.514 276.741 109.767C277.221 109.021 277.471 108.149 277.46 107.262C277.49 106.685 277.401 106.108 277.201 105.566C277 105.024 276.692 104.529 276.294 104.11C275.896 103.692 275.417 103.358 274.886 103.13C274.355 102.903 273.783 102.785 273.206 102.785C272.628 102.785 272.057 102.903 271.526 103.13C270.995 103.358 270.516 103.692 270.118 104.11C269.72 104.529 269.411 105.024 269.211 105.566C269.01 106.108 268.922 106.685 268.951 107.262C268.933 108.159 269.182 109.041 269.665 109.797C270.148 110.554 270.845 111.15 271.666 111.511C265.112 112.494 265.404 119.611 265.404 119.611L280.904 119.681C280.904 119.681 281.269 112.433 274.76 111.462Z" fill="#2B3C8E"/>
<path opacity="0.1" d="M274.76 111.462C275.572 111.103 276.261 110.514 276.741 109.767C277.221 109.021 277.471 108.149 277.46 107.262C277.49 106.685 277.401 106.108 277.201 105.566C277 105.024 276.692 104.529 276.294 104.11C275.896 103.692 275.417 103.358 274.886 103.13C274.355 102.903 273.783 102.785 273.206 102.785C272.628 102.785 272.057 102.903 271.526 103.13C270.995 103.358 270.516 103.692 270.118 104.11C269.72 104.529 269.411 105.024 269.211 105.566C269.01 106.108 268.922 106.685 268.951 107.262C268.933 108.159 269.182 109.041 269.665 109.797C270.148 110.554 270.845 111.15 271.666 111.511C265.112 112.494 265.404 119.611 265.404 119.611L280.904 119.681C280.904 119.681 281.269 112.433 274.76 111.462Z" fill="black"/>
<path d="M299.941 124.266L244.711 124.016L244.681 130.617L299.911 130.867L299.941 124.266Z" fill="#2B3C8E"/>
<path opacity="0.2" d="M299.941 124.266L244.711 124.016L244.681 130.617L299.911 130.867L299.941 124.266Z" fill="white"/>
<path d="M96.8976 158.475H96.3476L94.7556 158.592C93.8942 158.644 93.0377 158.757 92.1926 158.931C91.6451 159.008 91.102 159.114 90.5656 159.247L88.7516 159.747C85.6638 160.695 82.7505 162.137 80.1256 164.019C76.6564 166.536 73.7596 169.759 71.6256 173.476C70.3717 175.619 69.3739 177.901 68.6526 180.276C67.8945 182.858 67.4578 185.523 67.3526 188.211C67.2827 189.624 67.3061 191.039 67.4226 192.448C67.475 193.171 67.5728 193.891 67.7156 194.601C67.7944 195.333 67.9315 196.057 68.1256 196.766C69.178 201.463 71.3135 205.848 74.3616 209.573C77.4097 213.298 81.2861 216.259 85.6816 218.219C88.8629 219.592 92.2728 220.358 95.7356 220.478C99.3118 220.675 102.892 220.162 106.269 218.968L107.299 218.582H107.439L107.556 218.652L122.315 226.142L121.882 226.517C120.302 221.625 118.782 216.885 117.306 212.332V212.156L117.435 212.027C121.015 208.421 123.673 204.005 125.183 199.153C126.55 194.717 126.949 190.04 126.353 185.436C125.822 181.345 124.507 177.395 122.479 173.802C120.73 170.716 118.475 167.947 115.808 165.609C113.607 163.759 111.17 162.209 108.563 160.998C106.589 160.147 104.534 159.5 102.43 159.067L100.089 158.681L98.3886 158.552L97.3586 158.482H97.0076C97.1242 158.469 97.2419 158.469 97.3586 158.482H98.4006L100.101 158.552L102.442 158.891C104.573 159.293 106.656 159.916 108.657 160.752C111.309 161.949 113.789 163.496 116.03 165.352C118.746 167.679 121.05 170.449 122.842 173.545C124.927 177.176 126.283 181.18 126.833 185.331C127.479 190.006 127.107 194.765 125.745 199.282C124.225 204.235 121.526 208.745 117.88 212.425L117.95 212.125C119.425 216.678 120.958 221.418 122.55 226.298L122.772 227.012L122.105 226.673L107.345 219.195H107.603L106.55 219.581C103.107 220.793 99.4608 221.318 95.8166 221.126C92.2794 220.992 88.7984 220.198 85.5526 218.785C79.3608 216.134 74.2094 211.525 70.8876 205.665C69.359 202.959 68.2427 200.04 67.5756 197.004C67.3927 196.276 67.2558 195.537 67.1656 194.792C67.0716 194.055 66.9196 193.329 66.8846 192.603C66.5681 188.439 67.0086 184.252 68.1846 180.244C68.9238 177.836 69.9495 175.526 71.2396 173.362C73.4238 169.612 76.3801 166.369 79.9126 163.847C82.5806 161.961 85.5427 160.529 88.6786 159.61L90.5156 159.142C91.0566 159.017 91.6036 158.919 92.1546 158.849C93.0087 158.691 93.8734 158.597 94.7416 158.568L96.3416 158.509C96.5259 158.485 96.7117 158.473 96.8976 158.475Z" fill="#2B3C8E"/>
<path d="M103.569 185.769H101.404L96.7218 179.191V174.872C96.7218 174.872 93.3748 174.661 93.7728 180.314C94.1708 185.967 93.7728 184.527 93.7728 184.527C93.7728 184.527 86.6728 184.527 86.0838 185.171C85.4948 185.815 85.4638 192.671 85.3838 196.5C85.3389 197.423 85.6036 198.334 86.1359 199.089C86.6682 199.844 87.4376 200.4 88.3218 200.667C88.5697 200.736 88.8256 200.771 89.0828 200.772C90.8618 200.772 99.9088 199.332 99.9088 199.332H103.643L103.569 185.769Z" fill="#2B3C8E"/>
<path d="M109.762 184.609L108.427 199.399H104.727V184.913L109.762 184.609Z" fill="#2B3C8E"/>
<path d="M153.871 485.787V475.781L135.929 475.652L135.777 490.785L136.889 490.867C141.84 491.183 162.076 491.651 165.4 490.621C169.098 489.472 153.871 485.787 153.871 485.787Z" fill="#2B3C8E"/>
<path d="M165.822 489.683C165.822 489.847 159.104 489.983 150.829 489.983C142.554 489.983 135.836 489.843 135.836 489.683C135.836 489.523 142.554 489.383 150.829 489.383C159.104 489.383 165.822 489.52 165.822 489.683Z" fill="#263238"/>
<path d="M154.191 487.837C154.039 487.755 154.191 487.229 154.554 486.667C154.917 486.105 155.408 485.867 155.525 485.988C155.642 486.109 155.396 486.55 155.045 487.03C154.694 487.51 154.343 487.919 154.191 487.837Z" fill="#263238"/>
<path d="M155.335 488.491C155.171 488.491 155.253 487.836 155.604 487.215C155.955 486.594 156.423 486.22 156.552 486.315C156.681 486.41 156.47 486.935 156.142 487.485C155.814 488.035 155.487 488.549 155.335 488.491Z" fill="#263238"/>
<path d="M141.242 489.637C141.172 489.637 140.903 489.426 140.516 488.981C140.045 488.409 139.52 487.884 138.948 487.413C138.386 486.964 137.716 486.669 137.005 486.559C136.455 486.489 136.105 486.559 136.069 486.489C136.033 486.419 136.369 486.173 137.017 486.126C137.867 486.109 138.696 486.392 139.358 486.926C139.979 487.432 140.502 488.046 140.903 488.74C141.172 489.251 141.313 489.59 141.242 489.637Z" fill="#263238"/>
<path d="M154.249 485.951C154.331 486.092 154.027 486.443 153.512 486.63C152.997 486.817 152.541 486.747 152.517 486.63C152.493 486.513 152.856 486.267 153.301 486.103C153.746 485.939 154.156 485.81 154.249 485.951Z" fill="#263238"/>
<path d="M153.967 484.981C153.967 485.157 153.499 485.297 152.89 485.309C152.281 485.321 151.801 485.18 151.813 485.016C151.825 484.852 152.305 484.7 152.89 484.688C153.475 484.676 153.943 484.817 153.967 484.981Z" fill="#263238"/>
<path d="M198.055 485.787V475.781L180.113 475.652L179.961 490.633L181.073 490.715C186.024 491.031 206.273 491.651 209.584 490.622C213.282 489.472 198.055 485.787 198.055 485.787Z" fill="#2B3C8E"/>
<path d="M210.005 489.706C210.005 489.87 203.299 490.006 195.012 490.006C186.725 490.006 180.031 489.866 180.031 489.706C180.031 489.546 186.737 489.406 195.012 489.406C203.287 489.406 210.005 489.543 210.005 489.706Z" fill="#263238"/>
<path d="M198.374 487.837C198.234 487.755 198.374 487.229 198.737 486.667C199.1 486.105 199.591 485.867 199.708 485.988C199.825 486.109 199.579 486.55 199.228 487.03C198.877 487.51 198.526 487.919 198.374 487.837Z" fill="#263238"/>
<path d="M199.517 488.491C199.365 488.491 199.435 487.836 199.798 487.215C200.161 486.594 200.617 486.22 200.746 486.315C200.875 486.41 200.652 486.935 200.325 487.485C199.998 488.035 199.681 488.549 199.517 488.491Z" fill="#263238"/>
<path d="M185.426 489.637C185.356 489.637 185.098 489.426 184.7 488.981C184.228 488.409 183.703 487.884 183.132 487.413C182.569 486.964 181.9 486.669 181.189 486.559C180.651 486.489 180.289 486.559 180.253 486.489C180.217 486.419 180.553 486.173 181.201 486.126C182.051 486.109 182.88 486.392 183.542 486.926C184.166 487.428 184.69 488.044 185.087 488.74C185.356 489.251 185.497 489.59 185.426 489.637Z" fill="#263238"/>
<path d="M198.428 485.951C198.51 486.092 198.206 486.443 197.691 486.63C197.176 486.817 196.72 486.747 196.696 486.63C196.672 486.513 197.035 486.267 197.48 486.103C197.925 485.939 198.335 485.81 198.428 485.951Z" fill="#263238"/>
<path d="M198.173 484.981C198.173 485.157 197.705 485.297 197.096 485.309C196.487 485.321 196.019 485.18 196.031 485.016C196.043 484.852 196.511 484.7 197.096 484.688C197.681 484.676 198.173 484.817 198.173 484.981Z" fill="#263238"/>
<path d="M264.159 188.625C263.691 188.145 262.532 188.379 262.532 188.379C262.648 187.705 262.648 187.017 262.532 186.343C262.321 185.688 260.847 185.816 260.847 185.816C260.779 185.264 260.779 184.706 260.847 184.154C260.859 184.031 260.833 183.908 260.772 183.8C260.712 183.693 260.619 183.607 260.508 183.554C259.81 183.269 259.061 183.132 258.308 183.154C257.408 182.51 261.058 177.396 262.416 175.754C263.774 174.112 263.528 172.84 262.322 172.84C261.491 172.84 257.231 177.756 255.922 179.406C254.613 181.056 251.135 185.644 251.022 181.981C250.909 178.318 249.43 175.556 248.506 175.087C247.582 174.618 246.598 175.719 247.106 176.737C247.548 177.892 247.823 179.104 247.925 180.337C248.052 181.32 248.008 182.318 247.796 183.286C247.408 185.088 246.88 186.856 246.216 188.576H246.122C246.122 188.576 220.584 213.076 218.735 214.816C217.085 216.384 183.893 212.955 177.235 212.253C174.972 211.922 172.687 211.765 170.4 211.785C167.509 211.914 166.994 212.323 164.115 212.358C156.844 212.439 149.589 213.077 142.415 214.266C139.167 214.818 136.133 216.252 133.643 218.411C131.154 220.569 129.306 223.37 128.3 226.508C121.594 247.458 106.4 297.047 103.722 324.903C101.697 328.576 99.8686 332.354 98.2449 336.221C96.3609 341.347 96.8169 341.521 97.4449 341.64C99.1539 341.956 101.097 332.757 101.822 334.981C102.547 337.205 98.1349 345.948 99.9219 346.205C102.263 346.533 104.122 336.842 104.346 336.07C104.57 335.298 105.727 335.543 105.516 336.27C105.177 337.3 101.888 348.22 104.182 348.57C105.446 348.757 105.582 346.452 105.582 346.452C105.582 346.452 107.923 336 108.988 336.211C110.053 336.422 108.918 342.59 108.379 344.649C107.84 346.708 108.59 347.749 109.69 347.249C110.439 346.898 112.23 340.636 112.721 338.6C113.212 336.564 114.441 330.922 116.092 334.188C117.743 337.454 120.247 339.349 121.277 339.396C121.51 339.37 121.731 339.275 121.909 339.122C122.088 338.97 122.216 338.767 122.278 338.541C122.34 338.314 122.332 338.074 122.256 337.852C122.179 337.63 122.038 337.436 121.85 337.296C120.964 336.431 120.204 335.446 119.591 334.37C119.045 333.532 118.649 332.605 118.421 331.631C117.949 329.689 117.675 327.705 117.602 325.709L117.415 324.539C120.037 311.559 127.586 273.463 138.482 249.131L142.953 258.331L144.896 265.143L132.982 294.568L183.8 293.901L176.216 264.712L185.427 234.282C195.387 234.504 220.96 234.882 225.22 232.948C230.58 230.607 258.307 195.589 258.307 195.589C260.114 194.185 261.845 192.684 263.492 191.095C263.492 191.095 265.177 189.678 264.159 188.625Z" fill="#FFBE9D"/>
<path d="M130.747 272.837C132.222 267.804 139.794 242.922 139.794 242.922C139.794 242.922 143.516 263.205 142.533 265.651C141.627 267.745 140.557 269.764 139.333 271.69C130.742 284.763 131.866 291.306 131.866 291.306L183.773 289.726C183.89 282.47 179.595 265.593 178.705 262.901C177.815 260.209 180.777 251.401 180.777 251.401C180.777 251.401 186.629 245.444 186.418 242.377C186.307 239.622 185.966 236.882 185.4 234.184L217 235.354L216.005 213.936L170.617 209.395C169.037 213.854 154.747 211.666 154.747 211.666C139.321 212.181 138.362 215.013 131.947 219.999C125.532 224.985 114.918 267.774 114.918 267.774L130.747 272.837Z" fill="#2B3C8E"/>
<path d="M161.43 267.768C160.53 267.929 159.614 267.976 158.703 267.908C157.003 267.908 154.677 267.791 152.114 267.533C149.551 267.275 147.233 266.913 145.583 266.585C144.673 266.468 143.78 266.24 142.926 265.906C143.841 265.906 144.754 265.992 145.653 266.163C147.315 266.374 149.621 266.663 152.172 266.924C154.723 267.185 157.041 267.357 158.714 267.474C159.626 267.486 160.536 267.585 161.43 267.768Z" fill="#263238"/>
<path d="M164.99 263.355C164.09 263.796 163.139 264.122 162.158 264.326C157.489 265.554 152.671 266.127 147.844 266.026C146.845 266.059 145.846 265.964 144.871 265.745C145.857 265.621 146.851 265.57 147.844 265.593C149.681 265.535 152.21 265.406 154.995 265.078C157.78 264.75 160.262 264.278 162.017 263.908C162.992 263.648 163.986 263.464 164.99 263.358V263.355Z" fill="#263238"/>
<path d="M182.455 243.668C182.431 244.56 182.309 245.447 182.092 246.313C181.792 247.94 181.319 250.164 180.723 252.598C180.127 255.032 179.553 257.28 179.038 258.798C178.831 259.669 178.525 260.513 178.125 261.314C178.19 260.424 178.355 259.545 178.617 258.692C179.062 256.866 179.565 254.76 180.127 252.454C180.689 250.148 181.227 248.042 181.672 246.216C181.83 245.338 182.093 244.483 182.455 243.668Z" fill="#263238"/>
<path d="M131.297 269.85C128.589 269.432 125.917 268.81 123.303 267.989C120.632 267.365 118.011 266.543 115.461 265.531C118.167 265.956 120.839 266.578 123.455 267.392C126.127 268.015 128.748 268.836 131.297 269.85Z" fill="#263238"/>
<path d="M185.964 233.92C185.523 233.996 185.072 233.996 184.63 233.92C183.408 233.795 182.207 233.508 181.06 233.066C179.145 232.347 177.402 231.235 175.943 229.802C174.484 228.368 173.34 226.646 172.586 224.744C171.753 222.653 171.397 220.402 171.544 218.155C171.595 216.303 172.148 214.499 173.144 212.935C173.845 211.883 174.893 211.108 176.105 210.746C176.429 210.657 176.764 210.613 177.1 210.617H177.451C177.011 210.648 176.579 210.755 176.175 210.933C175.063 211.344 174.12 212.115 173.495 213.122C171.903 215.622 171.459 220.203 173.156 224.475C173.946 226.49 175.183 228.298 176.773 229.765C178.076 230.966 179.577 231.932 181.209 232.621C182.742 233.227 184.336 233.663 185.964 233.92Z" fill="#263238"/>
<path d="M213.249 234.925C212.956 231.336 212.862 227.734 212.968 224.134C212.876 220.538 212.986 216.94 213.296 213.355C213.589 216.941 213.683 220.539 213.577 224.134C213.675 227.735 213.566 231.338 213.249 234.925Z" fill="#263238"/>
<path d="M170.317 210.697C170.446 208.087 170.717 205.138 170.717 205.138C170.717 205.138 177.178 204.424 177.564 197.753C177.95 191.082 177.564 175.691 177.564 175.691L165.864 169.699L152.867 179.916L154.867 213.272L166.782 214.033C167.693 214.059 168.577 213.722 169.239 213.096C169.902 212.471 170.29 211.608 170.317 210.697Z" fill="#FFBE9D"/>
<path d="M171.474 192.478C171.466 192.579 171.43 192.677 171.369 192.759C171.282 192.869 171.17 192.957 171.041 193.014C170.913 193.071 170.773 193.096 170.632 193.087C169.883 193.087 169.157 192.221 168.9 191.214C168.778 190.726 168.778 190.216 168.9 189.728C168.924 189.515 169.001 189.311 169.123 189.136C169.245 188.96 169.409 188.817 169.6 188.721C169.758 188.656 169.935 188.656 170.092 188.721C170.209 188.779 170.303 188.873 170.361 188.99C170.388 189.038 170.402 189.093 170.402 189.148C170.402 189.203 170.388 189.257 170.361 189.306C170.355 189.215 170.313 189.131 170.244 189.072C170.183 188.988 170.093 188.93 169.992 188.908C169.89 188.886 169.784 188.903 169.694 188.955C169.551 189.042 169.432 189.164 169.348 189.309C169.264 189.454 169.218 189.618 169.214 189.786C169.116 190.221 169.116 190.673 169.214 191.109C169.448 192.022 170.08 192.759 170.642 192.829C170.752 192.843 170.864 192.835 170.971 192.805C171.077 192.775 171.177 192.723 171.262 192.653C171.404 192.56 171.451 192.466 171.474 192.478Z" fill="#EB996E"/>
<path d="M181.577 172.088C180.677 169.022 177.41 167.5 174.438 166.657C169.909 165.369 165.016 164.808 160.592 166.435C156.168 168.062 150.854 170.918 150.854 175.798C148.244 175.587 146.746 177.87 145.716 180.698C145.058 182.424 144.664 184.239 144.546 186.082C144.218 192.472 142.428 201.297 138.284 205.982C135.943 208.592 132.701 210.394 131.367 213.648C130.197 216.469 130.805 219.816 129.717 222.672C128.746 225.188 126.604 226.979 125.035 229.172C123.438 231.654 122.498 234.502 122.304 237.447C122.109 240.392 122.666 243.338 123.922 246.009C125.189 248.612 126.972 250.929 129.163 252.82C131.355 254.711 133.908 256.136 136.667 257.009C142.136 258.673 147.968 258.73 153.467 257.173C157.594 256.186 161.443 254.277 164.726 251.59C168.086 248.847 170.393 245.026 171.257 240.776C172.088 236.001 170.757 231.144 169.757 226.392C166.644 211.376 167.533 210.592 171.466 196.652C171.56 196.406 171.606 196.152 171.677 195.903C171.748 195.654 171.782 195.54 171.829 195.353C171.941 194.802 172 194.241 172.005 193.679C171.431 193.892 170.808 193.937 170.209 193.809C169.61 193.68 169.06 193.383 168.623 192.953C168.186 192.495 167.88 191.926 167.739 191.308C167.598 190.69 167.627 190.045 167.823 189.442C168.099 188.783 168.511 188.189 169.031 187.699C169.551 187.209 170.169 186.834 170.843 186.598C172.143 186.06 173.535 185.779 174.811 185.182C177.511 183.895 179.387 181.226 180.663 178.429C181.712 176.491 182.036 174.243 181.577 172.088Z" fill="#263238"/>
<path d="M171.944 192.793C172.192 193.158 172.396 193.551 172.553 193.963C172.904 194.7 173.372 195.742 173.887 196.948L173.981 197.17H173.735L172.565 197.275C171.757 197.275 171.079 197.427 170.283 197.415C170.215 197.399 170.151 197.366 170.099 197.319C170.047 197.272 170.007 197.212 169.983 197.146C169.948 197.039 169.948 196.925 169.983 196.818C170.01 196.66 170.045 196.504 170.088 196.35L170.299 195.519C170.405 194.965 170.57 194.423 170.791 193.904C170.769 194.469 170.687 195.03 170.545 195.578L170.381 196.409C170.322 196.69 170.217 197.123 170.381 197.088C170.966 197.088 171.797 196.959 172.57 196.912L173.74 196.807L173.588 197.065C173.088 195.895 172.663 194.794 172.418 194.034C172.201 193.646 172.041 193.228 171.944 192.793Z" fill="#2B3C8E"/>
<path d="M131.869 291.303L183.776 289.723L206.364 377.903L202.209 479.048H174.763L178.122 380.057L158.054 318.667L161.144 482.967L133.406 483.377L130.488 328.943C130.359 324.643 128.955 314.968 129.481 310.708L131.869 291.303Z" fill="#263238"/>
<path d="M164.956 319.92C164.107 319.974 163.254 319.923 162.416 319.768C160.848 319.581 158.706 319.253 156.353 318.785C154 318.317 151.894 317.778 150.372 317.345C149.559 317.166 148.772 316.883 148.031 316.502C148.031 316.326 151.846 317.239 156.531 318.187C161.216 319.135 164.979 319.744 164.956 319.92Z" fill="#455A64"/>
<path d="M201.929 473.499C201.929 473.663 195.714 473.799 188.048 473.799C180.382 473.799 174.156 473.659 174.156 473.499C174.156 473.339 180.371 473.199 188.048 473.199C195.725 473.199 201.929 473.324 201.929 473.499Z" fill="#455A64"/>
<path d="M160.895 478.695C160.895 478.871 154.856 478.995 147.412 478.995C139.968 478.995 133.941 478.866 133.941 478.695C133.941 478.524 139.98 478.395 147.412 478.395C154.844 478.395 160.895 478.532 160.895 478.695Z" fill="#455A64"/>
<path d="M157.312 478.274C157.148 478.274 156.423 442.374 155.685 398.102C154.947 353.83 154.515 317.902 154.667 317.902C154.819 317.902 155.567 353.786 156.294 398.085C157.021 442.384 157.488 478.274 157.312 478.274Z" fill="#455A64"/>
<path d="M198.242 473.499C198.23 473.339 198.23 473.178 198.242 473.019V471.619C198.242 470.355 198.336 468.541 198.406 466.235C198.57 461.553 198.806 454.753 199.097 446.42C199.729 429.66 200.619 406.557 201.59 381.054V380.445C195.445 355.867 189.89 333.559 185.848 317.42L181.166 298.331C180.628 296.096 180.218 294.352 179.925 293.131C179.785 292.557 179.691 292.113 179.609 291.773C179.564 291.62 179.536 291.463 179.527 291.305C179.588 291.452 179.635 291.605 179.667 291.761C179.761 292.089 179.878 292.534 180.042 293.095C180.358 294.265 180.814 296.044 181.4 298.268C182.57 302.786 184.221 309.293 186.28 317.31C190.353 333.438 195.971 355.687 202.197 380.3V381.072C201.155 406.572 200.207 429.666 199.517 446.426C199.154 454.771 198.85 461.526 198.639 466.226C198.522 468.567 198.428 470.346 198.37 471.61C198.37 472.21 198.3 472.675 198.288 473.01C198.291 473.174 198.276 473.338 198.242 473.499Z" fill="#455A64"/>
<path d="M189.291 378.301C187.32 378.949 185.289 379.4 183.228 379.647C180.7 380.08 178.546 380.384 177.575 380.431V380.201C177.891 380.295 178.055 380.353 178.055 380.401C178.055 380.449 177.855 380.401 177.528 380.401H176.828L177.528 380.19C178.441 379.921 180.594 379.476 183.122 379.02C185.15 378.58 187.216 378.341 189.29 378.306L189.291 378.301Z" fill="#455A64"/>
<path d="M188.81 381.655C186.985 381.739 185.155 381.657 183.344 381.409C181.516 381.371 179.695 381.17 177.902 380.809C181.56 380.512 185.242 380.797 188.81 381.655Z" fill="#455A64"/>
<path opacity="0.2" d="M131.648 293.164C132.263 293.953 133.037 294.604 133.921 295.074C134.804 295.544 135.776 295.822 136.774 295.891C138.865 296.138 140.98 296.099 143.059 295.774C156.459 294.287 170.659 292.918 183.777 289.723C166.795 290.671 148.853 290.355 131.87 291.303L131.694 292.754" fill="black"/>
<g opacity="0.2">
<path d="M149.145 317.098L158.719 354.246L158.052 318.666L149.145 317.098Z" fill="black"/>
</g>
</svg>
