<svg width="501" height="424" viewBox="0 0 501 424" fill="none" xmlns="http://www.w3.org/2000/svg">
<path d="M467.053 322.499C441.81 362.133 397.453 363.26 357.588 349.918C353.158 348.437 348.794 346.786 344.481 345.018C303.497 327.062 263.771 354.035 228.381 372.118C224.161 374.569 219.781 377.059 215.275 379.392C183.819 395.762 146.938 404.032 122.429 374.372C107.448 356.246 111.039 332.156 110.961 310.478C110.869 286.31 102.271 265.221 89.3351 245.103C72.1521 218.353 49.0851 192.965 43.0561 160.776C34.4191 114.654 51.6561 65.2299 100.109 51.2449C130.87 42.3719 162.234 53.4729 192.68 58.0869C217.58 61.8619 242.904 56.6979 266.142 47.9159C270.388 46.3159 274.622 44.6259 278.855 42.8959C307.021 31.3489 334.855 17.7579 364.506 13.1309C390.968 9.00188 415.006 15.9309 425.097 42.9219C433.944 66.5139 427.718 92.8969 431.65 117.328C433.85 130.788 438.977 143.095 445.058 155.035C455.622 175.704 469.043 195.246 475.203 217.763C476.946 224.211 478.44 230.869 479.581 237.672C484.408 266.572 482.875 297.672 467.053 322.499Z" fill="url(#paint0_linear_1_51904)"/>
<path d="M149.956 415.451C149.956 419.881 117.544 423.459 77.5563 423.459C37.5683 423.459 5.15625 419.881 5.15625 415.451C5.15625 411.021 37.5683 407.43 77.5563 407.43C117.544 407.43 149.956 411.021 149.956 415.451Z" fill="url(#paint1_linear_1_51904)"/>
<path d="M445.456 420.681C471.572 420.681 492.744 418.34 492.744 415.452C492.744 412.564 471.572 410.223 445.456 410.223C419.34 410.223 398.168 412.564 398.168 415.452C398.168 418.34 419.34 420.681 445.456 420.681Z" fill="url(#paint2_linear_1_51904)"/>
<path d="M409.257 75.5355V115.379H149.879V75.5355C149.879 67.2683 153.162 59.3395 159.007 53.4925C164.851 47.6455 172.779 44.3589 181.046 44.3555H378.037C382.135 44.3502 386.194 45.1529 389.981 46.7174C393.769 48.282 397.211 50.5779 400.11 53.4738C403.01 56.3696 405.31 59.8086 406.88 63.5942C408.449 67.3797 409.257 71.4375 409.257 75.5355Z" fill="url(#paint3_linear_1_51904)"/>
<path d="M409.255 75.5355V124.606H346.855V75.5355C346.855 67.2661 350.14 59.3353 355.988 53.4879C361.835 47.6405 369.766 44.3555 378.035 44.3555C382.133 44.3502 386.192 45.1529 389.98 46.7174C393.767 48.282 397.209 50.5779 400.109 53.4738C403.008 56.3696 405.309 59.8086 406.878 63.5942C408.448 67.3797 409.255 71.4375 409.255 75.5355Z" fill="white"/>
<path d="M408.495 75.4418V126.767H347.562V75.4418C347.562 67.3603 350.773 59.6099 356.487 53.8951C362.201 48.1804 369.951 44.9695 378.033 44.9688C382.034 44.9687 385.996 45.7571 389.692 47.2886C393.388 48.8202 396.747 51.0651 399.575 53.8949C402.404 56.7248 404.647 60.0842 406.177 63.7813C407.707 67.4784 408.493 71.4406 408.492 75.4418H408.495Z" fill="url(#paint4_linear_1_51904)"/>
<path d="M347.561 76.7266H150.57V328.948H347.561V76.7266Z" fill="white"/>
<path d="M346.87 76.7266H149.879V328.948H346.87V76.7266Z" fill="white"/>
<path d="M173.806 104.633V92.4828H177.151C179.596 92.4828 181.186 93.1428 181.186 95.6928C181.186 97.1928 180.901 98.1828 179.701 98.7528L181.366 104.633H178.591L177.256 99.1878H176.491V104.633H173.806ZM176.491 97.6428H177.241C178.366 97.6428 178.696 97.0128 178.696 95.9328C178.696 94.8978 178.381 94.2828 177.361 94.2828H176.491V97.6428ZM182.8 104.633V92.4828H188.26V94.3128H185.485V97.3278H187.6V99.1878H185.485V102.818H188.29V104.633H182.8ZM195.734 107.018C195.074 106.733 193.874 105.773 193.244 104.798C193.169 104.813 193.079 104.813 192.989 104.813C190.259 104.813 189.344 103.313 189.344 100.808V96.2928C189.344 93.7878 190.259 92.3178 192.989 92.3178C195.734 92.3178 196.664 93.7878 196.664 96.2928V100.808C196.664 102.518 196.229 103.763 195.059 104.363C195.449 104.783 195.884 105.218 196.304 105.428L195.734 107.018ZM192.989 102.908C193.829 102.908 193.919 102.173 193.919 101.483V95.6328C193.919 94.9128 193.829 94.2078 192.989 94.2078C192.149 94.2078 192.089 94.9128 192.089 95.6328V101.483C192.089 102.173 192.149 102.908 192.989 102.908ZM201.808 104.813C199.003 104.813 198.208 103.418 198.208 100.868V92.4828H200.863V101.273C200.863 102.038 200.953 102.878 201.808 102.878C202.663 102.878 202.738 102.038 202.738 101.273V92.4828H205.408V100.868C205.408 103.418 204.598 104.813 201.808 104.813ZM207.117 104.633V92.4828H212.577V94.3128H209.802V97.3278H211.917V99.1878H209.802V102.818H212.607V104.633H207.117ZM217.051 104.813C214.756 104.813 213.646 103.658 213.556 100.958L215.851 100.613C215.881 102.188 216.241 102.773 216.916 102.773C217.471 102.773 217.591 102.308 217.591 101.888C217.591 100.883 217.081 100.283 216.256 99.5778L215.206 98.6628C214.276 97.8828 213.571 96.9678 213.571 95.4978C213.571 93.4428 214.876 92.3178 216.976 92.3178C219.571 92.3178 219.946 94.3428 219.991 95.7678L217.681 96.0528C217.651 94.9728 217.576 94.2828 216.886 94.2828C216.391 94.2828 216.166 94.8078 216.166 95.2278C216.166 96.1278 216.631 96.6078 217.336 97.2228L218.341 98.1078C219.391 99.0078 220.231 100.073 220.231 101.753C220.231 103.478 218.986 104.813 217.051 104.813ZM222.626 104.633V94.4778H220.796V92.4828H227.141V94.4778H225.326V104.633H222.626Z" fill="#8BC7FD"/>
<path d="M320.824 94.5508H253.797V97.9458H320.824V94.5508Z" fill="#DAEBFE"/>
<path d="M320.824 105.301H253.797V108.696H320.824V105.301Z" fill="#DAEBFE"/>
<path d="M320.824 244.359H253.797V252.131H320.824V244.359Z" fill="#DAEBFE"/>
<path d="M320.837 260.207H276.996V267.979H320.837V260.207Z" fill="#DAEBFE"/>
<path d="M320.824 230.887H171.305V232.119H320.824V230.887Z" fill="url(#paint5_linear_1_51904)"/>
<path d="M320.824 133.359H171.305V134.591H320.824V133.359Z" fill="url(#paint6_linear_1_51904)"/>
<path d="M320.681 118.078H171.215V121.473H320.681V118.078Z" fill="#DAEBFE"/>
<path d="M273.393 147.805H171.215V157.517H273.393V147.805Z" fill="#DAEBFE"/>
<path d="M320.549 147.805H278.949V157.517H320.549V147.805Z" fill="#DAEBFE"/>
<path d="M273.393 177.41H171.215V187.122H273.393V177.41Z" fill="#DAEBFE"/>
<path d="M320.549 177.41H278.949V187.122H320.549V177.41Z" fill="#DAEBFE"/>
<path d="M273.393 207.02H171.215V216.732H273.393V207.02Z" fill="#DAEBFE"/>
<path d="M320.549 207.02H278.949V216.732H320.549V207.02Z" fill="#DAEBFE"/>
<path d="M228.245 271.531V269.056C224.795 268.881 223.12 266.931 222.995 262.656L226.82 262.081C226.845 264.706 227.445 265.681 228.57 265.681C229.495 265.681 229.695 264.906 229.695 264.206C229.695 262.531 228.845 261.531 227.495 260.356L225.72 258.831C224.22 257.506 222.995 256.156 222.995 253.556C222.995 250.381 224.945 248.531 228.02 248.306V245.931H229.295V248.281C233.17 248.506 233.645 251.781 233.72 254.006L229.845 254.481C229.795 252.681 229.695 251.481 228.545 251.531C227.695 251.531 227.32 252.406 227.32 253.106C227.32 254.706 228.295 255.556 229.27 256.431L230.97 257.906C232.67 259.456 234.095 261.181 234.095 263.981C234.095 266.656 232.345 268.756 229.52 269.031V271.531H228.245Z" fill="#8BC7FD"/>
<path d="M385.629 280.496H257.621C255.865 280.496 254.441 281.92 254.441 283.676V353.779C254.441 355.535 255.865 356.959 257.621 356.959H385.629C387.386 356.959 388.809 355.535 388.809 353.779V283.676C388.809 281.92 387.386 280.496 385.629 280.496Z" fill="url(#paint7_linear_1_51904)"/>
<path d="M388.809 291.07H254.441V305.579H388.809V291.07Z" fill="#DBE7EE"/>
<path d="M369.254 347.364C376.124 347.364 381.692 341.796 381.692 334.926C381.692 328.057 376.124 322.488 369.254 322.488C362.385 322.488 356.816 328.057 356.816 334.926C356.816 341.796 362.385 347.364 369.254 347.364Z" fill="url(#paint8_linear_1_51904)"/>
<path d="M286.931 312.695H261.465V317.793H286.931V312.695Z" fill="url(#paint9_linear_1_51904)"/>
<path d="M318.544 312.695H293.078V317.793H318.544V312.695Z" fill="url(#paint10_linear_1_51904)"/>
<path d="M350.157 312.695H324.691V317.793H350.157V312.695Z" fill="url(#paint11_linear_1_51904)"/>
<path d="M381.771 312.695H356.305V317.793H381.771V312.695Z" fill="url(#paint12_linear_1_51904)"/>
<path d="M286.931 331.309H261.465V339.055H286.931V331.309Z" fill="url(#paint13_linear_1_51904)"/>
<path d="M318.821 331.309H293.355V339.055H318.821V331.309Z" fill="url(#paint14_linear_1_51904)"/>
<path d="M350.708 331.309H325.242V339.055H350.708V331.309Z" fill="url(#paint15_linear_1_51904)"/>
<path d="M77.8288 232.562C61.5638 233.178 69.7288 248.29 72.9008 261.54C78.6678 282.406 75.7188 309.549 84.1728 312.434C106.716 319.078 98.7728 239.234 92.4958 235.634C89.5458 233.992 83.2808 233.06 77.8288 232.562Z" fill="#EDB39F"/>
<path d="M93.1917 305.409C77.3197 294.216 79.2467 369.788 83.6497 390.994C88.0527 412.2 92.3787 397.744 95.1967 363.785C98.0147 329.826 99.4417 309.813 93.1917 305.409Z" fill="#EDB39F"/>
<path d="M81.225 388.887L80.793 396.817L93.782 397.132L93.402 389.452L81.225 388.887Z" fill="#EDB39F"/>
<path d="M94.0568 397.026C94.0568 397.026 96.5338 401.784 104.699 408.009C112.864 414.234 115.014 412.885 115.184 415.209C115.354 417.533 79.4688 415.509 79.4688 415.509L80.5828 396.465C80.5828 396.465 94.0568 396.475 94.0568 397.026Z" fill="url(#paint16_linear_1_51904)"/>
<path d="M60.4652 232.956C44.5012 229.771 44.7372 246.967 44.7372 260.624C45.4972 282.263 40.5692 307.336 48.1182 312.124C68.4992 323.815 74.3312 241.742 69.0882 236.788C66.4812 234.503 65.6552 234.713 60.4652 232.956Z" fill="#EDB39F"/>
<path d="M56.507 305.409C40.635 294.216 42.562 369.788 46.952 390.994C51.342 412.2 55.694 397.744 58.499 363.785C61.304 329.826 62.758 309.813 56.507 305.409Z" fill="#EDB39F"/>
<path d="M44.9843 391.27L44.9453 399.06L57.4093 399.152L57.2263 391.511L44.9843 391.27Z" fill="#EDB39F"/>
<path d="M44.8949 398.938C44.7379 402.017 41.5399 412.516 41.4609 415.177C61.2609 415.677 60.7139 419.659 57.5159 399.004L44.8949 398.938Z" fill="url(#paint17_linear_1_51904)"/>
<path d="M47.5162 233.559C47.5162 233.559 42.2732 242.559 42.7852 271.489C43.3092 304.57 43.0082 312.329 43.0082 314.74C43.0082 317.151 43.1922 392.724 43.1922 392.724C43.1922 392.724 55.5652 395.267 58.5532 392.724C60.1132 391.413 71.9352 272.424 71.9352 272.424C71.9352 272.424 74.5562 300.616 75.4082 311.298C76.1032 320.564 76.2992 384.17 79.6282 390.671C83.0882 393.463 95.6052 391.982 95.7752 391.837C97.6232 389.871 102.538 259.173 96.5482 235.306L47.5162 233.559Z" fill="url(#paint18_linear_1_51904)"/>
<path d="M85.3158 161.735C76.4298 167.541 88.4748 221.147 95.3558 218.263C107.43 219.075 101.45 155.286 85.3158 161.735Z" fill="#EDB39F"/>
<path d="M75.0391 153.387C99.8501 156.244 99.3911 178.001 101.553 193.493L84.2131 196.023L75.0391 153.387Z" fill="url(#paint19_linear_1_51904)"/>
<path d="M95.9335 219.433C106.327 217.559 130.312 174.633 127.927 172.145C126.049 167.4 75.4335 219.577 95.9335 219.433Z" fill="#EDB39F"/>
<path d="M59.5459 151.672C26.3599 156.233 49.8079 175.264 46.4389 234.243C46.4389 238.45 97.2529 239.971 96.9649 235.554C90.9879 189.118 106.703 158.449 75.0119 153.088" fill="url(#paint20_linear_1_51904)"/>
<path d="M75.0405 148.772V157.536C74.4115 165.61 61.6715 157.025 60.2305 153.736C59.2305 151.613 60.6765 150.512 60.6765 146.016V141.026C45.3415 117.185 70.4145 107.185 80.2185 124.106C80.3865 137.986 84.1235 151.036 75.0405 148.772Z" fill="#EDB39F"/>
<path d="M60.6228 141.028C60.9768 140.936 58.5388 132.351 60.4528 132.26C61.9468 132.181 62.6158 134.632 62.8908 136.952C63.6638 136.729 64.6078 136.506 65.0268 136.402C58.0808 110.753 85.7088 139.402 82.0648 117.24C76.7568 111.932 71.9468 114.44 64.3318 114.868C50.1378 114.5 55.8128 138.328 60.6228 141.028Z" fill="url(#paint21_linear_1_51904)"/>
<path d="M43.2423 161.867C33.4253 165.052 30.0043 220.938 37.1873 219.994C48.3283 223.835 60.0453 159.928 43.2423 161.867Z" fill="#EDB39F"/>
<path d="M35.8258 219.535C36.4447 220.219 37.2295 220.731 38.1043 221.023C38.9792 221.315 39.9144 221.376 40.8198 221.2C55.1588 218.775 98.6328 183.82 94.9758 181.8C93.1278 179.455 26.7438 208.88 35.8258 219.535Z" fill="#EDB39F"/>
<path d="M59.8619 151.672C59.8619 151.672 42.0499 152.589 38.5769 158.343C35.1039 164.097 32.1289 189.343 32.1289 189.343L51.4479 191.257L53.3219 180.012" fill="url(#paint22_linear_1_51904)"/>
<path d="M120.244 154.488L100.676 186.678L119.51 189.037L138.916 156.138L120.244 154.488Z" fill="url(#paint23_linear_1_51904)"/>
<path d="M130.086 172.9C130.112 172.446 129.967 171.999 129.681 171.646C129.396 171.292 128.989 171.057 128.539 170.986C125.669 170.501 119.81 169.964 118.709 173.293C117.228 177.71 122.733 182.402 125.509 180.41C127.465 179.034 129.942 175.325 130.086 172.9Z" fill="#EDB39F"/>
<path d="M96.4567 177.148C96.9807 179.232 99.6677 180.621 97.5317 184.592C95.3957 188.563 88.1607 189.612 88.1607 189.612L85.0547 184.133C85.6248 183.333 86.0671 182.449 86.3657 181.512C86.7344 180.16 87.3852 178.902 88.2752 177.82C89.1653 176.738 90.2745 175.857 91.5297 175.234C95.1207 173.583 100.77 171.853 101.478 172.901C102.186 173.949 96.0137 175.526 96.4567 177.148Z" fill="#EDB39F"/>
<path d="M85.0512 184.137L45.5352 202.145L45.6272 212.027L86.9122 187.138L85.0512 184.137Z" fill="#EDB39F"/>
<g opacity="0.9">
<path d="M232.115 16.8828H92.963C91.9026 16.8828 91.043 17.7424 91.043 18.8028V69.8268C91.043 70.8872 91.9026 71.7468 92.963 71.7468H232.115C233.175 71.7468 234.035 70.8872 234.035 69.8268V18.8028C234.035 17.7424 233.175 16.8828 232.115 16.8828Z" fill="url(#paint24_linear_1_51904)"/>
<path d="M106.68 45.8867V34.5467H109.802C112.084 34.5467 113.568 35.1627 113.568 37.5427C113.568 38.9427 113.302 39.8667 112.182 40.3987L113.736 45.8867H111.146L109.9 40.8047H109.186V45.8867H106.68ZM109.186 39.3627H109.886C110.936 39.3627 111.244 38.7747 111.244 37.7667C111.244 36.8007 110.95 36.2267 109.998 36.2267H109.186V39.3627ZM115.074 45.8867V34.5467H120.17V36.2547H117.58V39.0687H119.554V40.8047H117.58V44.1927H120.198V45.8867H115.074ZM127.146 48.1127C126.53 47.8467 125.41 46.9507 124.822 46.0407C124.752 46.0547 124.668 46.0547 124.584 46.0547C122.036 46.0547 121.182 44.6547 121.182 42.3167V38.1027C121.182 35.7647 122.036 34.3927 124.584 34.3927C127.146 34.3927 128.014 35.7647 128.014 38.1027V42.3167C128.014 43.9127 127.608 45.0747 126.516 45.6347C126.88 46.0267 127.286 46.4327 127.678 46.6287L127.146 48.1127ZM124.584 44.2767C125.368 44.2767 125.452 43.5907 125.452 42.9467V37.4867C125.452 36.8147 125.368 36.1567 124.584 36.1567C123.8 36.1567 123.744 36.8147 123.744 37.4867V42.9467C123.744 43.5907 123.8 44.2767 124.584 44.2767ZM132.815 46.0547C130.197 46.0547 129.455 44.7527 129.455 42.3727V34.5467H131.933V42.7507C131.933 43.4647 132.017 44.2487 132.815 44.2487C133.613 44.2487 133.683 43.4647 133.683 42.7507V34.5467H136.175V42.3727C136.175 44.7527 135.419 46.0547 132.815 46.0547ZM137.77 45.8867V34.5467H142.866V36.2547H140.276V39.0687H142.25V40.8047H140.276V44.1927H142.894V45.8867H137.77ZM147.041 46.0547C144.899 46.0547 143.863 44.9767 143.779 42.4567L145.921 42.1347C145.949 43.6047 146.285 44.1507 146.915 44.1507C147.433 44.1507 147.545 43.7167 147.545 43.3247C147.545 42.3867 147.069 41.8267 146.299 41.1687L145.319 40.3147C144.451 39.5867 143.793 38.7327 143.793 37.3607C143.793 35.4427 145.011 34.3927 146.971 34.3927C149.393 34.3927 149.743 36.2827 149.785 37.6127L147.629 37.8787C147.601 36.8707 147.531 36.2267 146.887 36.2267C146.425 36.2267 146.215 36.7167 146.215 37.1087C146.215 37.9487 146.649 38.3967 147.307 38.9707L148.245 39.7967C149.225 40.6367 150.009 41.6307 150.009 43.1987C150.009 44.8087 148.847 46.0547 147.041 46.0547ZM152.245 45.8867V36.4087H150.537V34.5467H156.459V36.4087H154.765V45.8867H152.245Z" fill="white"/>
<path d="M208.963 30.1484H196.106C195.616 30.1484 195.146 30.3431 194.799 30.6897C194.453 31.0363 194.258 31.5063 194.258 31.9964V56.6104C194.256 56.8542 194.303 57.0959 194.395 57.3216C194.487 57.5473 194.623 57.7526 194.794 57.9256C194.966 58.0986 195.171 58.2358 195.396 58.3295C195.621 58.4232 195.862 58.4714 196.106 58.4714H214.979C215.472 58.4714 215.946 58.2754 216.295 57.9264C216.644 57.5774 216.84 57.104 216.84 56.6104V38.0254L208.963 30.1484ZM213.131 51.1184C213.131 51.1879 213.103 51.2546 213.054 51.3037C213.005 51.3528 212.938 51.3804 212.869 51.3804H198.242C198.171 51.3805 198.103 51.3533 198.052 51.3045C198.001 51.2557 197.97 51.1891 197.967 51.1184V51.0264C197.97 50.9558 198.001 50.8891 198.052 50.8403C198.103 50.7915 198.171 50.7644 198.242 50.7644H212.898C212.967 50.7644 213.034 50.792 213.083 50.8412C213.132 50.8903 213.16 50.9569 213.16 51.0264L213.131 51.1184ZM213.131 47.1074C213.131 47.1782 213.104 47.2462 213.055 47.2974C213.006 47.3486 212.94 47.3791 212.869 47.3824H198.242C198.17 47.3793 198.102 47.3493 198.051 47.2984C198 47.2475 197.97 47.1793 197.967 47.1074V47.0814C197.967 47.0459 197.974 47.0107 197.988 46.9781C198.002 46.9454 198.022 46.9159 198.048 46.8914C198.074 46.8669 198.104 46.8479 198.138 46.8355C198.171 46.8231 198.206 46.8177 198.242 46.8194H212.898C212.933 46.8176 212.968 46.8231 213 46.8356C213.033 46.8481 213.063 46.8673 213.087 46.892C213.112 46.9167 213.131 46.9464 213.144 46.979C213.156 47.0116 213.162 47.0465 213.16 47.0814L213.131 47.1074ZM213.131 43.0964C213.133 43.1313 213.127 43.1662 213.115 43.1989C213.102 43.2315 213.083 43.2612 213.058 43.2859C213.034 43.3106 213.004 43.3298 212.971 43.3423C212.939 43.3548 212.904 43.3603 212.869 43.3584H198.242C198.206 43.3602 198.171 43.3547 198.138 43.3424C198.104 43.33 198.074 43.311 198.048 43.2865C198.022 43.2619 198.002 43.2325 197.988 43.1998C197.974 43.1671 197.967 43.132 197.967 43.0964V43.1484C197.97 43.0765 198 43.0084 198.051 42.9575C198.102 42.9066 198.17 42.8766 198.242 42.8734H212.898C212.969 42.8768 213.035 42.9072 213.084 42.9584C213.133 43.0096 213.16 43.0777 213.16 43.1484L213.131 43.0964ZM213.131 39.0964C213.131 39.1659 213.103 39.2326 213.054 39.2817C213.005 39.3308 212.938 39.3584 212.869 39.3584H198.242C198.171 39.3585 198.103 39.3313 198.052 39.2825C198.001 39.2337 197.97 39.1671 197.967 39.0964V39.0044C197.97 38.9338 198.001 38.8671 198.052 38.8183C198.103 38.7695 198.171 38.7424 198.242 38.7424H212.898C212.967 38.7424 213.034 38.77 213.083 38.8192C213.132 38.8683 213.16 38.9349 213.16 39.0044L213.131 39.0964Z" fill="url(#paint25_linear_1_51904)"/>
<path d="M208.961 38.0254H216.838L208.961 30.1484V38.0254Z" fill="#C7E6F9"/>
<path d="M186.589 54.5514H105.918C105.785 54.5514 105.658 54.4987 105.564 54.405C105.471 54.3112 105.418 54.184 105.418 54.0514C105.422 53.9214 105.476 53.7981 105.57 53.7075C105.663 53.617 105.788 53.5663 105.918 53.5664H186.589C186.719 53.5663 186.844 53.617 186.937 53.7075C187.031 53.7981 187.085 53.9214 187.089 54.0514C187.089 54.184 187.036 54.3112 186.943 54.405C186.849 54.4987 186.722 54.5514 186.589 54.5514Z" fill="white"/>
</g>
<path d="M441.469 346.119C441.22 346.63 440.919 346.919 440.617 346.945H440.317C431.352 346.745 415.572 300.545 392.832 303.195C392.584 303.183 392.337 303.209 392.098 303.274C392.098 303.274 413.711 292.974 424.598 298.621C441.508 307.389 444.156 340.509 441.469 346.119Z" fill="url(#paint26_linear_1_51904)"/>
<path d="M441.469 346.116C441.22 346.627 440.918 346.916 440.617 346.942H440.317C431.352 346.742 415.572 300.542 392.832 303.192C392.832 303.192 417.905 293.244 429.701 313.599C435.498 323.665 439.482 334.672 441.471 346.116H441.469Z" fill="#73A2FD"/>
<path d="M442.022 374.872C441.878 374.862 441.744 374.796 441.649 374.688C441.553 374.581 441.504 374.439 441.511 374.295C441.511 373.561 445.758 306.783 409.531 301.803C409.387 301.784 409.257 301.708 409.168 301.593C409.08 301.477 409.041 301.332 409.059 301.187C409.067 301.114 409.09 301.043 409.126 300.979C409.163 300.915 409.212 300.859 409.271 300.814C409.33 300.77 409.398 300.739 409.469 300.722C409.541 300.705 409.616 300.702 409.688 300.715C446.91 305.827 442.664 373.626 442.612 374.36C442.607 374.433 442.588 374.504 442.556 374.568C442.523 374.633 442.478 374.691 442.424 374.739C442.369 374.786 442.305 374.822 442.236 374.845C442.167 374.868 442.095 374.878 442.022 374.872Z" fill="#73A2FD"/>
<path d="M500.999 319.079H500.92C477.944 315.593 461.994 362.147 452.937 362.75C452.803 362.776 452.666 362.776 452.531 362.75C452.442 362.742 452.355 362.716 452.276 362.673C452.197 362.63 452.128 362.572 452.072 362.501C448.795 359.201 450.919 323.588 468.56 314.466C479.073 308.987 499.782 318.515 500.999 319.079Z" fill="url(#paint27_linear_1_51904)"/>
<path d="M500.868 319.069C477.892 315.583 461.942 362.137 452.885 362.74C452.75 362.766 452.613 362.766 452.479 362.74C452.389 362.732 452.302 362.706 452.223 362.663C452.144 362.621 452.075 362.562 452.02 362.491C453.567 354.431 456.42 338.047 465.926 326.383C478.718 310.677 499.374 318.541 500.868 319.069Z" fill="#73A2FD"/>
<path d="M451.089 390.682C450.95 390.683 450.815 390.631 450.713 390.536C450.61 390.441 450.548 390.311 450.538 390.171C450.538 389.437 446.238 321.638 483.475 316.527C483.549 316.512 483.625 316.512 483.699 316.528C483.772 316.543 483.842 316.574 483.903 316.618C483.965 316.662 484.017 316.718 484.055 316.782C484.094 316.847 484.119 316.919 484.129 316.993C484.139 317.068 484.133 317.144 484.113 317.217C484.092 317.289 484.057 317.356 484.009 317.415C483.961 317.473 483.902 317.521 483.835 317.555C483.768 317.589 483.694 317.61 483.619 317.614C447.406 322.595 451.6 389.372 451.639 390.106C451.644 390.178 451.636 390.25 451.613 390.318C451.59 390.386 451.553 390.449 451.506 390.503C451.458 390.557 451.4 390.601 451.335 390.632C451.27 390.663 451.2 390.68 451.128 390.683L451.089 390.682Z" fill="#73A2FD"/>
<path d="M443.487 315.87V315.936C443.499 316.006 443.499 316.076 443.487 316.146L443.199 315.91C441.351 314.272 430.866 304.11 425.833 280.772C418.821 248.425 406.318 241.007 405.534 240.572L404.812 240.205L405.534 240.061C423.005 236.837 436.242 245.304 441.275 265.605C446.778 288.11 443.867 313 443.487 315.87Z" fill="url(#paint28_linear_1_51904)"/>
<path d="M443.162 315.905C441.314 314.267 430.829 304.105 425.796 280.766C418.784 248.419 406.28 241.001 405.496 240.566C406.663 240.766 429.861 245.402 436.178 272.126C439.616 286.52 441.951 301.154 443.164 315.902L443.162 315.905Z" fill="#73A2FD"/>
<path d="M445.85 387.363C445.777 387.363 445.706 387.349 445.639 387.321C445.572 387.294 445.511 387.253 445.46 387.202C445.409 387.151 445.368 387.09 445.341 387.024C445.313 386.957 445.299 386.885 445.299 386.813V386.42C445.705 372.999 448.431 260.165 416.884 246.298C416.756 246.235 416.657 246.125 416.608 245.991C416.559 245.857 416.564 245.709 416.621 245.579C416.679 245.448 416.785 245.345 416.917 245.291C417.049 245.237 417.197 245.236 417.33 245.289C448.877 259.147 447.082 364.44 446.4 386.447V386.814C446.4 386.886 446.385 386.958 446.358 387.024C446.33 387.091 446.29 387.152 446.239 387.203C446.188 387.254 446.127 387.294 446.06 387.322C445.993 387.35 445.922 387.363 445.85 387.363Z" fill="#73A2FD"/>
<path d="M488.851 255.472L488.693 255.551L488.094 255.839C488.094 255.839 474.986 262.654 467.793 296.076C462.367 321.162 450.756 330.976 450.14 331.464C450.087 331.2 450.053 330.933 450.039 330.664C449.475 325.998 447.065 302.419 452.373 280.964C457.473 260.439 470.973 251.986 488.744 255.551L488.851 255.472Z" fill="url(#paint29_linear_1_51904)"/>
<path d="M488.728 255.473C488.735 255.499 488.735 255.526 488.728 255.552L488.128 255.84C488.128 255.84 475.021 262.655 467.828 296.077C462.402 321.163 450.79 330.977 450.174 331.465C450.122 331.201 450.088 330.933 450.074 330.665C453.731 298.056 459.537 281.896 464.766 271.882C471.196 259.405 488.728 255.473 488.728 255.473Z" fill="#73A2FD"/>
<path d="M447.474 388.674C447.328 388.674 447.188 388.616 447.084 388.513C446.981 388.409 446.923 388.269 446.923 388.123C446.7 352.159 449.112 272.445 476.229 260.531C476.362 260.478 476.509 260.479 476.642 260.533C476.774 260.587 476.88 260.69 476.937 260.821C476.995 260.952 477 261.099 476.951 261.233C476.902 261.367 476.803 261.477 476.675 261.54C450.147 273.192 447.841 352.381 448.024 388.109C448.028 388.182 448.016 388.255 447.991 388.323C447.966 388.391 447.927 388.454 447.877 388.506C447.826 388.559 447.766 388.601 447.699 388.63C447.632 388.658 447.56 388.673 447.487 388.673L447.474 388.674Z" fill="#73A2FD"/>
<path d="M425.875 373.68L426.216 377.612L429.283 412.148C429.352 413.051 429.755 413.896 430.415 414.517C431.074 415.137 431.942 415.489 432.848 415.503L462.18 415.765C463.093 415.776 463.976 415.443 464.656 414.834C465.335 414.225 465.761 413.383 465.85 412.475L469.14 381.426V381.36L469.913 374.06L425.875 373.68Z" fill="url(#paint30_linear_1_51904)"/>
<path d="M426.215 377.623L429.282 412.159C429.353 413.06 429.758 413.902 430.418 414.52C431.077 415.138 431.943 415.488 432.847 415.501L446.805 415.632C434.131 410.573 431.077 399.314 433.605 390.732C436.405 381.387 465.991 381.44 469.137 381.466H469.412L469.137 381.4L441.089 375.5L426.215 377.623Z" fill="#DBE7EE"/>
<path d="M424.215 381.164L471.451 381.576C472.058 381.582 472.555 381.093 472.56 380.486L472.606 375.215C472.612 374.608 472.124 374.111 471.516 374.106L424.28 373.693C423.672 373.688 423.176 374.176 423.17 374.784L423.124 380.055C423.119 380.662 423.607 381.159 424.215 381.164Z" fill="url(#paint31_linear_1_51904)"/>
<path d="M412.976 203.899V200.95C412.09 200.974 411.209 200.807 410.395 200.458C409.58 200.109 408.851 199.588 408.258 198.93C407.087 197.251 406.502 195.233 406.593 193.189L411.233 192.481C411.181 193.625 411.368 194.768 411.783 195.836C411.911 196.146 412.13 196.41 412.41 196.594C412.691 196.779 413.02 196.875 413.356 196.871C414.23 196.871 414.688 196.281 414.732 195.102C414.738 194.472 414.618 193.848 414.378 193.267C414.164 192.753 413.872 192.275 413.513 191.851C413.062 191.349 412.576 190.881 412.058 190.451L409.882 188.629C409.415 188.222 408.977 187.784 408.571 187.318C408.194 186.913 407.856 186.474 407.562 186.007C407.22 185.481 406.971 184.9 406.828 184.29C406.664 183.607 406.585 182.907 406.592 182.206C406.546 181.385 406.666 180.563 406.945 179.79C407.224 179.017 407.657 178.308 408.217 177.706C409.423 176.546 411.013 175.87 412.686 175.806V173.02H414.233V175.799C414.831 175.831 415.422 175.946 415.989 176.14C416.457 176.301 416.899 176.531 417.3 176.822C417.665 177.096 417.984 177.428 418.244 177.805C418.499 178.164 418.714 178.551 418.886 178.958C419.055 179.381 419.182 179.82 419.266 180.269C419.368 180.7 419.439 181.138 419.476 181.58C419.476 181.947 419.541 182.366 419.555 182.812L414.876 183.428V182.393C414.887 182.102 414.86 181.811 414.797 181.528C414.772 181.277 414.715 181.03 414.627 180.794C414.561 180.606 414.469 180.43 414.352 180.27C414.251 180.112 414.105 179.988 413.933 179.916C413.734 179.848 413.526 179.817 413.317 179.824C413.1 179.826 412.887 179.882 412.697 179.986C412.507 180.091 412.346 180.241 412.229 180.424C411.978 180.815 411.846 181.27 411.849 181.735C411.838 182.178 411.895 182.62 412.019 183.046C412.15 183.444 412.35 183.816 412.609 184.146C412.897 184.5 413.12 184.762 413.304 184.946L414.182 185.772L416.266 187.607C416.791 188.063 417.286 188.553 417.747 189.075C418.188 189.574 418.587 190.109 418.94 190.675C419.298 191.261 419.567 191.897 419.74 192.562C419.938 193.31 420.035 194.081 420.028 194.856C420.079 196.398 419.527 197.9 418.49 199.042C417.452 200.185 416.011 200.879 414.471 200.977V203.952L412.976 203.899Z" fill="white"/>
<path d="M413.333 214.269C408.226 214.271 403.232 212.759 398.984 209.923C394.736 207.088 391.425 203.056 389.469 198.338C387.513 193.62 387 188.427 387.995 183.418C388.99 178.408 391.449 173.806 395.06 170.194C398.671 166.582 403.272 164.122 408.281 163.125C413.29 162.129 418.483 162.64 423.201 164.595C427.92 166.549 431.953 169.859 434.79 174.106C437.627 178.353 439.141 183.346 439.14 188.454C439.139 195.299 436.42 201.863 431.58 206.704C426.741 211.544 420.178 214.265 413.333 214.269ZM413.333 163.861C408.467 163.859 403.709 165.299 399.662 168.001C395.615 170.703 392.46 174.545 390.596 179.04C388.733 183.536 388.244 188.483 389.193 193.256C390.141 198.029 392.484 202.413 395.925 205.854C399.365 209.296 403.75 211.639 408.522 212.588C413.295 213.538 418.242 213.05 422.738 211.187C427.233 209.324 431.076 206.17 433.778 202.123C436.481 198.077 437.923 193.319 437.921 188.453C437.919 181.932 435.328 175.679 430.717 171.068C426.107 166.456 419.854 163.864 413.333 163.861Z" fill="white"/>
<path d="M268.086 19.4119V18.1019C267.683 18.1119 267.282 18.0353 266.912 17.8773C266.541 17.7193 266.208 17.4835 265.936 17.1859C265.402 16.4192 265.135 15.4983 265.176 14.5649L267.286 14.2369C267.261 14.7567 267.35 15.2756 267.548 15.7569C267.605 15.8973 267.704 16.0172 267.83 16.1013C267.956 16.1854 268.104 16.2299 268.256 16.2289C268.675 16.2289 268.885 15.9669 268.885 15.4289C268.888 15.1417 268.834 14.8568 268.728 14.5899C268.622 14.3587 268.486 14.1427 268.322 13.9479C268.123 13.7194 267.903 13.5089 267.667 13.3189L266.684 12.4539C266.469 12.282 266.269 12.0934 266.084 11.8899C265.915 11.7023 265.762 11.5016 265.625 11.2899C265.474 11.0476 265.363 10.7821 265.297 10.5039C265.222 10.1951 265.188 9.87764 265.197 9.55994C265.174 9.1871 265.227 8.81351 265.354 8.46193C265.48 8.11035 265.676 7.78815 265.931 7.51494C266.475 6.98131 267.2 6.67242 267.962 6.64993V5.33594H268.67V6.64693C268.942 6.65827 269.211 6.70672 269.47 6.79094C269.682 6.872 269.883 6.97773 270.07 7.10593C270.233 7.23468 270.378 7.38467 270.502 7.55193C270.615 7.71663 270.712 7.89216 270.79 8.07594C270.864 8.26276 270.921 8.45588 270.96 8.65294C271.007 8.84234 271.038 9.03536 271.052 9.22993C271.066 9.41766 271.066 9.60621 271.052 9.79394L268.929 10.0689V9.60994C268.942 9.47926 268.942 9.34762 268.929 9.21693C268.941 9.10361 268.941 8.98927 268.929 8.87594C268.896 8.79176 268.852 8.71239 268.798 8.63994C268.751 8.56619 268.681 8.51075 268.598 8.48293C268.508 8.45564 268.413 8.45564 268.323 8.48293C268.224 8.48012 268.126 8.50274 268.039 8.54861C267.951 8.59449 267.877 8.66209 267.823 8.74493C267.714 8.92632 267.655 9.1334 267.653 9.34493C267.652 9.54005 267.678 9.73435 267.732 9.92194C267.79 10.1051 267.883 10.2751 268.007 10.4219L268.322 10.7889L268.715 11.1559L269.672 11.9949C269.908 12.2043 270.131 12.4273 270.34 12.6629C270.54 12.8871 270.719 13.1284 270.877 13.3839C271.05 13.664 271.182 13.967 271.27 14.2839C271.355 14.6225 271.399 14.97 271.401 15.3189C271.423 16.0214 271.172 16.705 270.7 17.2258C270.228 17.7465 269.572 18.0639 268.871 18.1109V19.4219L268.086 19.4119Z" fill="url(#paint32_linear_1_51904)"/>
<path d="M268.241 24.1313C265.908 24.1313 263.626 23.4392 261.686 22.1426C259.745 20.846 258.233 19.0031 257.34 16.8469C256.447 14.6908 256.213 12.3182 256.668 10.0292C257.123 7.74022 258.247 5.63766 259.898 3.9874C261.548 2.33714 263.65 1.2133 265.939 0.757989C268.228 0.302684 270.601 0.536361 272.757 1.42948C274.913 2.32259 276.756 3.83503 278.053 5.77553C279.349 7.71603 280.041 9.99744 280.041 12.3313C280.041 15.4608 278.798 18.4622 276.585 20.6751C274.372 22.888 271.371 24.1313 268.241 24.1313ZM268.241 1.20825C266.027 1.20568 263.861 1.86028 262.018 3.0892C260.175 4.31811 258.739 6.06609 257.89 8.11187C257.041 10.1577 256.818 12.4093 257.25 14.5817C257.681 16.7542 258.748 18.7497 260.314 20.3159C261.88 21.882 263.876 22.9483 266.048 23.3798C268.22 23.8113 270.472 23.5885 272.518 22.7397C274.564 21.891 276.312 20.4543 277.54 18.6116C278.769 16.769 279.424 14.6031 279.421 12.3883C279.418 9.42402 278.239 6.58208 276.143 4.48596C274.047 2.38983 271.206 1.21169 268.241 1.20825Z" fill="url(#paint33_linear_1_51904)"/>
<path d="M172.405 362.474V361.163C172.002 361.173 171.602 361.096 171.231 360.938C170.861 360.78 170.528 360.544 170.256 360.246C169.722 359.48 169.455 358.559 169.496 357.625L171.606 357.297C171.588 357.817 171.677 358.334 171.868 358.817C171.926 358.958 172.024 359.078 172.15 359.162C172.276 359.246 172.425 359.29 172.576 359.289C172.995 359.289 173.205 359.027 173.205 358.489C173.208 358.202 173.154 357.917 173.048 357.65C172.947 357.417 172.81 357.2 172.642 357.008C172.443 356.78 172.224 356.569 171.987 356.379L171.004 355.527C170.768 355.317 170.571 355.121 170.414 354.95C170.241 354.763 170.084 354.563 169.942 354.35C169.791 354.108 169.68 353.843 169.614 353.564C169.546 353.255 169.512 352.938 169.514 352.62C169.494 352.248 169.549 351.875 169.675 351.524C169.801 351.173 169.996 350.85 170.248 350.575C170.801 350.054 171.521 349.747 172.28 349.71V348.398H172.988V349.709C173.26 349.721 173.529 349.769 173.788 349.853C174.001 349.932 174.203 350.038 174.388 350.168C174.552 350.297 174.698 350.447 174.821 350.614C174.934 350.779 175.031 350.955 175.109 351.138C175.183 351.325 175.24 351.518 175.279 351.715C175.296 351.91 175.33 352.103 175.379 352.292C175.392 352.48 175.392 352.669 175.379 352.856L173.256 353.131V352.279C173.236 352.165 173.209 352.051 173.177 351.938C173.15 351.852 173.105 351.772 173.046 351.702C173.028 351.666 173.002 351.633 172.97 351.606C172.939 351.579 172.903 351.558 172.863 351.545C172.769 351.519 172.669 351.519 172.575 351.545C172.479 351.543 172.383 351.565 172.298 351.611C172.212 351.657 172.141 351.725 172.09 351.807C171.971 351.985 171.907 352.194 171.906 352.407C171.904 352.603 171.931 352.797 171.985 352.984C172.043 353.168 172.137 353.338 172.26 353.484L172.575 353.851L172.981 354.218L173.925 355.057C174.161 355.267 174.384 355.49 174.593 355.725C174.796 355.952 174.976 356.198 175.13 356.459C175.305 356.735 175.438 357.035 175.523 357.35C175.609 357.693 175.653 358.045 175.654 358.398C175.673 359.099 175.42 359.779 174.948 360.297C174.477 360.815 173.823 361.13 173.124 361.177V362.488L172.405 362.474Z" fill="white"/>
<path d="M172.566 367.194C170.232 367.194 167.95 366.502 166.01 365.205C164.069 363.909 162.557 362.066 161.664 359.909C160.771 357.753 160.537 355.381 160.992 353.092C161.448 350.803 162.572 348.7 164.222 347.05C165.872 345.4 167.975 344.276 170.264 343.82C172.553 343.365 174.925 343.599 177.081 344.492C179.237 345.385 181.08 346.898 182.377 348.838C183.674 350.779 184.366 353.06 184.366 355.394C184.366 358.523 183.122 361.525 180.909 363.738C178.697 365.951 175.695 367.194 172.566 367.194ZM172.566 344.271C170.351 344.271 168.187 344.928 166.346 346.158C164.505 347.388 163.07 349.137 162.223 351.183C161.377 353.229 161.156 355.481 161.589 357.652C162.022 359.824 163.089 361.818 164.656 363.383C166.222 364.948 168.218 366.013 170.39 366.443C172.562 366.874 174.813 366.65 176.858 365.801C178.903 364.952 180.65 363.515 181.879 361.673C183.107 359.83 183.761 357.665 183.759 355.451C183.755 352.484 182.574 349.641 180.476 347.545C178.377 345.448 175.532 344.271 172.566 344.271Z" fill="white"/>
<path d="M12.64 261.135V259.824C12.2367 259.836 11.8356 259.76 11.4645 259.602C11.0934 259.444 10.7612 259.206 10.491 258.907C9.95531 258.141 9.68808 257.219 9.73104 256.286L11.841 255.958C11.8148 256.482 11.9042 257.006 12.103 257.492C12.1605 257.632 12.2586 257.752 12.3848 257.836C12.511 257.92 12.6594 257.965 12.811 257.964C13.23 257.964 13.44 257.689 13.44 257.151C13.4436 256.868 13.3903 256.587 13.283 256.325C13.1772 256.089 13.0407 255.869 12.877 255.67C12.6708 255.448 12.4521 255.238 12.222 255.041L11.239 254.189C11.0276 254.013 10.8272 253.825 10.639 253.625C10.4705 253.431 10.3171 253.225 10.18 253.009C10.0311 252.77 9.92039 252.509 9.85204 252.236C9.7764 251.922 9.74277 251.601 9.75204 251.279C9.72919 250.906 9.78249 250.532 9.90868 250.181C10.0349 249.829 10.2313 249.507 10.486 249.234C11.0372 248.71 11.7587 248.403 12.518 248.369V247.059H13.226V248.37C13.4993 248.38 13.7692 248.433 14.026 248.527C14.2393 248.598 14.4413 248.699 14.626 248.827C14.7865 248.959 14.9317 249.108 15.059 249.273C15.1722 249.437 15.2686 249.613 15.347 249.797C15.421 249.983 15.4779 250.177 15.517 250.374C15.563 250.568 15.5937 250.765 15.609 250.964C15.6234 251.151 15.6234 251.34 15.609 251.528L13.486 251.803V250.938C13.4655 250.823 13.4392 250.709 13.407 250.597C13.3684 250.515 13.3247 250.436 13.276 250.361C13.2255 250.29 13.1562 250.236 13.076 250.204C12.985 250.189 12.8921 250.189 12.801 250.204C12.7008 250.201 12.6015 250.225 12.5136 250.273C12.4257 250.321 12.3523 250.392 12.301 250.479C12.1902 250.655 12.1313 250.86 12.131 251.069C12.1288 251.264 12.1554 251.458 12.21 251.646C12.2678 251.829 12.3613 251.999 12.485 252.146C12.5821 252.274 12.6874 252.397 12.8 252.513L13.193 252.893L14.15 253.719C14.3856 253.928 14.6087 254.151 14.818 254.387C15.018 254.615 15.1976 254.861 15.355 255.121C15.528 255.397 15.6604 255.697 15.748 256.012C15.8327 256.355 15.8767 256.707 15.879 257.061C15.8977 257.761 15.6447 258.441 15.1731 258.959C14.7016 259.477 14.0479 259.793 13.349 259.84V261.151L12.64 261.135Z" fill="url(#paint34_linear_1_51904)"/>
<path d="M12.7961 265.838C10.4623 265.838 8.18087 265.146 6.24037 263.85C4.29987 262.553 2.78743 260.71 1.89432 258.554C1.00121 256.398 0.767528 254.025 1.22283 251.736C1.67814 249.447 2.80198 247.345 4.45224 245.694C6.1025 244.044 8.20506 242.92 10.494 242.465C12.783 242.01 15.1556 242.243 17.3118 243.137C19.4679 244.03 21.3108 245.542 22.6074 247.483C23.904 249.423 24.5961 251.704 24.5961 254.038C24.5961 257.168 23.3529 260.169 21.14 262.382C18.927 264.595 15.9257 265.838 12.7961 265.838ZM12.7961 242.915C10.5818 242.902 8.41337 243.546 6.56518 244.766C4.71699 245.986 3.27209 247.726 2.4133 249.767C1.5545 251.808 1.3204 254.058 1.7406 256.232C2.16081 258.406 3.21644 260.407 4.77394 261.981C6.33144 263.555 8.32082 264.632 10.4904 265.075C12.6599 265.518 14.9122 265.307 16.9622 264.47C19.0121 263.633 20.7677 262.207 22.0068 260.371C23.2459 258.536 23.9128 256.375 23.9231 254.16C23.9367 251.194 22.7724 248.344 20.6861 246.236C18.5998 244.128 15.7621 242.934 12.7961 242.916V242.915Z" fill="url(#paint35_linear_1_51904)"/>
<defs>
<linearGradient id="paint0_linear_1_51904" x1="40.918" y1="203.096" x2="482.002" y2="203.096" gradientUnits="userSpaceOnUse">
<stop stop-color="#E2F4FF"/>
<stop offset="1" stop-color="#D7ECFF"/>
</linearGradient>
<linearGradient id="paint1_linear_1_51904" x1="5.15625" y1="415.444" x2="149.956" y2="415.444" gradientUnits="userSpaceOnUse">
<stop stop-color="#E2F4FF"/>
<stop offset="1" stop-color="#D7ECFF"/>
</linearGradient>
<linearGradient id="paint2_linear_1_51904" x1="398.168" y1="415.452" x2="492.744" y2="415.452" gradientUnits="userSpaceOnUse">
<stop stop-color="#E2F4FF"/>
<stop offset="1" stop-color="#D7ECFF"/>
</linearGradient>
<linearGradient id="paint3_linear_1_51904" x1="279.568" y1="77.7368" x2="279.568" y2="43.5032" gradientUnits="userSpaceOnUse">
<stop stop-color="white"/>
<stop offset="1" stop-color="#E9F3FE"/>
</linearGradient>
<linearGradient id="paint4_linear_1_51904" x1="378.029" y1="134.947" x2="378.029" y2="45.7049" gradientUnits="userSpaceOnUse">
<stop stop-color="#DAEBFD"/>
<stop offset="1" stop-color="#7FB4FD"/>
</linearGradient>
<linearGradient id="paint5_linear_1_51904" x1="171.305" y1="231.503" x2="320.824" y2="231.503" gradientUnits="userSpaceOnUse">
<stop stop-color="#8AD3FF"/>
<stop offset="1" stop-color="#5F9CFF"/>
</linearGradient>
<linearGradient id="paint6_linear_1_51904" x1="171.305" y1="133.975" x2="320.824" y2="133.975" gradientUnits="userSpaceOnUse">
<stop stop-color="#8AD3FF"/>
<stop offset="1" stop-color="#5F9CFF"/>
</linearGradient>
<linearGradient id="paint7_linear_1_51904" x1="254.441" y1="318.728" x2="388.809" y2="318.728" gradientUnits="userSpaceOnUse">
<stop stop-color="#9972FF"/>
<stop offset="1" stop-color="#7F85FF"/>
</linearGradient>
<linearGradient id="paint8_linear_1_51904" x1="356.816" y1="334.926" x2="381.692" y2="334.926" gradientUnits="userSpaceOnUse">
<stop stop-color="#294698"/>
<stop offset="1" stop-color="#0E4BA6"/>
</linearGradient>
<linearGradient id="paint9_linear_1_51904" x1="261.465" y1="315.249" x2="286.956" y2="315.249" gradientUnits="userSpaceOnUse">
<stop stop-color="#E2F4FF"/>
<stop offset="1" stop-color="#D7ECFF"/>
</linearGradient>
<linearGradient id="paint10_linear_1_51904" x1="293.078" y1="315.249" x2="318.57" y2="315.249" gradientUnits="userSpaceOnUse">
<stop stop-color="#E2F4FF"/>
<stop offset="1" stop-color="#D7ECFF"/>
</linearGradient>
<linearGradient id="paint11_linear_1_51904" x1="324.691" y1="315.249" x2="350.183" y2="315.249" gradientUnits="userSpaceOnUse">
<stop stop-color="#E2F4FF"/>
<stop offset="1" stop-color="#D7ECFF"/>
</linearGradient>
<linearGradient id="paint12_linear_1_51904" x1="356.305" y1="315.249" x2="381.796" y2="315.249" gradientUnits="userSpaceOnUse">
<stop stop-color="#E2F4FF"/>
<stop offset="1" stop-color="#D7ECFF"/>
</linearGradient>
<linearGradient id="paint13_linear_1_51904" x1="274.198" y1="297.861" x2="274.198" y2="325.948" gradientUnits="userSpaceOnUse">
<stop stop-color="#8AD3FF"/>
<stop offset="1" stop-color="#5F9CFF"/>
</linearGradient>
<linearGradient id="paint14_linear_1_51904" x1="306.088" y1="297.861" x2="306.088" y2="325.948" gradientUnits="userSpaceOnUse">
<stop stop-color="#8AD3FF"/>
<stop offset="1" stop-color="#5F9CFF"/>
</linearGradient>
<linearGradient id="paint15_linear_1_51904" x1="337.975" y1="297.861" x2="337.975" y2="325.948" gradientUnits="userSpaceOnUse">
<stop stop-color="#8AD3FF"/>
<stop offset="1" stop-color="#5F9CFF"/>
</linearGradient>
<linearGradient id="paint16_linear_1_51904" x1="1263.69" y1="406.336" x2="1299.41" y2="406.336" gradientUnits="userSpaceOnUse">
<stop stop-color="#294698"/>
<stop offset="1" stop-color="#0E4BA6"/>
</linearGradient>
<linearGradient id="paint17_linear_1_51904" x1="-2225.77" y1="407.373" x2="-2208.02" y2="407.373" gradientUnits="userSpaceOnUse">
<stop stop-color="#294698"/>
<stop offset="1" stop-color="#0E4BA6"/>
</linearGradient>
<linearGradient id="paint18_linear_1_51904" x1="56.5232" y1="313.706" x2="113.203" y2="313.706" gradientUnits="userSpaceOnUse">
<stop stop-color="#294698"/>
<stop offset="1" stop-color="#0E4BA6"/>
</linearGradient>
<linearGradient id="paint19_linear_1_51904" x1="67.6682" y1="228.469" x2="67.6682" y2="170.484" gradientUnits="userSpaceOnUse">
<stop stop-color="#9972FF"/>
<stop offset="1" stop-color="#7F85FF"/>
</linearGradient>
<linearGradient id="paint20_linear_1_51904" x1="86.7078" y1="228.438" x2="86.7078" y2="170.452" gradientUnits="userSpaceOnUse">
<stop stop-color="#9972FF"/>
<stop offset="1" stop-color="#7F85FF"/>
</linearGradient>
<linearGradient id="paint21_linear_1_51904" x1="-2249.22" y1="127.465" x2="-2222.1" y2="127.465" gradientUnits="userSpaceOnUse">
<stop stop-color="#294698"/>
<stop offset="1" stop-color="#0E4BA6"/>
</linearGradient>
<linearGradient id="paint22_linear_1_51904" x1="109.975" y1="228.467" x2="109.975" y2="170.475" gradientUnits="userSpaceOnUse">
<stop stop-color="#9972FF"/>
<stop offset="1" stop-color="#7F85FF"/>
</linearGradient>
<linearGradient id="paint23_linear_1_51904" x1="100.676" y1="171.763" x2="138.916" y2="171.763" gradientUnits="userSpaceOnUse">
<stop stop-color="#294698"/>
<stop offset="1" stop-color="#0E4BA6"/>
</linearGradient>
<linearGradient id="paint24_linear_1_51904" x1="91.043" y1="44.3148" x2="234.035" y2="44.3148" gradientUnits="userSpaceOnUse">
<stop stop-color="#8AD3FF"/>
<stop offset="1" stop-color="#5F9CFF"/>
</linearGradient>
<linearGradient id="paint25_linear_1_51904" x1="194.258" y1="44.3099" x2="216.84" y2="44.3099" gradientUnits="userSpaceOnUse">
<stop stop-color="#294698"/>
<stop offset="1" stop-color="#0E4BA6"/>
</linearGradient>
<linearGradient id="paint26_linear_1_51904" x1="417.235" y1="308.033" x2="417.235" y2="329.34" gradientUnits="userSpaceOnUse">
<stop stop-color="#8AD3FF"/>
<stop offset="1" stop-color="#5F9CFF"/>
</linearGradient>
<linearGradient id="paint27_linear_1_51904" x1="475.842" y1="315.973" x2="475.842" y2="350.221" gradientUnits="userSpaceOnUse">
<stop stop-color="#8AD3FF"/>
<stop offset="1" stop-color="#5F9CFF"/>
</linearGradient>
<linearGradient id="paint28_linear_1_51904" x1="437.911" y1="258.122" x2="425.753" y2="262.855" gradientUnits="userSpaceOnUse">
<stop stop-color="#8AD3FF"/>
<stop offset="1" stop-color="#5F9CFF"/>
</linearGradient>
<linearGradient id="paint29_linear_1_51904" x1="468.927" y1="260.587" x2="468.927" y2="313.361" gradientUnits="userSpaceOnUse">
<stop stop-color="#8AD3FF"/>
<stop offset="1" stop-color="#5F9CFF"/>
</linearGradient>
<linearGradient id="paint30_linear_1_51904" x1="572.125" y1="394.722" x2="616.207" y2="394.722" gradientUnits="userSpaceOnUse">
<stop stop-color="#E2F4FF"/>
<stop offset="1" stop-color="#D7ECFF"/>
</linearGradient>
<linearGradient id="paint31_linear_1_51904" x1="326.302" y1="376.559" x2="276.816" y2="376.127" gradientUnits="userSpaceOnUse">
<stop stop-color="#294698"/>
<stop offset="1" stop-color="#0E4BA6"/>
</linearGradient>
<linearGradient id="paint32_linear_1_51904" x1="268.243" y1="1.22283" x2="268.243" y2="33.7333" gradientUnits="userSpaceOnUse">
<stop stop-color="#8AD3FF"/>
<stop offset="1" stop-color="#5F9CFF"/>
</linearGradient>
<linearGradient id="paint33_linear_1_51904" x1="268.241" y1="1.21565" x2="268.241" y2="33.7365" gradientUnits="userSpaceOnUse">
<stop stop-color="#8AD3FF"/>
<stop offset="1" stop-color="#5F9CFF"/>
</linearGradient>
<linearGradient id="paint34_linear_1_51904" x1="12.7971" y1="237.631" x2="12.7971" y2="281.105" gradientUnits="userSpaceOnUse">
<stop stop-color="#8AD3FF"/>
<stop offset="1" stop-color="#5F9CFF"/>
</linearGradient>
<linearGradient id="paint35_linear_1_51904" x1="12.7961" y1="237.613" x2="12.7961" y2="281.107" gradientUnits="userSpaceOnUse">
<stop stop-color="#8AD3FF"/>
<stop offset="1" stop-color="#5F9CFF"/>
</linearGradient>
</defs>
</svg>
