<svg width="500" height="374" viewBox="0 0 500 374" fill="none" xmlns="http://www.w3.org/2000/svg">
<path d="M500 328.121H0V328.371H500V328.121Z" fill="#EBEBEB"/>
<path d="M449.901 344.211H416.781V344.461H449.901V344.211Z" fill="#EBEBEB"/>
<path d="M331.221 346.934H322.531V347.184H331.221V346.934Z" fill="#EBEBEB"/>
<path d="M415.78 334.934H396.59V335.184H415.78V334.934Z" fill="#EBEBEB"/>
<path d="M95.6509 336.613H52.4609V336.863H95.6509V336.613Z" fill="#EBEBEB"/>
<path d="M110.889 336.613H104.559V336.863H110.889V336.613Z" fill="#EBEBEB"/>
<path d="M225.149 340.832H131.469V341.082H225.149V340.832Z" fill="#EBEBEB"/>
<path d="M237.001 283.523H43.9109C42.3983 283.52 40.9485 282.917 39.8798 281.847C38.8112 280.776 38.2109 279.325 38.2109 277.813V6.38266C38.2241 4.87868 38.8301 3.44063 39.8974 2.38087C40.9646 1.32111 42.4069 0.725233 43.9109 0.722656H237.001C238.515 0.722656 239.968 1.32424 241.039 2.39508C242.109 3.46591 242.711 4.91827 242.711 6.43266V277.813C242.711 279.327 242.109 280.779 241.039 281.85C239.968 282.921 238.515 283.523 237.001 283.523ZM43.9109 0.922657C42.4646 0.925306 41.0784 1.50172 40.0566 2.52538C39.0348 3.54904 38.4609 4.93631 38.4609 6.38266V277.813C38.4609 279.259 39.0348 280.646 40.0566 281.67C41.0784 282.694 42.4646 283.27 43.9109 283.273H237.001C238.448 283.27 239.835 282.694 240.859 281.671C241.882 280.647 242.458 279.26 242.461 277.813V6.38266C242.458 4.93539 241.882 3.54815 240.859 2.52477C239.835 1.5014 238.448 0.9253 237.001 0.922657H43.9109Z" fill="#EBEBEB"/>
<path d="M453.31 283.523H260.21C258.696 283.52 257.246 282.918 256.175 281.847C255.105 280.777 254.503 279.326 254.5 277.813V6.38266C254.516 4.87777 255.124 3.43973 256.193 2.38025C257.262 1.32076 258.705 0.725205 260.21 0.722656H453.31C454.812 0.727861 456.252 1.32491 457.317 2.38438C458.382 3.44386 458.987 4.88041 459 6.38266V277.813C459 279.324 458.401 280.773 457.335 281.843C456.268 282.913 454.821 283.517 453.31 283.523ZM260.21 0.922657C258.763 0.9253 257.375 1.5014 256.352 2.52477C255.329 3.54815 254.753 4.93539 254.75 6.38266V277.813C254.753 279.26 255.329 280.647 256.352 281.671C257.375 282.694 258.763 283.27 260.21 283.273H453.31C454.757 283.27 456.145 282.694 457.168 281.671C458.191 280.647 458.767 279.26 458.77 277.813V6.38266C458.767 4.93539 458.191 3.54815 457.168 2.52477C456.145 1.5014 454.757 0.9253 453.31 0.922657H260.21Z" fill="#EBEBEB"/>
<path d="M172.588 78.6065L164.461 80.3516L166.206 88.4787L174.333 86.7336L172.588 78.6065Z" fill="#EBEBEB"/>
<path d="M225.009 131.818C226.36 106.554 206.974 84.9785 181.71 83.6279C156.446 82.2774 134.87 101.663 133.52 126.927C132.169 152.191 151.555 173.767 176.819 175.117C202.083 176.468 223.658 157.082 225.009 131.818Z" fill="#E0E0E0"/>
<path d="M204.306 160.424C221.447 146.593 224.13 121.485 210.299 104.345C196.468 87.2036 171.361 84.5204 154.22 98.3514C137.079 112.182 134.396 137.29 148.227 154.431C162.058 171.572 187.165 174.255 204.306 160.424Z" fill="#F0F0F0"/>
<path d="M174.328 70.8993L159.688 74.043L161.655 83.2068L176.296 80.0631L174.328 70.8993Z" fill="#E0E0E0"/>
<path d="M183.061 128.554C183.244 129.433 183.118 130.347 182.703 131.143C182.288 131.939 181.61 132.566 180.785 132.918C179.96 133.27 179.038 133.325 178.177 133.074C177.315 132.822 176.567 132.28 176.061 131.54C175.554 130.799 175.32 129.906 175.397 129.012C175.475 128.118 175.86 127.279 176.487 126.637C177.114 125.996 177.944 125.591 178.836 125.492C179.728 125.394 180.627 125.607 181.379 126.096C181.807 126.375 182.176 126.736 182.465 127.158C182.754 127.579 182.956 128.054 183.061 128.554Z" fill="#E0E0E0"/>
<path d="M169.672 97.1719C170.882 99.7319 171.922 102.342 172.972 104.952L174.472 108.882L175.892 112.882C176.892 115.522 177.722 118.182 178.572 120.882C179.422 123.582 180.252 126.222 181.022 128.882L178.022 128.062C179.835 126.402 181.665 124.762 183.512 123.142C185.362 121.522 187.242 119.932 189.132 118.372C191.022 116.812 192.952 115.262 194.892 113.742C196.832 112.222 198.822 110.742 200.892 109.362C199.342 111.362 197.712 113.162 196.072 115.002C194.432 116.842 192.752 118.642 191.072 120.402C189.392 122.162 187.642 123.932 185.892 125.652C184.142 127.372 182.372 129.082 180.572 130.752L178.432 132.752L177.562 129.932C176.742 127.252 175.972 124.562 175.222 121.862C174.472 119.162 173.752 116.462 173.092 113.732L172.092 109.642L171.202 105.532C170.612 102.722 170.052 99.9719 169.672 97.1719Z" fill="#E0E0E0"/>
<path d="M423.43 108.964L387.43 213.534L242 163.494L278 58.9141L282.89 60.5941C282.519 60.9109 282.226 61.3092 282.034 61.7579C281.842 62.2065 281.756 62.6935 281.783 63.1807C281.81 63.668 281.949 64.1424 282.19 64.567C282.43 64.9917 282.766 65.3551 283.17 65.6289C283.574 65.9027 284.035 66.0796 284.519 66.1457C285.002 66.2118 285.495 66.1654 285.957 66.0101C286.42 65.8548 286.84 65.5948 287.186 65.2503C287.532 64.9058 287.793 64.4862 287.95 64.0241C288.141 63.4952 288.179 62.9235 288.06 62.3741L292.94 64.0541C292.508 64.4144 292.185 64.8892 292.01 65.4241C291.871 65.819 291.811 66.2376 291.834 66.6557C291.858 67.0738 291.964 67.4831 292.146 67.8601C292.328 68.237 292.584 68.5742 292.897 68.852C293.21 69.1299 293.575 69.3429 293.971 69.4789C294.368 69.6149 294.787 69.6711 295.204 69.6443C295.622 69.6175 296.031 69.5082 296.406 69.3228C296.782 69.1373 297.117 68.8794 297.392 68.5638C297.667 68.2482 297.877 67.8812 298.01 67.4841C298.197 66.9543 298.232 66.3826 298.11 65.8341L302.99 67.5041C302.558 67.8644 302.235 68.3392 302.06 68.8741C301.921 69.269 301.861 69.6876 301.884 70.1057C301.908 70.5238 302.014 70.9331 302.196 71.3101C302.378 71.687 302.634 72.0242 302.947 72.302C303.26 72.5799 303.625 72.7929 304.021 72.9289C304.418 73.0649 304.837 73.1211 305.254 73.0943C305.672 73.0675 306.081 72.9582 306.456 72.7728C306.832 72.5873 307.167 72.3294 307.442 72.0138C307.717 71.6982 307.927 71.3312 308.06 70.9341C308.244 70.404 308.282 69.8339 308.17 69.2841L313.04 70.9541C312.669 71.2709 312.376 71.6692 312.184 72.1179C311.992 72.5665 311.906 73.0535 311.933 73.5407C311.96 74.028 312.099 74.5024 312.34 74.927C312.58 75.3517 312.916 75.7151 313.32 75.9889C313.724 76.2627 314.185 76.4396 314.669 76.5057C315.152 76.5718 315.645 76.5254 316.107 76.3701C316.57 76.2148 316.99 75.9548 317.336 75.6103C317.682 75.2658 317.943 74.8462 318.1 74.3841C318.285 73.8541 318.323 73.2839 318.21 72.7341L323.08 74.4141C322.652 74.778 322.33 75.2515 322.15 75.7841C321.99 76.2448 321.938 76.7364 321.998 77.2205C322.059 77.7046 322.231 78.1681 322.5 78.5751C322.769 78.982 323.128 79.3214 323.55 79.5667C323.972 79.8119 324.444 79.9566 324.931 79.9893C325.418 80.022 325.906 79.9419 326.356 79.7553C326.807 79.5686 327.209 79.2805 327.53 78.9132C327.851 78.5459 328.083 78.1095 328.208 77.6379C328.333 77.1662 328.347 76.6721 328.25 76.1941L333.12 77.8641C332.692 78.228 332.37 78.7015 332.19 79.2341C332.051 79.629 331.991 80.0476 332.014 80.4657C332.038 80.8838 332.144 81.2931 332.326 81.6701C332.508 82.0471 332.764 82.3842 333.077 82.662C333.39 82.9399 333.755 83.1529 334.151 83.2889C334.548 83.4249 334.967 83.4811 335.384 83.4543C335.802 83.4275 336.211 83.3182 336.586 83.1328C336.962 82.9473 337.297 82.6893 337.572 82.3738C337.847 82.0582 338.057 81.6912 338.19 81.2941C338.374 80.764 338.412 80.1939 338.3 79.6441L343.17 81.3241C342.738 81.6844 342.415 82.1592 342.24 82.6941C341.975 83.4877 342.034 84.3539 342.405 85.1041C342.775 85.8543 343.427 86.4277 344.218 86.6994C345.01 86.9711 345.877 86.9191 346.63 86.5548C347.383 86.1904 347.962 85.5432 348.24 84.7541C348.424 84.2239 348.462 83.654 348.35 83.1041L353.22 84.7741C352.849 85.0909 352.556 85.4892 352.364 85.9379C352.172 86.3865 352.086 86.8734 352.113 87.3607C352.14 87.848 352.279 88.3224 352.52 88.747C352.76 89.1717 353.096 89.5351 353.5 89.8089C353.904 90.0827 354.365 90.2596 354.849 90.3257C355.332 90.3918 355.825 90.3454 356.287 90.1901C356.75 90.0348 357.17 89.7748 357.516 89.4303C357.862 89.0858 358.123 88.6662 358.28 88.2041C358.471 87.6752 358.509 87.1035 358.39 86.5541L363.26 88.2341C362.89 88.5521 362.599 88.9511 362.409 89.4C362.219 89.8489 362.134 90.3357 362.163 90.8224C362.192 91.3092 362.332 91.7828 362.573 92.2064C362.815 92.6301 363.151 92.9923 363.555 93.265C363.959 93.5376 364.421 93.7134 364.904 93.7785C365.387 93.8437 365.879 93.7965 366.341 93.6406C366.803 93.4848 367.223 93.2245 367.568 92.8799C367.913 92.5354 368.174 92.1159 368.33 91.6541C368.517 91.1243 368.552 90.5526 368.43 90.0041L373.31 91.6841C372.878 92.0444 372.555 92.5192 372.38 93.0541C372.22 93.5148 372.168 94.0064 372.228 94.4905C372.289 94.9746 372.461 95.4382 372.73 95.8451C372.999 96.252 373.358 96.5914 373.78 96.8367C374.202 97.0819 374.674 97.2266 375.161 97.2593C375.648 97.292 376.136 97.2119 376.586 97.0253C377.037 96.8386 377.439 96.5505 377.76 96.1832C378.081 95.8159 378.313 95.3795 378.438 94.9079C378.563 94.4362 378.577 93.9421 378.48 93.4641L383.35 95.1341C382.922 95.498 382.6 95.9715 382.42 96.5041C382.155 97.2977 382.214 98.1639 382.585 98.9141C382.955 99.6643 383.607 100.238 384.398 100.509C385.19 100.781 386.057 100.729 386.81 100.365C387.563 100 388.142 99.3532 388.42 98.5641C388.604 98.034 388.642 97.4639 388.53 96.9141L393.4 98.5941C392.968 98.9544 392.645 99.4292 392.47 99.9641C392.205 100.758 392.264 101.624 392.635 102.374C393.005 103.124 393.657 103.698 394.448 103.969C395.24 104.241 396.107 104.189 396.86 103.825C397.613 103.46 398.192 102.813 398.47 102.024C398.654 101.494 398.692 100.924 398.58 100.374L403.45 102.044C403.022 102.408 402.7 102.882 402.52 103.414C402.381 103.809 402.321 104.228 402.344 104.646C402.368 105.064 402.474 105.473 402.656 105.85C402.838 106.227 403.094 106.564 403.407 106.842C403.72 107.12 404.085 107.333 404.481 107.469C404.878 107.605 405.297 107.661 405.715 107.634C406.132 107.607 406.541 107.498 406.916 107.313C407.292 107.127 407.627 106.869 407.902 106.554C408.177 106.238 408.387 105.871 408.52 105.474C408.704 104.944 408.742 104.374 408.63 103.824L413.5 105.504C413.072 105.864 412.75 106.334 412.57 106.864C412.305 107.658 412.364 108.524 412.735 109.274C413.105 110.024 413.757 110.598 414.548 110.869C415.34 111.141 416.207 111.089 416.96 110.725C417.713 110.36 418.292 109.713 418.57 108.924C418.755 108.394 418.793 107.824 418.68 107.274L423.43 108.964Z" fill="#F0F0F0"/>
<path d="M423.429 108.963L416.099 130.273L270.609 80.2731L277.939 58.9531L282.829 60.6331C282.458 60.95 282.165 61.3483 281.973 61.7969C281.781 62.2456 281.695 62.7325 281.723 63.2198C281.75 63.707 281.889 64.1815 282.129 64.6061C282.37 65.0308 282.705 65.3941 283.109 65.668C283.513 65.9418 283.975 66.1187 284.458 66.1848C284.942 66.2509 285.434 66.2045 285.897 66.0492C286.359 65.8939 286.78 65.6338 287.125 65.2894C287.471 64.9449 287.733 64.5252 287.889 64.0631C288.08 63.5343 288.118 62.9626 287.999 62.4131L292.879 64.0931C292.447 64.4535 292.125 64.9282 291.949 65.4631C291.684 66.2567 291.743 67.123 292.114 67.8732C292.484 68.6234 293.136 69.1968 293.928 69.4685C294.719 69.7402 295.586 69.6882 296.339 69.3238C297.092 68.9595 297.671 68.3122 297.949 67.5231C298.137 66.9933 298.171 66.4216 298.049 65.8731L302.929 67.5431C302.497 67.9035 302.175 68.3783 301.999 68.9131C301.734 69.7067 301.793 70.573 302.164 71.3232C302.534 72.0734 303.186 72.6468 303.978 72.9185C304.769 73.1902 305.636 73.1382 306.389 72.7738C307.142 72.4095 307.721 71.7622 307.999 70.9731C308.184 70.443 308.222 69.873 308.109 69.3231L312.979 70.9931C312.608 71.31 312.315 71.7083 312.123 72.1569C311.931 72.6056 311.846 73.0925 311.873 73.5798C311.9 74.067 312.039 74.5415 312.279 74.9661C312.52 75.3907 312.855 75.7541 313.259 76.028C313.663 76.3018 314.125 76.4787 314.608 76.5448C315.092 76.6109 315.584 76.5645 316.047 76.4092C316.509 76.2539 316.93 75.9938 317.275 75.6494C317.621 75.3049 317.883 74.8852 318.039 74.4231C318.224 73.8931 318.262 73.323 318.149 72.7731L323.019 74.4531C322.591 74.817 322.269 75.2906 322.089 75.8231C321.929 76.2839 321.877 76.7754 321.938 77.2595C321.998 77.7436 322.17 78.2072 322.439 78.6142C322.708 79.0211 323.068 79.3604 323.489 79.6057C323.911 79.851 324.384 79.9957 324.871 80.0284C325.357 80.0611 325.845 79.981 326.296 79.7943C326.747 79.6077 327.148 79.3195 327.469 78.9523C327.791 78.585 328.023 78.1486 328.147 77.6769C328.272 77.2053 328.287 76.7112 328.189 76.2331L333.059 77.9031C332.631 78.267 332.309 78.7406 332.129 79.2731C331.99 79.6681 331.93 80.0866 331.954 80.5047C331.977 80.9228 332.083 81.3322 332.265 81.7091C332.448 82.0861 332.703 82.4232 333.016 82.7011C333.33 82.9789 333.695 83.192 334.091 83.328C334.487 83.4639 334.906 83.5202 335.324 83.4934C335.742 83.4666 336.15 83.3573 336.526 83.1718C336.901 82.9864 337.236 82.7284 337.511 82.4128C337.787 82.0973 337.997 81.7303 338.129 81.3331C338.314 80.803 338.352 80.233 338.239 79.6831L343.109 81.3631C342.677 81.7235 342.355 82.1982 342.179 82.7331C341.914 83.5267 341.973 84.393 342.344 85.1432C342.714 85.8934 343.366 86.4668 344.158 86.7385C344.949 87.0102 345.816 86.9582 346.569 86.5938C347.322 86.2295 347.901 85.5823 348.179 84.7931C348.363 84.2629 348.401 83.693 348.289 83.1431L353.159 84.8131C352.788 85.13 352.495 85.5283 352.303 85.9769C352.111 86.4256 352.025 86.9125 352.053 87.3998C352.08 87.887 352.219 88.3615 352.459 88.7861C352.7 89.2108 353.035 89.5741 353.439 89.848C353.843 90.1218 354.305 90.2986 354.788 90.3648C355.272 90.4309 355.764 90.3845 356.227 90.2292C356.689 90.0739 357.11 89.8138 357.455 89.4694C357.801 89.1249 358.062 88.7052 358.219 88.2431C358.41 87.7143 358.448 87.1426 358.329 86.5931L363.199 88.2731C362.83 88.5911 362.539 88.9901 362.348 89.4391C362.158 89.888 362.074 90.3748 362.102 90.8615C362.131 91.3483 362.271 91.8219 362.513 92.2455C362.754 92.6691 363.09 93.0313 363.494 93.304C363.898 93.5767 364.36 93.7524 364.843 93.8176C365.327 93.8827 365.818 93.8356 366.28 93.6797C366.742 93.5239 367.162 93.2635 367.507 92.919C367.852 92.5744 368.113 92.1549 368.269 91.6931C368.457 91.1633 368.491 90.5916 368.369 90.0431L373.249 91.7231C372.817 92.0835 372.495 92.5582 372.319 93.0931C372.159 93.5539 372.107 94.0454 372.168 94.5295C372.228 95.0136 372.4 95.4772 372.669 95.8841C372.938 96.2911 373.298 96.6304 373.719 96.8757C374.141 97.121 374.614 97.2656 375.101 97.2984C375.587 97.3311 376.075 97.251 376.526 97.0644C376.977 96.8777 377.378 96.5895 377.699 96.2223C378.021 95.855 378.253 95.4186 378.378 94.9469C378.502 94.4753 378.517 93.9812 378.419 93.5031L383.289 95.1731C382.861 95.537 382.539 96.0106 382.359 96.5431C382.094 97.3367 382.153 98.203 382.524 98.9532C382.894 99.7034 383.546 100.277 384.338 100.548C385.129 100.82 385.996 100.768 386.749 100.404C387.502 100.039 388.081 99.3923 388.359 98.6031C388.544 98.073 388.582 97.503 388.469 96.9531L393.339 98.6331C392.907 98.9935 392.585 99.4683 392.409 100.003C392.27 100.398 392.21 100.817 392.234 101.235C392.257 101.653 392.363 102.062 392.545 102.439C392.728 102.816 392.983 103.153 393.296 103.431C393.61 103.709 393.975 103.922 394.371 104.058C394.767 104.194 395.186 104.25 395.604 104.223C396.022 104.197 396.43 104.087 396.806 103.902C397.181 103.716 397.516 103.458 397.791 103.143C398.067 102.827 398.277 102.46 398.409 102.063C398.593 101.533 398.631 100.963 398.519 100.413L403.389 102.083C402.961 102.447 402.639 102.921 402.459 103.453C402.194 104.247 402.253 105.113 402.624 105.863C402.994 106.613 403.646 107.187 404.438 107.458C405.229 107.73 406.096 107.678 406.849 107.314C407.602 106.949 408.181 106.302 408.459 105.513C408.644 104.983 408.682 104.413 408.569 103.863L413.439 105.543C413.011 105.903 412.69 106.374 412.509 106.903C412.244 107.697 412.303 108.563 412.674 109.313C413.044 110.063 413.696 110.637 414.488 110.908C415.279 111.18 416.146 111.128 416.899 110.764C417.652 110.399 418.231 109.752 418.509 108.963C418.694 108.433 418.732 107.863 418.619 107.313L423.429 108.963Z" fill="#E0E0E0"/>
<path d="M330.784 105.785L314.844 100.309L309.368 116.249L325.308 121.725L330.784 105.785Z" fill="#FAFAFA"/>
<path d="M349.835 112.347L333.895 106.871L328.418 122.811L344.358 128.287L349.835 112.347Z" fill="#FAFAFA"/>
<path d="M368.885 118.894L352.945 113.418L347.469 129.358L363.409 134.834L368.885 118.894Z" fill="#FAFAFA"/>
<path d="M387.948 125.457L372.008 119.98L366.532 135.921L382.472 141.397L387.948 125.457Z" fill="#FAFAFA"/>
<path d="M407.003 132.007L391.062 126.531L385.586 142.471L401.526 147.948L407.003 132.007Z" fill="#FAFAFA"/>
<path d="M286.471 110.715L270.531 105.238L265.055 121.178L280.995 126.655L286.471 110.715Z" fill="#FAFAFA"/>
<path d="M305.514 117.265L289.574 111.789L284.098 127.729L300.038 133.205L305.514 117.265Z" fill="#FAFAFA"/>
<path d="M324.577 123.816L308.637 118.34L303.16 134.28L319.101 139.756L324.577 123.816Z" fill="#FAFAFA"/>
<path d="M343.628 130.375L327.688 124.898L322.211 140.839L338.151 146.315L343.628 130.375Z" fill="#FAFAFA"/>
<path d="M362.69 136.929L346.75 131.453L341.274 147.393L357.214 152.869L362.69 136.929Z" fill="#FAFAFA"/>
<path d="M381.749 143.492L365.809 138.016L360.332 153.956L376.272 159.432L381.749 143.492Z" fill="#FAFAFA"/>
<path d="M400.803 150.031L384.863 144.555L379.387 160.495L395.327 165.971L400.803 150.031Z" fill="#FAFAFA"/>
<path d="M280.264 128.738L264.324 123.262L258.848 139.202L274.788 144.678L280.264 128.738Z" fill="#FAFAFA"/>
<path d="M299.315 135.297L283.375 129.82L277.899 145.76L293.839 151.237L299.315 135.297Z" fill="#FAFAFA"/>
<path d="M318.378 141.851L302.438 136.375L296.961 152.315L312.901 157.791L318.378 141.851Z" fill="#FAFAFA"/>
<path d="M337.428 148.41L321.488 142.934L316.012 158.874L331.952 164.35L337.428 148.41Z" fill="#FAFAFA"/>
<path d="M356.495 154.965L340.555 149.488L335.078 165.428L351.019 170.905L356.495 154.965Z" fill="#FAFAFA"/>
<path d="M375.542 161.515L359.602 156.039L354.125 171.979L370.065 177.455L375.542 161.515Z" fill="#FAFAFA"/>
<path d="M394.596 168.066L378.656 162.59L373.18 178.53L389.12 184.006L394.596 168.066Z" fill="#FAFAFA"/>
<path d="M274.057 146.769L258.117 141.293L252.641 157.233L268.581 162.709L274.057 146.769Z" fill="#FAFAFA"/>
<path d="M293.12 153.332L277.18 147.855L271.703 163.796L287.644 169.272L293.12 153.332Z" fill="#FAFAFA"/>
<path d="M312.182 159.882L296.242 154.406L290.766 170.346L306.706 175.823L312.182 159.882Z" fill="#FAFAFA"/>
<path d="M331.225 166.422L315.285 160.945L309.809 176.885L325.749 182.362L331.225 166.422Z" fill="#FAFAFA"/>
<path d="M350.288 172.984L334.348 167.508L328.871 183.448L344.812 188.924L350.288 172.984Z" fill="#FAFAFA"/>
<path d="M369.339 179.535L353.398 174.059L347.922 189.999L363.862 195.475L369.339 179.535Z" fill="#FAFAFA"/>
<path d="M338.14 147.822C337.859 147.821 337.584 147.742 337.345 147.594C337.107 147.446 336.914 147.234 336.79 146.982L326.34 125.562C326.236 125.384 326.17 125.186 326.147 124.981C326.123 124.776 326.142 124.569 326.202 124.371C326.262 124.174 326.362 123.991 326.496 123.835C326.63 123.678 326.795 123.55 326.98 123.46C327.165 123.37 327.367 123.319 327.573 123.31C327.779 123.301 327.985 123.335 328.177 123.409C328.37 123.484 328.545 123.597 328.691 123.742C328.838 123.887 328.953 124.06 329.03 124.252L339.49 145.722C339.662 146.079 339.687 146.489 339.557 146.864C339.428 147.239 339.156 147.547 338.8 147.722C338.591 147.808 338.364 147.842 338.14 147.822Z" fill="#E0E0E0"/>
<path d="M322.202 142.343C321.861 142.345 321.531 142.231 321.264 142.019C320.998 141.808 320.811 141.513 320.734 141.182C320.657 140.85 320.695 140.503 320.842 140.196C320.989 139.889 321.235 139.642 321.542 139.493L343.002 129.043C343.36 128.868 343.772 128.843 344.149 128.972C344.526 129.101 344.836 129.375 345.012 129.733C345.187 130.091 345.212 130.504 345.083 130.881C344.953 131.258 344.68 131.568 344.322 131.743L322.901 142.193C322.683 142.297 322.443 142.349 322.202 142.343Z" fill="#E0E0E0"/>
<path d="M80.8281 98.6042V105.244L84.2381 105.564C84.6987 107.758 85.5634 109.847 86.7881 111.724L84.5981 114.374L89.2881 119.064L91.9381 116.864C93.8003 118.097 95.8809 118.963 98.0681 119.414L98.3881 122.824H104.998L105.318 119.414C107.505 118.961 109.585 118.095 111.448 116.864L114.098 119.064L118.788 114.374L116.618 111.724C117.84 109.857 118.702 107.778 119.158 105.594L122.578 105.274V98.6342L119.158 98.3142C118.702 96.1302 117.84 94.051 116.618 92.1842L118.808 89.5342L114.118 84.8442L111.468 87.0442C109.605 85.813 107.525 84.9476 105.338 84.4942L105.018 81.0742H98.3881L98.0681 84.4942C95.8809 84.9457 93.8003 85.8113 91.9381 87.0442L89.2881 84.8442L84.5981 89.5342L86.7881 92.1842C85.5668 94.0525 84.7022 96.1309 84.2381 98.3142L80.8281 98.6042ZM101.698 92.9442C103.478 92.9442 105.218 93.4721 106.698 94.461C108.178 95.4499 109.332 96.8555 110.013 98.5001C110.694 100.145 110.872 101.954 110.525 103.7C110.178 105.446 109.321 107.049 108.062 108.308C106.803 109.567 105.2 110.424 103.454 110.771C101.708 111.119 99.8985 110.94 98.254 110.259C96.6094 109.578 95.2038 108.424 94.2149 106.944C93.226 105.464 92.6981 103.724 92.6981 101.944C92.6981 99.5573 93.6463 97.2681 95.3342 95.5802C97.022 93.8924 99.3112 92.9442 101.698 92.9442Z" fill="#EBEBEB"/>
<path d="M238.509 257.834C242.278 257.045 245.864 255.552 249.079 253.434L253.659 257.224L261.759 249.124L257.999 244.554C260.117 241.335 261.61 237.746 262.399 233.974L268.289 233.424V221.974L262.399 221.414C261.61 217.642 260.117 214.053 257.999 210.834L261.789 206.264L253.689 198.164L249.109 201.954C245.894 199.836 242.308 198.343 238.539 197.554L237.979 191.664H226.499L225.949 197.554C222.178 198.343 218.588 199.836 215.369 201.954L210.799 198.164L202.699 206.264L206.489 210.834C204.371 214.053 202.878 217.642 202.089 221.414L196.199 221.974V233.424L202.089 233.974C202.878 237.746 204.371 241.335 206.489 244.554L202.699 249.124L210.799 257.224L215.369 253.434C218.588 255.552 222.178 257.045 225.949 257.834L226.499 263.724H237.999L238.509 257.834ZM216.729 227.724C216.729 224.658 217.638 221.662 219.341 219.113C221.045 216.564 223.465 214.577 226.298 213.404C229.13 212.231 232.246 211.924 235.253 212.522C238.26 213.12 241.022 214.596 243.189 216.764C245.357 218.932 246.833 221.693 247.431 224.7C248.029 227.707 247.723 230.823 246.549 233.656C245.376 236.488 243.39 238.909 240.841 240.612C238.292 242.315 235.295 243.224 232.229 243.224C228.118 243.224 224.176 241.591 221.269 238.684C218.362 235.777 216.729 231.835 216.729 227.724Z" fill="#E0E0E0"/>
<path d="M110.998 306.455L112.738 307.895L115.828 304.805L114.378 303.065C115.187 301.85 115.757 300.492 116.058 299.065L118.308 298.855V294.485L116.058 294.275C115.761 292.845 115.191 291.487 114.378 290.275L115.828 288.525L112.738 285.435L110.998 286.825C109.784 286.015 108.426 285.445 106.998 285.145L106.788 282.895H102.428L102.208 285.145C100.781 285.446 99.4231 286.016 98.2084 286.825L96.4684 285.375L93.3784 288.465L94.8184 290.215C94.0135 291.43 93.4468 292.787 93.1484 294.215L90.8984 294.425V298.795L93.1484 299.005C93.4504 300.43 94.0168 301.787 94.8184 303.005L93.3784 304.745L96.4684 307.835L98.2084 306.395C99.4258 307.196 100.783 307.763 102.208 308.065L102.428 310.315H106.788L106.998 308.065C108.42 307.782 109.777 307.236 110.998 306.455ZM98.6584 296.635C99.3072 296.638 99.9279 296.899 100.384 297.36C100.841 297.821 101.096 298.444 101.094 299.093C101.092 299.742 100.833 300.363 100.374 300.821C99.9145 301.279 99.2922 301.536 98.6434 301.536C97.9947 301.536 97.3724 301.279 96.913 300.821C96.4535 300.363 96.1944 299.742 96.1924 299.093C96.1905 298.444 96.4458 297.821 96.9024 297.36C97.359 296.899 97.9797 296.638 98.6284 296.635H98.6584Z" fill="#E6E6E6"/>
<path d="M235.999 77.7933L236.999 78.6333L238.789 76.8433L237.959 75.8433C238.436 75.1328 238.775 74.339 238.959 73.5033L240.259 73.3833V70.8533L238.959 70.7333C238.775 69.8975 238.436 69.1037 237.959 68.3933L238.789 67.3933L236.999 65.5833L235.999 66.4233C235.294 65.9438 234.503 65.6043 233.669 65.4233L233.539 64.1133H230.999L230.879 65.4133C230.043 65.5973 229.25 65.9365 228.539 66.4133L227.539 65.5733L225.759 67.3633L226.589 68.3633C226.112 69.0737 225.773 69.8675 225.589 70.7033L224.289 70.8233V73.3533L225.589 73.4733C225.773 74.309 226.112 75.1028 226.589 75.8133L225.759 76.8133L227.539 78.6033L228.539 77.7633C229.247 78.2446 230.042 78.5842 230.879 78.7633L230.999 80.0633H233.529L233.659 78.7633C234.494 78.5926 235.288 78.2633 235.999 77.7933ZM228.849 72.1033C229.225 72.1099 229.583 72.2646 229.845 72.5338C230.107 72.803 230.252 73.1648 230.249 73.5406C230.246 73.9163 230.094 74.2756 229.827 74.5401C229.56 74.8046 229.2 74.9531 228.824 74.9531C228.448 74.9531 228.088 74.8046 227.821 74.5401C227.554 74.2756 227.402 73.9163 227.399 73.5406C227.396 73.1648 227.541 72.803 227.803 72.5338C228.065 72.2646 228.423 72.1099 228.799 72.1033H228.849Z" fill="#F5F5F5"/>
<path d="M389.281 69.8336L390.281 70.6736L392.071 68.8836L391.231 67.8836C391.713 67.1755 392.052 66.3809 392.231 65.5436L393.541 65.4236V62.8936L392.231 62.7636C392.05 61.93 391.711 61.139 391.231 60.4336L392.071 59.4336L390.281 57.6436L389.281 58.4836C388.571 58.0068 387.777 57.6676 386.941 57.4836L386.821 56.1836H384.291L384.171 57.4836C383.336 57.6676 382.542 58.0068 381.831 58.4836L380.831 57.6436L379.001 59.4136L379.841 60.4136C379.362 61.119 379.022 61.91 378.841 62.7436L377.531 62.8736V65.4036L378.841 65.5236C379.02 66.3609 379.36 67.1555 379.841 67.8636L379.001 68.8636L380.791 70.6536L381.791 69.8136C382.499 70.2949 383.294 70.6345 384.131 70.8136L384.251 72.1136H386.781L386.901 70.8136C387.751 70.6455 388.56 70.3126 389.281 69.8336ZM382.131 64.1436C382.134 63.3527 382.411 62.5873 382.914 61.9774C383.418 61.3676 384.117 60.9511 384.893 60.7989C385.669 60.6467 386.474 60.7681 387.17 61.1426C387.867 61.517 388.412 62.1213 388.714 62.8525C389.015 63.5838 389.053 64.3968 388.822 65.1532C388.591 65.9096 388.106 66.5627 387.447 67.0012C386.789 67.4396 385.999 67.6365 385.213 67.5582C384.426 67.4798 383.69 67.1312 383.131 66.5716C382.813 66.2524 382.561 65.8737 382.39 65.4571C382.218 65.0405 382.13 64.5941 382.131 64.1436Z" fill="#F0F0F0"/>
<path d="M422.151 229.852L423.891 231.292L426.981 228.212L425.541 226.462C426.342 225.244 426.909 223.887 427.211 222.462L429.461 222.252V217.882L427.211 217.672C426.911 216.245 426.344 214.888 425.541 213.672L426.981 211.922L423.891 208.832L422.151 210.282C420.932 209.481 419.576 208.911 418.151 208.602L417.931 206.352H413.571L413.361 208.602C411.935 208.911 410.579 209.48 409.361 210.282L407.621 208.832L404.531 211.922L405.981 213.672C405.17 214.885 404.6 216.243 404.301 217.672L402.051 217.882V222.252L404.301 222.462C404.602 223.889 405.172 225.247 405.981 226.462L404.531 228.212L407.621 231.292L409.361 229.852C410.579 230.653 411.935 231.223 413.361 231.532L413.571 233.772H417.931L418.151 231.532C419.576 231.222 420.932 230.652 422.151 229.852ZM409.811 220.032C409.811 218.863 410.157 217.72 410.807 216.748C411.456 215.776 412.379 215.019 413.459 214.571C414.539 214.124 415.727 214.007 416.874 214.235C418.02 214.463 419.073 215.026 419.9 215.853C420.726 216.679 421.289 217.732 421.517 218.879C421.745 220.025 421.628 221.213 421.181 222.293C420.734 223.373 419.976 224.296 419.004 224.946C418.032 225.595 416.89 225.942 415.721 225.942C414.153 225.942 412.65 225.319 411.542 224.211C410.433 223.102 409.811 221.599 409.811 220.032Z" fill="#EBEBEB"/>
<path d="M302.219 324.572L304.979 326.852L309.859 321.972L307.579 319.212C308.856 317.271 309.755 315.106 310.229 312.832L313.779 312.502V305.602L310.229 305.262C309.753 302.991 308.854 300.831 307.579 298.892L309.859 296.132L304.999 291.252L302.239 293.532C300.301 292.257 298.14 291.358 295.869 290.882L295.529 287.332H288.629L288.299 290.882C286.025 291.356 283.861 292.255 281.919 293.532L279.159 291.252L274.279 296.132L276.559 298.892C275.285 300.831 274.386 302.991 273.909 305.262L270.359 305.602V312.502L273.909 312.832C274.384 315.106 275.283 317.271 276.559 319.212L274.279 321.972L279.159 326.852L281.919 324.572C283.861 325.849 286.025 326.748 288.299 327.222L288.629 330.772H295.529L295.869 327.222C298.133 326.743 300.287 325.844 302.219 324.572ZM282.719 309.052C282.717 307.202 283.264 305.393 284.291 303.854C285.318 302.315 286.778 301.115 288.487 300.406C290.196 299.697 292.076 299.511 293.891 299.871C295.706 300.232 297.373 301.122 298.681 302.431C299.989 303.739 300.88 305.406 301.24 307.22C301.601 309.035 301.415 310.916 300.706 312.625C299.997 314.334 298.797 315.794 297.258 316.82C295.719 317.847 293.909 318.394 292.059 318.392C289.583 318.389 287.209 317.405 285.458 315.654C283.707 313.902 282.722 311.528 282.719 309.052Z" fill="#F0F0F0"/>
<path d="M249.999 373.285C357.082 373.285 443.889 368.216 443.889 361.965C443.889 355.713 357.082 350.645 249.999 350.645C142.917 350.645 56.1094 355.713 56.1094 361.965C56.1094 368.216 142.917 373.285 249.999 373.285Z" fill="#F5F5F5"/>
<path d="M140.881 139.155C108.541 144.725 83.2807 154.725 84.4407 161.515L84.9907 164.655C86.1507 171.405 113.321 172.355 145.651 166.755C177.981 161.155 203.261 151.155 202.091 144.405L201.551 141.265C200.381 134.505 173.221 133.565 140.881 139.155Z" fill="#2B3C8E"/>
<path opacity="0.2" d="M145.651 166.751C177.988 161.16 203.256 151.152 202.088 144.398C200.92 137.645 173.759 136.703 141.422 142.294C109.085 147.885 83.8178 157.893 84.9855 164.647C86.1533 171.4 113.314 172.342 145.651 166.751Z" fill="white"/>
<path d="M142.581 148.973C113.581 153.973 91.0008 162.973 92.0508 168.973L92.9508 174.203C93.9508 180.253 118.321 181.093 147.271 176.083C176.221 171.073 198.851 162.083 197.801 156.083L196.901 150.863C195.851 144.813 171.531 143.963 142.581 148.973Z" fill="#2B3C8E"/>
<path opacity="0.2" d="M147.263 176.104C176.215 171.098 198.837 162.139 197.792 156.092C196.746 150.046 172.429 149.203 143.477 154.209C114.525 159.215 91.9022 168.175 92.9476 174.221C93.9931 180.267 118.311 181.11 147.263 176.104Z" fill="white"/>
<path d="M172.811 228.364C171.552 227.704 170.463 226.764 169.626 225.616C168.789 224.468 168.227 223.143 167.984 221.743C167.742 220.343 167.825 218.906 168.226 217.543C168.628 216.18 169.338 214.928 170.301 213.884C182.031 201.114 196.231 180.784 192.631 159.884C191.851 155.414 170.291 155.404 144.471 159.884C118.651 164.364 98.341 171.604 99.111 176.074C102.721 196.944 122.921 211.324 138.261 219.414C139.52 220.073 140.609 221.013 141.446 222.161C142.283 223.309 142.845 224.635 143.088 226.034C143.33 227.434 143.248 228.871 142.846 230.234C142.444 231.597 141.734 232.849 140.771 233.894C129.031 246.654 114.831 266.984 118.441 287.894C119.221 292.374 140.781 292.384 166.601 287.894C192.421 283.404 212.731 276.174 212.001 271.724C208.351 250.824 188.141 236.444 172.811 228.364Z" fill="#2B3C8E"/>
<path opacity="0.8" d="M172.811 228.364C171.552 227.704 170.463 226.764 169.626 225.616C168.789 224.468 168.227 223.143 167.984 221.743C167.742 220.343 167.825 218.906 168.226 217.543C168.628 216.18 169.338 214.928 170.301 213.884C182.031 201.114 196.231 180.784 192.631 159.884C191.851 155.414 170.291 155.404 144.471 159.884C118.651 164.364 98.341 171.604 99.111 176.074C102.721 196.944 122.921 211.324 138.261 219.414C139.52 220.073 140.609 221.013 141.446 222.161C142.283 223.309 142.845 224.635 143.088 226.034C143.33 227.434 143.248 228.871 142.846 230.234C142.444 231.597 141.734 232.849 140.771 233.894C129.031 246.654 114.831 266.984 118.441 287.894C119.221 292.374 140.781 292.384 166.601 287.894C192.421 283.404 212.731 276.174 212.001 271.724C208.351 250.824 188.141 236.444 172.811 228.364Z" fill="white"/>
<path d="M209.662 272.894C210.122 277.584 126.942 293.774 121.412 286.584C120.853 285.784 120.504 284.857 120.395 283.888C120.287 282.918 120.423 281.937 120.792 281.034C121.358 279.371 122.196 277.813 123.272 276.424C125.842 272.944 131.512 271.424 135.352 270.024C137.942 269.074 140.552 268.204 143.162 267.304C145.962 266.304 148.842 267.004 151.272 264.874C152.732 263.604 153.822 261.714 155.692 261.254C157.082 260.914 158.572 261.464 159.942 261.094C161.722 260.614 162.992 258.694 164.832 258.664C165.745 258.774 166.641 258.992 167.502 259.314C169.102 259.654 170.742 259.124 172.382 258.974C173.997 258.901 175.615 259.018 177.202 259.324C182.163 260.272 187.17 260.963 192.202 261.394C195.912 261.594 200.022 261.504 203.642 262.524C205.224 263.117 206.533 264.27 207.322 265.764C208.612 267.942 209.41 270.375 209.662 272.894Z" fill="#263238"/>
<path opacity="0.2" d="M207.351 265.723C205.051 263.643 200.801 263.783 199.581 263.873C198.361 263.963 197.931 262.923 197.011 262.583C196.091 262.243 190.651 262.943 190.651 262.943C190.651 262.943 192.651 263.333 193.071 263.993C193.491 264.653 195.771 263.893 196.071 263.803C195.761 263.983 192.981 265.443 191.671 264.563C190.361 263.683 189.821 265.323 188.781 265.743C187.741 266.163 184.461 265.743 183.931 265.573C182.366 265.484 180.797 265.484 179.231 265.573C180.042 265.05 180.956 264.709 181.911 264.573C182.791 264.673 186.301 262.823 185.581 262.953C184.861 263.083 183.221 262.123 181.941 261.723C180.388 261.611 178.827 261.712 177.301 262.023C178.855 261.999 180.403 262.215 181.891 262.663C180.87 262.907 179.867 263.224 178.891 263.613C177.998 263.901 177.069 264.059 176.131 264.083C175.377 264.358 174.726 264.861 174.271 265.523C173.128 265.794 171.969 265.995 170.801 266.123C169.649 266.225 168.488 266.089 167.391 265.723L170.551 264.723L169.471 264.413C168.729 264.166 167.966 263.989 167.191 263.883C165.921 263.673 165.381 264.883 165.071 265.173C164.761 265.463 161.981 265.173 161.201 264.983C160.421 264.793 154.651 267.133 154.651 267.133L158.261 266.513C159.197 266.911 160.196 267.145 161.211 267.203C163.621 267.523 163.971 266.723 164.981 266.793C166.452 267.047 167.907 267.381 169.341 267.793L168.041 268.143C166.893 268.303 165.729 268.303 164.581 268.143C162.581 267.873 161.501 268.923 160.901 269.033C159.358 269.38 157.79 269.607 156.211 269.713C155.561 269.573 153.851 270.373 152.911 271.333C152.377 271.866 151.705 272.241 150.972 272.417C150.238 272.594 149.47 272.564 148.751 272.333C146.931 271.863 143.861 274.083 143.861 274.083C143.861 274.083 145.471 271.953 146.311 271.803C147.616 271.293 148.871 270.663 150.061 269.923C149.612 269.918 149.163 269.954 148.721 270.033C148.273 270.07 147.822 270.017 147.395 269.878C146.967 269.739 146.572 269.516 146.231 269.223C145.231 268.533 144.231 269.073 142.761 269.823C141.291 270.573 139.711 271.463 138.161 270.373C136.611 269.283 131.861 273.313 131.861 273.313C132.943 273.052 133.997 272.69 135.011 272.233C135.451 271.873 135.761 272.233 137.161 272.523C138.561 272.813 139.021 271.833 139.711 271.463C140.401 271.093 142.471 271.713 142.471 271.713C141.982 271.945 141.441 272.045 140.901 272.003C140.141 271.883 138.901 274.073 138.501 273.833C136.94 273.723 135.375 273.994 133.941 274.623C132.691 275.273 130.851 277.443 129.001 276.773C127.431 276.203 123.891 281.013 120.781 281.073C121.347 279.41 122.185 277.852 123.261 276.463C125.831 272.983 131.501 271.463 135.341 270.063C137.931 269.113 140.541 268.243 143.151 267.343C145.951 266.343 148.831 267.043 151.261 264.913C152.721 263.643 153.811 261.753 155.681 261.293C157.071 260.953 158.561 261.503 159.931 261.133C161.711 260.653 162.981 258.733 164.821 258.703C165.734 258.813 166.63 259.031 167.491 259.353C169.091 259.693 170.731 259.163 172.371 259.013C173.986 258.94 175.604 259.057 177.191 259.363C182.152 260.311 187.159 261.002 192.191 261.433C195.901 261.633 200.011 261.543 203.631 262.563C205.215 263.128 206.538 264.252 207.351 265.723Z" fill="white"/>
<path d="M163.801 271.725C134.801 276.725 112.221 285.725 113.261 291.725L114.171 296.955C115.171 302.955 139.531 303.845 168.491 298.835C197.451 293.825 220.071 284.835 219.021 278.835L218.121 273.615C217.071 267.515 192.751 266.665 163.801 271.725Z" fill="#2B3C8E"/>
<path d="M165.41 281.026C133.08 286.616 107.81 296.626 108.98 303.386L109.52 306.516C110.69 313.276 137.85 314.216 170.19 308.626C202.53 303.036 227.79 293.026 226.62 286.266L226.08 283.136C224.91 276.376 197.75 275.436 165.41 281.026Z" fill="#2B3C8E"/>
<path opacity="0.2" d="M115.699 310.723C116.019 310.813 116.359 310.893 116.699 310.973C116.374 310.861 116.039 310.778 115.699 310.723Z" fill="white"/>
<path opacity="0.2" d="M165.41 281.026C133.08 286.616 107.81 296.626 108.98 303.386L109.52 306.516C108.35 299.726 133.62 289.726 166 284.166C198.38 278.606 225.49 279.516 226.66 286.266L226.12 283.136C224.91 276.376 197.75 275.436 165.41 281.026Z" fill="white"/>
<path d="M160.469 220.003C159.839 225.003 158.009 232.573 157.189 237.623C156.369 242.673 158.829 250.503 159.559 252.873C160.289 255.243 165.219 254.873 165.019 256.763C164.819 258.653 172.379 258.973 172.379 258.973C172.379 258.973 136.959 272.973 133.379 272.083C129.799 271.193 140.019 264.203 141.979 263.743C143.939 263.283 144.979 262.073 146.299 259.273C147.619 256.473 148.979 256.973 150.359 254.163C151.589 252.065 152.698 249.898 153.679 247.673C155.249 243.773 156.609 231.783 154.959 230.773C153.309 229.763 154.809 239.963 153.389 240.303C151.969 240.643 155.239 230.223 150.929 224.963C146.619 219.703 160.469 220.003 160.469 220.003Z" fill="#263238"/>
<path opacity="0.2" d="M172.371 258.974C172.371 258.974 136.961 272.974 133.371 272.084C130.101 271.274 138.461 265.284 141.371 263.974C141.561 266.034 147.111 263.924 149.311 262.704C151.511 261.484 151.681 262.374 152.491 262.014C153.301 261.654 159.441 257.074 158.801 257.264C158.161 257.454 153.591 260.824 152.491 259.724C151.391 258.624 149.571 260.724 148.211 261.364C147.031 261.934 146.731 261.244 145.751 260.364C145.941 260.014 146.121 259.634 146.311 259.234C147.601 256.434 148.981 256.934 150.311 254.124C151.568 252.06 152.7 249.923 153.701 247.724C155.281 243.824 156.641 231.834 155.001 230.824C153.361 229.814 154.841 240.014 153.431 240.344C152.021 240.674 155.261 230.274 150.961 225.014C146.661 219.754 160.471 220.014 160.471 220.014C159.841 225.014 158.011 232.584 157.191 237.634C156.651 240.944 157.521 245.444 158.391 248.824C158.161 249.644 157.841 250.394 157.461 250.514C156.551 250.784 155.911 253.894 154.721 253.984C153.531 254.074 154.531 256.264 156.181 255.354C157.271 254.754 158.991 254.354 160.181 253.834C161.721 255.204 165.181 255.184 165.001 256.774C164.831 258.664 172.371 258.974 172.371 258.974Z" fill="white"/>
<path d="M179.68 197.145L179.26 197.835C177.874 200.302 176.366 202.698 174.74 205.015C173.161 207.478 171.342 209.779 169.31 211.885C167.39 213.735 165.43 214.605 164.31 216.815C164.025 217.363 163.807 217.944 163.66 218.545C163.24 220.215 163.11 222.225 161.66 223.165C161.312 223.342 160.977 223.546 160.66 223.775C159.93 224.405 159.97 225.505 159.78 226.445C159.59 227.385 158.68 228.445 157.78 227.985C156.88 227.525 156.84 226.375 156.03 226.415C155.828 226.458 155.63 226.522 155.44 226.605C154.62 226.815 153.86 226.175 153.23 225.605C152.6 225.035 151.7 224.515 150.98 224.955C148.8 222.954 146.406 221.2 143.84 219.725C141.76 218.465 139.6 217.335 137.33 216.115C132.33 213.395 126.53 210.715 123.03 207.955C121.894 207.128 120.944 206.072 120.24 204.855C120.035 204.451 119.9 204.014 119.84 203.565C119.26 198.625 134.55 197.155 139.84 193.475C145.13 189.795 153.39 192.155 156.84 191.385C160.29 190.615 164.22 191.705 167.89 191.435C171.56 191.165 173.82 190.105 175.96 191.665C178.1 193.225 180.47 192.755 180.96 193.945C181.2 194.725 180.3 196.165 179.68 197.145Z" fill="#263238"/>
<path opacity="0.2" d="M174.999 195.585C171.839 194.975 178.289 194.855 177.799 194.485C177.309 194.115 175.729 192.915 172.209 193.035C168.689 193.155 165.749 192.915 164.999 193.035C164.249 193.155 167.449 194.125 167.449 194.125H159.199C156.519 194.125 161.029 193.035 161.029 193.035H147.139C147.509 193.035 150.189 194.615 148.599 194.615C147.009 194.615 145.309 195.465 143.119 196.315C141.381 197.018 139.593 197.59 137.769 198.025C137.409 198.025 142.769 194.025 143.099 193.765C142.769 193.905 138.299 195.765 136.429 196.315C134.559 196.865 129.429 198.635 128.989 198.755C129.924 198.816 130.863 198.816 131.799 198.755C131.799 198.755 128.019 200.705 126.079 200.945C124.619 201.125 121.079 202.325 120.219 204.865C120.922 206.082 121.872 207.138 123.009 207.965C126.509 210.725 132.289 213.405 137.309 216.125C139.579 217.345 141.739 218.475 143.819 219.735C146.384 221.21 148.779 222.964 150.959 224.965C151.679 224.525 152.589 225.065 153.209 225.615C153.829 226.165 154.599 226.815 155.419 226.615C155.609 226.532 155.806 226.468 156.009 226.425C156.819 226.425 157.009 227.625 157.759 227.995C158.509 228.365 159.509 227.395 159.759 226.455C160.009 225.515 159.909 224.455 160.639 223.785C160.956 223.556 161.29 223.352 161.639 223.175C163.099 222.235 163.229 220.225 163.639 218.555C163.785 217.954 164.004 217.373 164.289 216.825C165.439 214.615 167.399 213.745 169.289 211.895C171.32 209.789 173.139 207.488 174.719 205.025C176.344 202.708 177.853 200.312 179.239 197.845C178.139 195.935 178.189 196.195 174.999 195.585ZM129.769 208.495C128.709 208.375 132.139 207.305 132.139 207.305C131.891 207.697 131.542 208.014 131.128 208.224C130.714 208.433 130.251 208.527 129.789 208.495H129.769ZM130.409 204.385C130.409 204.385 132.139 203.015 132.869 203.105C133.571 203.153 134.276 203.153 134.979 203.105C134.979 203.105 132.259 204.935 130.429 204.385H130.409ZM144.199 215.075C142.949 214.835 145.519 214.075 146.139 214.245C146.759 214.415 145.679 215.345 144.219 215.075H144.199ZM150.369 201.075C150.369 201.075 145.069 202.635 146.139 202.635H148.139C147.769 202.635 142.289 203.825 142.019 203.775C143.059 203.083 144.149 202.468 145.279 201.935C145.279 201.935 144.889 201.445 144.909 201.265C144.929 201.085 146.149 200.715 146.149 200.715C146.579 200.345 148.499 199.805 149.229 200.255C150.074 200.578 150.974 200.734 151.879 200.715L150.369 201.075ZM152.599 211.945C151.119 210.595 155.509 211.945 155.509 211.945C155.509 211.945 153.619 212.875 152.619 211.965L152.599 211.945ZM154.999 197.445C156.999 196.075 157.499 197.445 157.499 197.445C157.499 197.445 154.349 197.885 154.999 197.445ZM161.929 202.745L160.389 201.955C161.032 201.566 161.746 201.308 162.489 201.195C163.488 201.153 164.475 201.419 165.319 201.955C165.859 202.285 162.459 203.015 161.919 202.725L161.929 202.745ZM165.869 209.465C165.869 209.465 163.409 209.405 163.169 209.465C164.046 209.087 164.948 208.77 165.869 208.515V209.465ZM169.689 199.575C169.689 199.575 171.439 199.195 172.259 200.105C173.359 201.325 169.679 199.575 169.679 199.575H169.689Z" fill="white"/>
<path d="M319.54 340.605L327.6 343.035H371.67L372.67 325.375L364.12 321.725C364.12 321.725 365.71 308.075 368.26 293.445L374.11 293.265L386.53 244.265L379.47 241.215L384.58 224.985H392.25L400.43 202.225C400.43 202.225 371 190.515 353.52 188.965L337.82 191.595L336.73 212.035L323.94 213.725L321.43 235.725L330.52 237.285L324.67 284.085L311.54 287.775L309.25 320.005L320.68 322.355L319.54 340.605Z" fill="#2B3C8E"/>
<path opacity="0.6" d="M384.59 224.993L379.47 241.223L386.53 244.273L374.1 293.273L368.26 293.453C365.7 308.083 364.12 321.733 364.12 321.733L372.65 325.383L371.65 343.053H327.59L319.53 340.623L320.69 322.393L309.25 320.053L311.48 288.613L311.54 287.823L324.68 284.133L330.52 237.333L321.43 235.723L324 213.723L336.78 212.033L337.88 191.593L353.57 188.953C371.09 190.513 400.48 202.223 400.48 202.223L392.3 224.993H384.59Z" fill="white"/>
<path opacity="0.4" d="M372.651 325.365L329.051 326.585L320.691 322.375L330.271 324.155L364.121 321.715L372.651 325.365Z" fill="white"/>
<path opacity="0.4" d="M368.26 293.433L336.73 293.533L311.48 288.593L311.54 287.803L324.68 284.113L338.56 292.433L368.26 293.433Z" fill="white"/>
<path opacity="0.2" d="M379.47 241.225L340.57 237.415L330.52 237.315L321.43 235.755L340.01 233.625L379.47 241.225Z" fill="black"/>
<path opacity="0.2" d="M392.25 224.991H384.58L353.89 210.971L336.73 212.031L354.83 209.691L392.25 224.991Z" fill="black"/>
<path opacity="0.2" d="M353.52 188.953L354.83 209.693L336.73 212.033L337.82 191.603L353.52 188.953Z" fill="white"/>
<path opacity="0.2" d="M340.01 233.621L345.01 212.031L323.95 213.721L321.43 235.751L340.01 233.621Z" fill="white"/>
<path opacity="0.2" d="M330.52 237.312L349.57 238.293L338.56 292.432L324.68 284.113L330.52 237.312Z" fill="white"/>
<path opacity="0.2" d="M311.48 288.594L336.73 293.534L331.63 324.054L309.25 320.034L311.48 288.594Z" fill="white"/>
<path opacity="0.2" d="M329.051 326.583L327.591 343.033L319.531 340.603L320.691 322.383L329.051 326.583Z" fill="white"/>
<path d="M313.402 295.414L335.572 300.464L361.692 299.314L336.732 304.914L313.402 295.414Z" fill="#2B3C8E"/>
<path d="M320.35 327.691L328.51 332.701H348.23L324.29 334.621L316.27 329.141L320.35 327.691Z" fill="#2B3C8E"/>
<path d="M337.133 337.582H371.983L376.003 340.602L337.133 337.582Z" fill="#2B3C8E"/>
<path d="M329.971 308.503L310.451 303.043L306.961 304.913L329.971 308.503Z" fill="#2B3C8E"/>
<path d="M335.812 316.174L365.152 313.664L368.263 314.914L335.812 316.174Z" fill="#2B3C8E"/>
<path d="M345.012 284.113L376.712 282.973L379.472 285.303L345.012 284.113Z" fill="#2B3C8E"/>
<path d="M368.261 277.454L342.211 274.494L326.131 268.504H320.691L339.871 276.544L368.261 277.454Z" fill="#2B3C8E"/>
<path d="M332.25 254.074L345.4 258.804L386.41 262.114L382.71 259.364L345.01 256.994L332.25 254.074Z" fill="#2B3C8E"/>
<path d="M336.731 226.684L318.461 227.594L322.991 229.784L336.731 226.684Z" fill="#2B3C8E"/>
<path d="M329.051 219.194L342.941 217.344L378.741 229.784L342.751 220.474L329.051 219.194Z" fill="#2B3C8E"/>
<path d="M373.443 212.032L352.073 200.492L330.883 207.132L337.133 208.812L354.833 206.262L373.443 212.032Z" fill="#2B3C8E"/>
<path d="M366.859 204.031L399.009 217.341H394.999L366.859 204.031Z" fill="#2B3C8E"/>
<path d="M356.641 193.984L372.711 195.814L397.711 209.694C397.711 209.694 365.401 195.634 356.641 193.984Z" fill="#2B3C8E"/>
<path d="M329.6 243.305L337.54 245.305L326.32 244.305L329.6 243.305Z" fill="#2B3C8E"/>
<path opacity="0.7" d="M313.402 295.414L335.572 300.464L361.692 299.314L336.732 304.914L313.402 295.414Z" fill="white"/>
<path opacity="0.7" d="M320.35 327.691L328.51 332.701H348.23L324.29 334.621L316.27 329.141L320.35 327.691Z" fill="white"/>
<path opacity="0.7" d="M337.133 337.582H371.983L376.003 340.602L337.133 337.582Z" fill="white"/>
<path opacity="0.7" d="M329.971 308.503L310.451 303.043L306.961 304.913L329.971 308.503Z" fill="white"/>
<path opacity="0.7" d="M335.812 316.174L365.152 313.664L368.263 314.914L335.812 316.174Z" fill="white"/>
<path opacity="0.7" d="M345.012 284.113L376.712 282.973L379.472 285.303L345.012 284.113Z" fill="white"/>
<path opacity="0.7" d="M368.261 277.454L342.211 274.494L326.131 268.504H320.691L339.871 276.544L368.261 277.454Z" fill="white"/>
<path opacity="0.7" d="M332.25 254.074L345.4 258.804L386.41 262.114L382.71 259.364L345.01 256.994L332.25 254.074Z" fill="white"/>
<path opacity="0.7" d="M336.731 226.684L318.461 227.594L322.991 229.784L336.731 226.684Z" fill="white"/>
<path opacity="0.7" d="M329.051 219.194L342.941 217.344L378.741 229.784L342.751 220.474L329.051 219.194Z" fill="white"/>
<path opacity="0.7" d="M373.443 212.032L352.073 200.492L330.883 207.132L337.133 208.812L354.833 206.262L373.443 212.032Z" fill="white"/>
<path opacity="0.7" d="M366.859 204.031L399.009 217.341H394.999L366.859 204.031Z" fill="white"/>
<path opacity="0.7" d="M356.641 193.984L372.711 195.814L397.711 209.694C397.711 209.694 365.401 195.634 356.641 193.984Z" fill="white"/>
<path opacity="0.7" d="M329.6 243.305L337.54 245.305L326.32 244.305L329.6 243.305Z" fill="white"/>
<path opacity="0.1" d="M335.812 248.414L346.673 251.154L377.193 254.074L346.673 252.584L335.812 248.414Z" fill="black"/>
<path opacity="0.1" d="M332.25 240.375L349.57 241.225L382.02 246.775L348.56 243.305L332.25 240.375Z" fill="black"/>
<path opacity="0.1" d="M327.602 230.695L341.192 228.555L375.632 236.545L340.902 229.785L327.602 230.695Z" fill="black"/>
<path opacity="0.1" d="M330.883 223.893L342.343 223.562L377.193 232.543L342.013 224.992L330.883 223.893Z" fill="black"/>
<path opacity="0.1" d="M323.531 217.342L340.931 215.352L323.531 218.642V217.342Z" fill="black"/>
<path opacity="0.1" d="M322.992 222.094H329.052L322.992 223.564V222.094Z" fill="black"/>
<path opacity="0.1" d="M337.539 196.804L353.839 193.984L375.629 201.844L354.039 195.814L337.539 197.914V196.804Z" fill="black"/>
<path opacity="0.1" d="M393.731 220.862L368.871 213.102L393.031 222.822L393.731 220.862Z" fill="black"/>
<path opacity="0.1" d="M350.449 198.734L354.089 197.914L393.729 210.684L354.259 199.224L350.449 198.734Z" fill="black"/>
<path opacity="0.1" d="M399.783 204.033L385.562 198.973L399.013 205.313L399.783 204.033Z" fill="black"/>
<path opacity="0.1" d="M329.051 259.734L344.261 264.384L378.741 267.164L343.941 265.994L329.051 259.734Z" fill="black"/>
<path opacity="0.1" d="M325.77 274.102L341.08 280.012L375.63 280.802H340.92L325.77 274.102Z" fill="black"/>
<path opacity="0.1" d="M369.362 290.053L339.872 286.773L327.602 281.773L339.342 288.593L369.362 290.053Z" fill="black"/>
<path opacity="0.1" d="M379.62 271.522C379.34 271.422 355.84 270.812 355.84 270.812L379.25 272.983L379.62 271.522Z" fill="black"/>
<path opacity="0.1" d="M311.039 290.914L336.249 296.414H353.889L336.059 297.494L311.479 292.434L311.039 290.914Z" fill="black"/>
<path opacity="0.1" d="M366.6 303.582C366.6 303.632 342.09 306.322 342.09 306.322L366.39 304.952L366.6 303.582Z" fill="black"/>
<path opacity="0.1" d="M316.271 301.865C315.941 301.705 331.491 304.955 331.491 304.955C331.491 304.955 321.811 304.635 316.271 301.865Z" fill="black"/>
<path opacity="0.1" d="M310.07 308.504L331.49 313.664L310.07 310.154V308.504Z" fill="black"/>
<path opacity="0.1" d="M314.082 316.172L332.252 320.312L359.332 319.762L332.252 321.712L314.082 316.172Z" fill="black"/>
<path opacity="0.1" d="M338.68 311.082H357.67L342.08 311.852L338.68 311.082Z" fill="black"/>
<path opacity="0.1" d="M323 326.582L328.84 329.132C328.84 329.132 359.9 328.882 359.34 329.132C358.78 329.382 328.72 330.482 328.72 330.482L323 326.582Z" fill="black"/>
<path opacity="0.1" d="M368.263 334.625C368.263 334.625 339.263 335.355 339.873 335.355H363.873L368.263 334.625Z" fill="black"/>
<path opacity="0.1" d="M372.653 328.534C372.653 328.534 367.893 328.054 368.263 328.534C368.633 329.014 372.413 329.644 372.413 329.644L372.653 328.534Z" fill="black"/>
<path opacity="0.1" d="M322.992 337.582L327.992 338.622L354.842 340.602L327.872 339.962L322.992 337.582Z" fill="black"/>
<path d="M271.51 129.24C277.95 132.1 290.07 131.71 294.72 121.52C299.37 111.33 299.04 102.59 288.52 97.6903C278 92.7903 264.74 99.0402 263.61 108.31C262.48 117.58 261.35 124.72 271.51 129.24Z" fill="#263238"/>
<path d="M147.461 324.331C148.154 323.354 148.662 322.26 148.961 321.101C148.961 321.101 152.131 317.481 162.191 315.201L163.081 310.671C163.225 309.896 163.125 309.095 162.795 308.379C162.466 307.663 161.923 307.066 161.241 306.671C161.051 306.56 160.846 306.479 160.631 306.431C159.529 306.266 158.416 306.176 157.301 306.161C153.568 306.148 149.838 306.362 146.131 306.801L146.181 307.601L153.181 307.481C155.571 307.481 152.891 309.481 150.361 310.131C147.831 310.781 145.171 312.131 145.361 317.321C145.671 323.461 146.061 325.971 147.461 324.331Z" fill="#2E353A"/>
<path d="M164.792 314.843C164.792 314.843 151.872 318.273 148.962 321.103C148.962 321.103 147.182 316.233 153.842 312.773C162.462 308.303 160.632 306.473 160.632 306.473C161.904 306.834 163.139 307.312 164.322 307.903C166.582 309.243 164.792 314.843 164.792 314.843Z" fill="#E4897B"/>
<path d="M348.282 355.521C347.082 355.501 345.889 355.701 344.762 356.111C344.762 356.111 339.992 355.551 332.412 348.531L328.182 350.371C327.477 350.697 326.89 351.232 326.5 351.902C326.11 352.573 325.936 353.348 326.002 354.121C326.01 354.34 326.054 354.556 326.132 354.761C326.624 355.764 327.182 356.732 327.802 357.661C329.901 360.747 332.185 363.702 334.642 366.511L335.282 366.021L331.202 360.281C329.832 358.331 332.992 359.411 334.982 361.111C336.972 362.811 339.532 364.281 343.732 361.161C348.572 357.501 350.422 355.721 348.282 355.521Z" fill="#2E353A"/>
<path d="M330.652 346.602C330.652 346.602 340.782 355.322 344.762 356.112C344.762 356.112 341.762 360.332 335.142 356.792C326.582 352.212 326.092 354.792 326.092 354.792C325.673 353.536 325.371 352.243 325.192 350.932C325.002 348.282 330.652 346.602 330.652 346.602Z" fill="#E4897B"/>
<path d="M286.072 144.832C289.372 147.082 294.802 167.942 296.442 169.282C298.082 170.622 310.212 164.112 310.212 164.112L312.862 170.012C312.862 170.012 294.542 181.222 292.022 179.112C289.502 177.002 281.262 154.432 281.262 154.432L286.072 144.832Z" fill="#263238"/>
<path opacity="0.2" d="M286.072 144.832C289.372 147.082 294.802 167.942 296.442 169.282C298.082 170.622 310.212 164.112 310.212 164.112L312.862 170.012C312.862 170.012 294.542 181.222 292.022 179.112C289.502 177.002 281.262 154.432 281.262 154.432L286.072 144.832Z" fill="white"/>
<path d="M218.762 164.851L231.232 177.461C231.232 177.461 269.332 190.461 278.832 176.651C278.832 176.651 274.692 155.911 264.012 152.361C253.332 148.811 218.762 164.851 218.762 164.851Z" fill="#263238"/>
<path opacity="0.1" d="M218.762 164.851L231.232 177.461C231.232 177.461 269.332 190.461 278.832 176.651C278.832 176.651 274.692 155.911 264.012 152.361C253.332 148.811 218.762 164.851 218.762 164.851Z" fill="white"/>
<path d="M309.543 169.57L317.093 165.46L320.653 157C322.136 157.506 323.588 158.097 325.003 158.77C325.503 159.16 323.403 166.15 322.873 166.59C322.343 167.03 319.343 167.38 319.343 167.38L312.153 171.93L309.543 169.57Z" fill="#E4897B"/>
<path d="M243.27 133.942C243.27 133.942 268 133.372 286.07 144.832C283.988 158.971 280.273 172.82 275 186.102L238.74 180.102C238.74 180.102 242.62 169.772 238.32 149.102L243.27 133.942Z" fill="#2B3C8E"/>
<path opacity="0.6" d="M243.27 133.942C243.27 133.942 268 133.372 286.07 144.832C283.988 158.971 280.273 172.82 275 186.102L238.74 180.102C238.74 180.102 242.62 169.772 238.32 149.102L243.27 133.942Z" fill="white"/>
<path d="M254.001 132.812C259.001 154.052 237.001 173.063 220.211 173.293L215.871 164.083L233.781 156.613L243.311 133.943L254.001 132.812Z" fill="#263238"/>
<path d="M278.492 140.191C278.492 140.191 275.122 169.891 278.832 176.651C278.832 176.651 285.162 165.061 286.592 145.321C284.148 143.237 281.421 141.51 278.492 140.191Z" fill="#263238"/>
<path opacity="0.3" d="M254.001 132.812C259.001 154.052 237.001 173.063 220.211 173.293L215.871 164.083L233.781 156.613L243.311 133.943L254.001 132.812Z" fill="white"/>
<path opacity="0.3" d="M278.492 140.191C278.492 140.191 275.122 169.891 278.832 176.651C278.832 176.651 285.162 165.061 286.592 145.321C284.148 143.237 281.421 141.51 278.492 140.191Z" fill="white"/>
<path d="M259.5 133.1C259.5 133.1 255 130.72 247.57 135.29L252.14 138.53L248.75 142.36C248.685 149.247 247.061 156.03 244 162.2C244 162.2 252.12 153.91 254.86 144.85C257.6 135.79 256.36 133.72 259.5 133.1Z" fill="#263238"/>
<path d="M274.16 137.121C274.16 137.121 279.52 138.281 284.16 144.461L281.3 144.991L284.08 149.821L277.08 165.421C277.08 165.421 276.34 153.421 276.69 146.181C276.753 142.978 275.873 139.828 274.16 137.121Z" fill="#263238"/>
<path opacity="0.2" d="M259.5 133.1C259.5 133.1 255 130.72 247.57 135.29L252.14 138.53L248.75 142.36C248.685 149.247 247.061 156.03 244 162.2C244 162.2 252.12 153.91 254.86 144.85C257.6 135.79 256.36 133.72 259.5 133.1Z" fill="white"/>
<path opacity="0.2" d="M274.16 137.121C274.16 137.121 279.52 138.281 284.16 144.461L281.3 144.991L284.08 149.821L277.08 165.421C277.08 165.421 276.34 153.421 276.69 146.181C276.753 142.978 275.873 139.828 274.16 137.121Z" fill="white"/>
<path d="M274.832 234.913C268.782 259.853 251.322 293.053 247.912 299.483C245.252 304.543 234.702 306.243 221.912 307.723C197.242 310.583 164.012 315.113 164.012 315.113V307.333C164.012 307.333 231.112 291.523 232.202 287.913C233.722 282.803 235.512 258.503 237.112 238.053C237.302 235.773 237.482 233.543 237.652 231.393C237.932 227.853 238.192 224.563 238.412 221.723C238.932 215.213 239.252 210.993 239.252 210.993L275.052 185.723C275.052 185.723 282.392 203.723 274.832 234.913Z" fill="#263238"/>
<path opacity="0.2" d="M274.832 234.913C268.782 259.853 251.322 293.053 247.912 299.483C245.252 304.543 234.702 306.243 221.912 307.723C197.242 310.583 164.012 315.113 164.012 315.113V307.333C164.012 307.333 231.112 291.523 232.202 287.913C233.722 282.803 235.512 258.503 237.112 238.053C237.302 235.773 237.482 233.543 237.652 231.393C237.932 227.853 238.192 224.563 238.412 221.723C238.932 215.213 239.252 210.993 239.252 210.993L275.052 185.723C275.052 185.723 282.392 203.723 274.832 234.913Z" fill="black"/>
<path d="M292.003 265.772C288.623 258.372 259.503 212.242 259.503 212.242L230.883 217.082C240.113 244.152 272.973 271.802 278.543 278.982C284.113 286.162 325.493 350.162 325.493 350.162L330.583 346.562C330.583 346.562 299.163 281.432 292.003 265.772Z" fill="#263238"/>
<path d="M238.71 180.113L276.37 182.563L275.68 186.883C275.68 186.883 271.68 206.253 255.79 216.523L230.88 217.083C230.88 217.083 227.97 201.293 237.78 182.993L238.71 180.113Z" fill="#263238"/>
<path d="M251.872 181.363L239.452 180.633L238.512 183.523L251.592 184.503L251.872 181.363Z" fill="black"/>
<path d="M253.432 181.453L253.152 184.623L274.922 186.263L275.122 182.733L253.432 181.453Z" fill="black"/>
<path d="M269.001 186.879H268.931L264.931 186.649C264.621 186.629 264.33 186.489 264.121 186.259C264.018 186.144 263.94 186.01 263.89 185.864C263.84 185.718 263.82 185.563 263.831 185.409L264.001 182.719C264.01 182.566 264.049 182.415 264.116 182.277C264.183 182.138 264.277 182.014 264.392 181.912C264.508 181.81 264.642 181.731 264.788 181.681C264.933 181.631 265.087 181.61 265.241 181.619L269.241 181.859C269.395 181.865 269.547 181.902 269.687 181.97C269.826 182.037 269.95 182.132 270.051 182.249C270.154 182.364 270.233 182.499 270.283 182.645C270.333 182.791 270.353 182.945 270.341 183.099L270.191 185.749C270.169 186.047 270.036 186.325 269.82 186.53C269.604 186.735 269.319 186.853 269.021 186.859L269.001 186.879ZM265.181 182.639C265.137 182.639 265.096 182.656 265.064 182.686C265.032 182.715 265.013 182.756 265.011 182.799L264.851 185.459C264.855 185.504 264.874 185.546 264.905 185.579C264.936 185.612 264.976 185.633 265.021 185.639L269.021 185.879C269.064 185.875 269.105 185.856 269.136 185.825C269.167 185.794 269.186 185.753 269.191 185.709L269.341 183.059C269.35 183.039 269.355 183.017 269.355 182.994C269.355 182.972 269.35 182.95 269.341 182.929C269.308 182.897 269.266 182.876 269.221 182.869L265.221 182.639H265.181Z" fill="white"/>
<path d="M269.641 184.911L268.131 184.821C268.065 184.817 268.001 184.8 267.942 184.772C267.883 184.743 267.83 184.703 267.786 184.654C267.743 184.604 267.709 184.547 267.688 184.485C267.666 184.423 267.657 184.357 267.661 184.291C267.665 184.226 267.682 184.161 267.711 184.102C267.739 184.043 267.78 183.99 267.829 183.946C267.878 183.903 267.935 183.869 267.997 183.848C268.06 183.826 268.125 183.817 268.191 183.821L269.691 183.911C269.757 183.915 269.821 183.932 269.88 183.961C269.939 183.989 269.992 184.029 270.036 184.079C270.08 184.128 270.113 184.185 270.135 184.247C270.156 184.31 270.165 184.376 270.161 184.441C270.159 184.506 270.143 184.571 270.115 184.63C270.088 184.689 270.048 184.742 270 184.786C269.952 184.829 269.895 184.863 269.833 184.885C269.772 184.906 269.706 184.915 269.641 184.911Z" fill="white"/>
<path d="M271 159.72L281.29 154.44C282.003 153.382 282.905 152.463 283.95 151.73C285.05 151.22 294.75 152.73 294.75 152.73L291.12 160.4C291.12 160.4 283.94 159.99 283.18 159.4L273.77 164.4L271 159.72Z" fill="#E4897B"/>
<path d="M243.271 133.941C233.801 136.401 248.031 171.121 254.271 173.091C260.511 175.061 280.521 161.581 280.521 161.581L277.081 155.801C277.081 155.801 259.591 162.801 257.991 162.031C256.391 161.261 249.931 143.811 248.781 140.691C247.631 137.571 243.271 133.941 243.271 133.941Z" fill="#263238"/>
<path opacity="0.2" d="M243.271 133.941C233.801 136.401 248.031 171.121 254.271 173.091C260.511 175.061 280.521 161.581 280.521 161.581L277.081 155.801C277.081 155.801 259.591 162.801 257.991 162.031C256.391 161.261 249.931 143.811 248.781 140.691C247.631 137.571 243.271 133.941 243.271 133.941Z" fill="white"/>
<path opacity="0.6" d="M278.751 161.58C278.731 161.668 278.679 161.745 278.605 161.795C278.53 161.846 278.439 161.865 278.351 161.85C278.307 161.842 278.265 161.825 278.227 161.8C278.19 161.776 278.158 161.744 278.132 161.706C278.107 161.669 278.09 161.628 278.081 161.584C278.072 161.54 278.072 161.494 278.081 161.45C278.088 161.406 278.104 161.363 278.128 161.325C278.153 161.286 278.184 161.254 278.222 161.228C278.26 161.203 278.302 161.186 278.346 161.177C278.391 161.169 278.437 161.17 278.481 161.18C278.568 161.2 278.645 161.252 278.696 161.326C278.746 161.401 278.766 161.492 278.751 161.58Z" fill="white"/>
<path opacity="0.6" d="M276.351 163.062C276.342 163.107 276.325 163.149 276.301 163.186C276.276 163.223 276.244 163.256 276.207 163.281C276.17 163.306 276.128 163.323 276.084 163.332C276.04 163.341 275.995 163.341 275.951 163.332C275.863 163.313 275.786 163.261 275.736 163.186C275.685 163.112 275.666 163.021 275.681 162.933C275.698 162.844 275.75 162.765 275.825 162.715C275.9 162.664 275.992 162.645 276.081 162.662C276.169 162.68 276.248 162.732 276.299 162.807C276.349 162.882 276.368 162.974 276.351 163.062Z" fill="white"/>
<path d="M328.43 143.401L315.72 176.341C315.556 176.715 315.266 177.02 314.901 177.202C314.535 177.385 314.118 177.434 313.72 177.341L290.45 171.551C290.265 171.509 290.092 171.426 289.942 171.31C289.792 171.194 289.669 171.047 289.581 170.879C289.494 170.71 289.444 170.525 289.435 170.335C289.426 170.146 289.459 169.957 289.53 169.781L302.23 136.841C302.396 136.469 302.686 136.165 303.051 135.983C303.416 135.8 303.832 135.75 304.23 135.841L327.5 141.641C327.685 141.681 327.86 141.761 328.011 141.876C328.162 141.99 328.286 142.137 328.375 142.304C328.464 142.472 328.514 142.657 328.524 142.847C328.533 143.036 328.501 143.225 328.43 143.401Z" fill="#263238"/>
<path opacity="0.3" d="M328.432 143.401L315.722 176.341C315.558 176.714 315.268 177.019 314.903 177.202C314.538 177.384 314.12 177.433 313.722 177.341L291.512 171.811C291.326 171.771 291.15 171.691 290.998 171.576C290.846 171.46 290.722 171.312 290.634 171.143C290.546 170.974 290.496 170.787 290.489 170.596C290.482 170.406 290.517 170.216 290.592 170.041L303.292 137.101C303.457 136.727 303.747 136.422 304.112 136.239C304.477 136.057 304.895 136.008 305.292 136.101L327.512 141.631C327.698 141.671 327.873 141.753 328.024 141.868C328.175 141.984 328.298 142.132 328.386 142.3C328.474 142.469 328.523 142.655 328.531 142.845C328.539 143.035 328.506 143.225 328.432 143.401Z" fill="white"/>
<path opacity="0.3" d="M310.581 154.502C310.004 154.373 309.399 154.451 308.874 154.724C308.349 154.996 307.937 155.446 307.711 155.993C307.607 156.242 307.558 156.511 307.568 156.781C307.578 157.051 307.647 157.316 307.769 157.557C307.892 157.797 308.066 158.009 308.279 158.175C308.491 158.342 308.738 158.461 309.001 158.523C309.578 158.654 310.184 158.577 310.709 158.304C311.235 158.031 311.647 157.581 311.871 157.032C311.607 156.972 311.359 156.855 311.146 156.688C310.932 156.522 310.757 156.31 310.634 156.069C310.511 155.828 310.443 155.562 310.434 155.292C310.424 155.021 310.475 154.752 310.581 154.502Z" fill="white"/>
<path d="M252.359 141.503C252.359 141.503 253.829 134.883 256.439 133.503C259.049 132.123 271.509 134.313 275.839 138.383C278.512 141.086 280.202 144.607 280.639 148.383L275.069 146.023L266.619 155.543L259.999 142.223L252.359 141.503Z" fill="#2B3C8E"/>
<path opacity="0.5" d="M252.359 141.503C252.359 141.503 253.829 134.883 256.439 133.503C259.049 132.123 271.509 134.313 275.839 138.383C278.512 141.086 280.202 144.607 280.639 148.383L275.069 146.023L266.619 155.543L259.999 142.223L252.359 141.503Z" fill="white"/>
<path d="M264.879 133.773C272.069 134.323 275.799 139.293 274.879 143.363L270.409 143.983L266.809 153.783L265.389 142.893L260.879 140.023C260.879 140.023 257.999 133.233 264.879 133.773Z" fill="#E4897B"/>
<path d="M267.53 144.49C260.67 139.08 261.47 134.84 261.47 134.84C264.84 132.98 267.08 128.96 267.89 125.84C268.155 124.857 268.335 123.853 268.43 122.84L276.38 129.84C275.426 130.962 274.554 132.152 273.77 133.4C273.182 134.312 272.709 135.293 272.36 136.32C271.36 139.32 272.87 140.32 272.87 140.32C272.67 144.27 267.53 144.49 267.53 144.49Z" fill="#E4897B"/>
<path opacity="0.2" d="M273.612 132.912C273.151 133.892 272.815 134.927 272.612 135.992C269.032 133.822 267.482 129.532 266.832 126.102C266.968 125.108 267.022 124.104 266.992 123.102L275.762 129.102C274.955 130.318 274.236 131.592 273.612 132.912Z" fill="black"/>
<path d="M286.352 106.221C294.532 110.171 295.052 115.821 291.582 124.531C287.242 135.431 281.292 141.781 272.152 134.591C259.742 124.831 272.772 99.6609 286.352 106.221Z" fill="#E4897B"/>
<path d="M286.512 121.523C286.575 123.061 286.824 124.585 287.252 126.063C286.851 126.287 286.396 126.395 285.937 126.375C285.478 126.356 285.033 126.21 284.652 125.953L286.512 121.523Z" fill="#DE5753"/>
<path d="M281.832 118.441C281.522 119.121 280.902 119.501 280.452 119.291C280.002 119.081 279.882 118.371 280.192 117.691C280.502 117.011 281.112 116.631 281.572 116.831C282.032 117.031 282.142 117.721 281.832 118.441Z" fill="#263238"/>
<path d="M281.359 116.781L283.099 116.871C283.099 116.871 281.799 117.781 281.359 116.781Z" fill="#263238"/>
<path d="M290.34 122.13C290.03 122.81 289.41 123.2 288.96 122.99C288.51 122.78 288.39 122.07 288.7 121.39C289.01 120.71 289.62 120.32 290.08 120.53C290.54 120.74 290.65 121.45 290.34 122.13Z" fill="#263238"/>
<path d="M289.871 120.48L291.611 120.57C291.611 120.57 290.311 121.48 289.871 120.48Z" fill="#263238"/>
<path d="M284.151 114C284.09 113.999 284.03 113.981 283.977 113.95C283.925 113.918 283.881 113.873 283.851 113.82C283.508 113.252 283.042 112.769 282.486 112.407C281.93 112.045 281.299 111.814 280.641 111.73C280.595 111.73 280.549 111.72 280.506 111.702C280.464 111.684 280.425 111.657 280.394 111.623C280.362 111.589 280.337 111.55 280.321 111.506C280.305 111.462 280.299 111.416 280.301 111.37C280.301 111.323 280.311 111.277 280.329 111.233C280.347 111.19 280.374 111.151 280.407 111.119C280.441 111.086 280.481 111.06 280.524 111.043C280.568 111.026 280.615 111.018 280.661 111.02C283.021 111.08 284.401 113.37 284.461 113.46C284.509 113.542 284.522 113.64 284.497 113.731C284.473 113.823 284.413 113.902 284.331 113.95C284.277 113.981 284.215 113.999 284.151 114Z" fill="#263238"/>
<path d="M294.002 116.871H293.852C293.341 116.587 292.774 116.421 292.191 116.385C291.608 116.348 291.024 116.443 290.482 116.661C290.441 116.684 290.397 116.699 290.35 116.704C290.304 116.709 290.257 116.705 290.212 116.692C290.168 116.679 290.126 116.657 290.09 116.628C290.054 116.599 290.024 116.562 290.002 116.521C289.978 116.481 289.962 116.436 289.956 116.39C289.95 116.343 289.954 116.296 289.967 116.251C289.98 116.205 290.002 116.164 290.032 116.128C290.063 116.092 290.1 116.062 290.142 116.041C290.78 115.769 291.471 115.644 292.164 115.677C292.857 115.71 293.533 115.899 294.142 116.231C294.226 116.272 294.29 116.344 294.322 116.432C294.353 116.52 294.35 116.616 294.312 116.701C294.28 116.755 294.234 116.798 294.18 116.828C294.125 116.858 294.064 116.873 294.002 116.871Z" fill="#263238"/>
<path d="M270.761 115.723C270.761 115.723 277.831 110.853 279.761 105.383C279.761 105.383 299.171 106.593 292.021 123.383C292.021 123.383 300.661 109.543 286.761 102.383C272.861 95.2232 263.001 115.913 267.271 125.543C267.271 125.543 266.361 118.723 270.761 115.723Z" fill="#263238"/>
<path d="M271.263 118.051C271.636 117.066 271.605 115.975 271.178 115.012C270.752 114.05 269.963 113.295 268.983 112.911C266.313 111.961 262.593 116.581 268.293 120.911C269.113 121.491 270.053 120.861 271.263 118.051Z" fill="#E4897B"/>
<path d="M279.392 98.1594C279.392 98.1594 285.562 96.7794 289.512 98.7394C293.462 100.699 293.732 103.639 293.732 103.639C294.646 103.474 295.586 103.53 296.474 103.803C297.361 104.076 298.17 104.559 298.832 105.209C301.292 107.479 302.742 114.009 300.132 120.999C297.522 127.989 291.432 126.999 291.432 126.999C291.432 126.999 299.372 116.629 290.912 109.889C290.912 109.889 288.142 106.569 284.912 108.579C281.682 110.589 279.382 118.979 272.272 113.519C265.162 108.059 273.262 99.7694 279.392 98.1594Z" fill="#263238"/>
<path d="M282.741 129.592C282.656 129.591 282.573 129.558 282.509 129.502C282.445 129.445 282.403 129.367 282.391 129.282C282.231 128.012 280.101 126.572 279.291 126.132C279.21 126.084 279.15 126.006 279.124 125.915C279.098 125.824 279.108 125.726 279.151 125.642C279.174 125.602 279.205 125.567 279.241 125.538C279.278 125.51 279.32 125.489 279.364 125.477C279.409 125.465 279.456 125.462 279.501 125.468C279.547 125.474 279.591 125.489 279.631 125.512C279.761 125.582 282.851 127.312 283.091 129.192C283.103 129.285 283.078 129.378 283.022 129.453C282.966 129.527 282.884 129.577 282.791 129.592H282.741Z" fill="#263238"/>
<path d="M280.003 99.4713C280.003 99.4713 275.713 85.2313 266.393 89.3313C257.073 93.4313 252.543 103.721 245.003 97.7213C237.463 91.7213 234.003 99.5013 230.343 101.871C226.683 104.241 220.203 100.681 221.933 97.7213C221.933 97.7213 217.183 101.351 225.603 105.171C234.023 108.991 238.153 101.011 240.833 104.031C243.513 107.051 253.003 113.061 258.003 108.721C259.408 107.482 261.123 106.648 262.965 106.306C264.807 105.965 266.707 106.129 268.463 106.781L280.003 99.4713Z" fill="#263238"/>
<path d="M254.813 112.721C254.167 112.719 253.527 112.601 252.923 112.371C251.123 111.657 249.364 110.846 247.653 109.941C243.933 108.061 240.413 106.281 238.453 107.831C238.406 107.876 238.344 107.902 238.278 107.902C238.213 107.902 238.15 107.876 238.103 107.831C238.079 107.808 238.06 107.781 238.047 107.751C238.034 107.721 238.027 107.688 238.027 107.656C238.027 107.623 238.034 107.59 238.047 107.56C238.06 107.53 238.079 107.503 238.103 107.481C240.313 105.741 243.973 107.591 247.833 109.541C249.532 110.441 251.277 111.249 253.063 111.961C256.323 113.171 259.423 110.561 262.163 108.251C264.163 106.591 265.983 105.031 267.723 104.981C267.756 104.979 267.789 104.984 267.82 104.996C267.85 105.007 267.879 105.024 267.903 105.047C267.927 105.069 267.947 105.096 267.96 105.126C267.974 105.156 267.982 105.188 267.983 105.221C267.983 105.288 267.957 105.353 267.911 105.401C267.864 105.45 267.8 105.478 267.733 105.481C266.173 105.531 264.383 107.031 262.493 108.631C260.203 110.501 257.613 112.721 254.813 112.721Z" fill="#263238"/>
<path d="M228.501 100.213C227.869 100.212 227.255 100.005 226.751 99.6232C226.723 99.6052 226.699 99.5815 226.681 99.5536C226.662 99.5258 226.65 99.4944 226.644 99.4614C226.638 99.4285 226.64 99.3947 226.648 99.3623C226.656 99.3299 226.671 99.2995 226.691 99.2732C226.73 99.2214 226.786 99.1862 226.849 99.1751C226.913 99.1639 226.978 99.1775 227.031 99.2132C229.191 100.743 231.491 98.4432 233.731 96.2132C235.311 94.6332 236.801 93.1432 238.261 92.9632C239.721 92.7832 241.541 93.7432 243.701 94.9632C247.022 97.1331 250.776 98.5527 254.701 99.1232C254.734 99.1264 254.766 99.1362 254.795 99.1518C254.824 99.1674 254.85 99.1885 254.871 99.2141C254.892 99.2396 254.907 99.269 254.917 99.3006C254.927 99.3322 254.93 99.3653 254.926 99.3982C254.923 99.431 254.913 99.4629 254.898 99.4919C254.882 99.521 254.861 99.5467 254.836 99.5676C254.81 99.5885 254.781 99.6042 254.749 99.6137C254.717 99.6232 254.684 99.6264 254.651 99.6232C250.646 99.0441 246.814 97.6008 243.421 95.3932C241.351 94.1832 239.711 93.2332 238.301 93.3932C236.891 93.5532 235.581 94.9832 234.061 96.5032C232.341 98.3032 230.421 100.213 228.501 100.213Z" fill="#263238"/>
<path d="M277.081 117.881C276.007 117.837 274.96 117.532 274.031 116.991C274.002 116.974 273.977 116.951 273.957 116.924C273.938 116.897 273.924 116.866 273.916 116.833C273.909 116.8 273.908 116.767 273.914 116.734C273.92 116.701 273.932 116.669 273.951 116.641C273.968 116.614 273.99 116.59 274.017 116.571C274.044 116.553 274.074 116.54 274.106 116.533C274.137 116.527 274.17 116.527 274.202 116.533C274.234 116.54 274.264 116.553 274.291 116.571C274.441 116.661 277.891 118.771 279.811 115.871C284.751 108.361 286.521 106.521 289.531 107.821C289.562 107.833 289.59 107.851 289.614 107.875C289.638 107.898 289.656 107.926 289.668 107.957C289.681 107.988 289.686 108.022 289.685 108.055C289.684 108.088 289.675 108.121 289.661 108.151C289.632 108.211 289.582 108.257 289.521 108.281C289.46 108.305 289.392 108.305 289.331 108.281C286.791 107.181 285.261 108.501 280.221 116.151C279.895 116.689 279.433 117.133 278.882 117.436C278.331 117.74 277.71 117.893 277.081 117.881Z" fill="#263238"/>
<path d="M319 168.352L339.43 160.352C339.43 160.352 362.59 173.902 377.31 176.142L351.85 181.142C351.85 181.142 324.3 175.722 319 168.352Z" fill="#2B3C8E"/>
<path d="M195.25 233.992L210.77 219.992C210.77 219.992 237.3 223.992 258 233.992L236.38 247.262C236.38 247.262 216 236.912 195.25 233.992Z" fill="#2B3C8E"/>
<path d="M70.8281 251.88L90.7681 245C90.7681 245 108.068 263.49 121.858 263.49L98.9981 274.47C98.9981 274.47 74.6281 265.14 70.8281 251.88Z" fill="#2B3C8E"/>
<path d="M147.327 182.601C147.327 182.601 173.327 179.601 191.798 193.921L182.287 205.631C182.287 205.631 159.438 195.971 139.438 201.631L147.327 182.601Z" fill="#2B3C8E"/>
<path d="M382.047 291.961L407.127 296.241C407.127 296.241 385.357 310.721 366.997 313.341L347.207 306.931C347.207 306.931 371.067 304.441 382.047 291.961Z" fill="#2B3C8E"/>
<path d="M374.09 248.531C374.09 248.531 398.2 247.231 415.25 254.301L425.48 244.541C425.48 244.541 398.71 232.811 381.48 238.671L374.09 248.531Z" fill="#2B3C8E"/>
<path d="M209.289 340.723C209.289 340.723 221.339 328.033 251.429 324.723L269.669 332.943C269.669 332.943 242.459 338.853 230.069 344.603L209.289 340.723Z" fill="#2B3C8E"/>
<path opacity="0.6" d="M319 168.352L339.43 160.352C339.43 160.352 362.59 173.902 377.31 176.142L351.85 181.142C351.85 181.142 324.3 175.722 319 168.352Z" fill="white"/>
<path opacity="0.6" d="M195.25 233.992L210.77 219.992C210.77 219.992 237.3 223.992 258 233.992L236.38 247.262C236.38 247.262 216 236.912 195.25 233.992Z" fill="white"/>
<path opacity="0.6" d="M70.8281 251.88L90.7681 245C90.7681 245 108.068 263.49 121.858 263.49L98.9981 274.47C98.9981 274.47 74.6281 265.14 70.8281 251.88Z" fill="white"/>
<path opacity="0.4" d="M147.327 182.601C147.327 182.601 173.327 179.601 191.798 193.921L182.287 205.631C182.287 205.631 159.438 195.971 139.438 201.631L147.327 182.601Z" fill="white"/>
<path opacity="0.8" d="M382.047 291.961L407.127 296.241C407.127 296.241 385.357 310.721 366.997 313.341L347.207 306.931C347.207 306.931 371.067 304.441 382.047 291.961Z" fill="white"/>
<path opacity="0.4" d="M374.09 248.531C374.09 248.531 398.2 247.231 415.25 254.301L425.48 244.541C425.48 244.541 398.71 232.811 381.48 238.671L374.09 248.531Z" fill="white"/>
<path opacity="0.4" d="M209.289 340.723C209.289 340.723 221.339 328.033 251.429 324.723L269.669 332.943C269.669 332.943 242.459 338.853 230.069 344.603L209.289 340.723Z" fill="white"/>
</svg>
