<svg width="229" height="60" viewBox="0 0 229 60" fill="none" xmlns="http://www.w3.org/2000/svg">
<path d="M23.5156 35H18.9844L21.8281 21.5938C22.1406 20.1667 22.5469 18.5677 23.0469 16.7969H22.9219C22.776 17.1302 22.6198 17.4635 22.4531 17.7969C22.2969 18.1302 22.1406 18.4479 21.9844 18.75C21.8281 19.0417 21.6823 19.3073 21.5469 19.5469C21.4115 19.776 21.2917 19.9635 21.1875 20.1094L15.1875 28.2812H11.6562L9.32812 20.2656C9.27604 20.1094 9.22396 19.8646 9.17188 19.5312C9.13021 19.1875 9.10938 18.8333 9.10938 18.4688V16.7969H8.96875C8.82292 17.776 8.67708 18.6771 8.53125 19.5C8.39583 20.3229 8.27083 21.0156 8.15625 21.5781L5.29688 35H0.75L5.51562 12.5938H11.5156L13.8125 20.375C13.8854 20.625 13.9531 20.8958 14.0156 21.1875C14.0781 21.4688 14.1302 21.7552 14.1719 22.0469C14.2135 22.3281 14.2448 22.6042 14.2656 22.875C14.2865 23.1354 14.2969 23.3698 14.2969 23.5781H14.375C14.4896 23.349 14.6094 23.0938 14.7344 22.8125C14.8698 22.5208 15.0052 22.2292 15.1406 21.9375C15.2865 21.6354 15.4375 21.349 15.5938 21.0781C15.75 20.7969 15.9062 20.5521 16.0625 20.3438L21.7812 12.5938H28.2812L23.5156 35ZM45.4062 16.7031H37.5781L36.5156 21.75H43.8125L42.9219 25.875H35.6562L34.5625 30.9062H42.9219L42.0469 35H28.6094L33.375 12.5938H46.2812L45.4062 16.7031ZM65.2031 18.2969C65.2031 19.2448 65.0312 20.1042 64.6875 20.875C64.3438 21.6354 63.875 22.2969 63.2812 22.8594C62.6875 23.4219 61.9896 23.8802 61.1875 24.2344C60.3958 24.5885 59.5469 24.8281 58.6406 24.9531V25.0156C59.2865 25.224 59.8385 25.6198 60.2969 26.2031C60.7552 26.7865 61.099 27.5625 61.3281 28.5312L62.8906 35H57.4844L56.2656 29.2344C56.0781 28.3073 55.75 27.6094 55.2812 27.1406C54.8125 26.6615 54.1719 26.4219 53.3594 26.4219H52.5L50.6719 35H45.5781L50.3438 12.5938H58C59.3021 12.5938 60.4115 12.75 61.3281 13.0625C62.2448 13.3646 62.9896 13.7812 63.5625 14.3125C64.1354 14.8333 64.5521 15.4375 64.8125 16.125C65.0729 16.8125 65.2031 17.5365 65.2031 18.2969ZM59.8281 19.125C59.8281 18.2604 59.5729 17.5885 59.0625 17.1094C58.5521 16.6198 57.7812 16.375 56.75 16.375H54.6406L53.2969 22.6094H55.3438C56.1146 22.6094 56.7812 22.5156 57.3438 22.3281C57.9062 22.1302 58.3698 21.875 58.7344 21.5625C59.099 21.2396 59.3698 20.8698 59.5469 20.4531C59.7344 20.026 59.8281 19.5833 59.8281 19.125Z" fill="black"/>
<path d="M85.8281 18.0156C85.5156 17.849 85.1771 17.6823 84.8125 17.5156C84.4583 17.349 84.0677 17.2031 83.6406 17.0781C83.2135 16.9427 82.75 16.8333 82.25 16.75C81.7604 16.6667 81.224 16.625 80.6406 16.625C79.2865 16.625 78.0885 16.8594 77.0469 17.3281C76.0156 17.7865 75.1458 18.4062 74.4375 19.1875C73.7292 19.9688 73.1927 20.875 72.8281 21.9062C72.4635 22.9375 72.2812 24.026 72.2812 25.1719C72.2812 26.1198 72.4219 26.9583 72.7031 27.6875C72.9844 28.4167 73.3854 29.0312 73.9062 29.5312C74.4271 30.0208 75.0521 30.3958 75.7812 30.6562C76.5104 30.9062 77.3281 31.0312 78.2344 31.0312C78.8073 31.0312 79.3438 30.9948 79.8438 30.9219C80.3438 30.8385 80.8177 30.7344 81.2656 30.6094C81.7135 30.474 82.1354 30.3229 82.5312 30.1562C82.9375 29.9896 83.3229 29.8125 83.6875 29.625L82.625 34.3906C81.8542 34.7135 81 34.9583 80.0625 35.125C79.1354 35.3021 78.0885 35.3906 76.9219 35.3906C75.3594 35.3906 73.9583 35.1615 72.7188 34.7031C71.4792 34.2344 70.4323 33.5729 69.5781 32.7188C68.724 31.8646 68.0677 30.8438 67.6094 29.6562C67.1615 28.4583 66.9375 27.125 66.9375 25.6562C66.9375 24.4792 67.0625 23.3333 67.3125 22.2188C67.5625 21.0938 67.9375 20.0365 68.4375 19.0469C68.9479 18.0469 69.5833 17.1302 70.3438 16.2969C71.1146 15.4635 72.0156 14.7448 73.0469 14.1406C74.0885 13.5365 75.2656 13.0677 76.5781 12.7344C77.901 12.3906 79.3594 12.2188 80.9531 12.2188C81.5573 12.2188 82.1406 12.25 82.7031 12.3125C83.2656 12.375 83.8021 12.4583 84.3125 12.5625C84.8229 12.6562 85.2917 12.7656 85.7188 12.8906C86.1562 13.0052 86.5417 13.1198 86.875 13.2344L85.8281 18.0156ZM106.609 25.875C106.297 27.3438 105.896 28.6667 105.406 29.8438C104.917 31.0208 104.266 32.0208 103.453 32.8438C102.651 33.6667 101.651 34.2969 100.453 34.7344C99.2552 35.1719 97.7917 35.3906 96.0625 35.3906C94.8125 35.3906 93.6875 35.2188 92.6875 34.875C91.6875 34.5312 90.8385 34.0365 90.1406 33.3906C89.4427 32.7344 88.9062 31.9427 88.5312 31.0156C88.1562 30.0781 87.9688 29.0156 87.9688 27.8281C87.9688 27.2865 88.0104 26.6927 88.0938 26.0469C88.1771 25.3906 88.2812 24.7812 88.4062 24.2188L90.9062 12.5938H96L93.4688 24.25C93.3542 24.8021 93.25 25.3542 93.1562 25.9062C93.0625 26.4583 93.0156 26.9271 93.0156 27.3125C93.0156 27.9167 93.1042 28.4531 93.2812 28.9219C93.4688 29.3802 93.724 29.7656 94.0469 30.0781C94.3802 30.3906 94.7656 30.6302 95.2031 30.7969C95.651 30.9531 96.1302 31.0312 96.6406 31.0312C97.2344 31.0312 97.7865 30.9427 98.2969 30.7656C98.8073 30.5885 99.2656 30.2969 99.6719 29.8906C100.078 29.4844 100.438 28.9479 100.75 28.2812C101.062 27.6042 101.323 26.7708 101.531 25.7812L104.375 12.5938H109.469L106.609 25.875ZM129.172 18.2969C129.172 19.2448 129 20.1042 128.656 20.875C128.312 21.6354 127.844 22.2969 127.25 22.8594C126.656 23.4219 125.958 23.8802 125.156 24.2344C124.365 24.5885 123.516 24.8281 122.609 24.9531V25.0156C123.255 25.224 123.807 25.6198 124.266 26.2031C124.724 26.7865 125.068 27.5625 125.297 28.5312L126.859 35H121.453L120.234 29.2344C120.047 28.3073 119.719 27.6094 119.25 27.1406C118.781 26.6615 118.141 26.4219 117.328 26.4219H116.469L114.641 35H109.547L114.312 12.5938H121.969C123.271 12.5938 124.38 12.75 125.297 13.0625C126.214 13.3646 126.958 13.7812 127.531 14.3125C128.104 14.8333 128.521 15.4375 128.781 16.125C129.042 16.8125 129.172 17.5365 129.172 18.2969ZM123.797 19.125C123.797 18.2604 123.542 17.5885 123.031 17.1094C122.521 16.6198 121.75 16.375 120.719 16.375H118.609L117.266 22.6094H119.312C120.083 22.6094 120.75 22.5156 121.312 22.3281C121.875 22.1302 122.339 21.875 122.703 21.5625C123.068 21.2396 123.339 20.8698 123.516 20.4531C123.703 20.026 123.797 19.5833 123.797 19.125ZM141.406 26.875L139.719 35H134.625L136.328 26.9688L132.297 12.5938H137.766L139.547 21.1094C139.63 21.4635 139.677 21.7917 139.688 22.0938C139.708 22.3958 139.729 22.6667 139.75 22.9062H139.781C139.896 22.6146 140.021 22.3177 140.156 22.0156C140.302 21.7135 140.453 21.4323 140.609 21.1719L146.078 12.5938H151.75L141.406 26.875Z" fill="#2B3C8E"/>
<path d="M145.133 47.5703C145.133 48.0547 145.047 48.4922 144.875 48.8828C144.708 49.2734 144.477 49.6094 144.18 49.8906C143.883 50.1719 143.529 50.3984 143.117 50.5703C142.706 50.737 142.258 50.8411 141.773 50.8828V50.9141C142.018 50.9922 142.232 51.1562 142.414 51.4062C142.602 51.6562 142.753 51.9922 142.867 52.4141L143.805 56H142.367L141.539 52.6562C141.419 52.1667 141.227 51.8073 140.961 51.5781C140.701 51.349 140.354 51.2344 139.922 51.2344H138.945L137.922 56H136.578L138.945 44.7969H142.031C142.578 44.7969 143.047 44.8698 143.438 45.0156C143.828 45.1615 144.148 45.362 144.398 45.6172C144.648 45.8672 144.833 46.1615 144.953 46.5C145.073 46.8333 145.133 47.1901 145.133 47.5703ZM143.758 47.7109C143.758 47.4609 143.719 47.2318 143.641 47.0234C143.562 46.8099 143.443 46.6276 143.281 46.4766C143.12 46.3203 142.914 46.2005 142.664 46.1172C142.414 46.0286 142.117 45.9844 141.773 45.9844H140.047L139.188 50.0469H140.734C141.281 50.0469 141.745 49.9818 142.125 49.8516C142.51 49.7214 142.823 49.5495 143.062 49.3359C143.307 49.1224 143.484 48.875 143.594 48.5938C143.703 48.3073 143.758 48.013 143.758 47.7109ZM153.68 45.9844H149.359L148.547 49.8047H152.547L152.289 50.9922H148.289L147.469 54.8125H152.062L151.828 56H145.891L148.258 44.7969H153.938L153.68 45.9844ZM164.047 56H162.742L164.336 48.4844C164.398 48.1875 164.479 47.8516 164.578 47.4766C164.677 47.0964 164.792 46.6901 164.922 46.2578H164.891C164.828 46.3828 164.75 46.5234 164.656 46.6797C164.562 46.8307 164.464 46.9792 164.359 47.125C164.26 47.2656 164.169 47.3932 164.086 47.5078C164.003 47.6224 163.943 47.7083 163.906 47.7656L159.898 53.0781H159.258L157.508 47.7812C157.497 47.7188 157.471 47.6302 157.43 47.5156C157.393 47.3958 157.357 47.2656 157.32 47.125C157.284 46.9792 157.25 46.8307 157.219 46.6797C157.193 46.5286 157.18 46.388 157.18 46.2578H157.148C157.117 46.4818 157.065 46.7839 156.992 47.1641C156.924 47.5443 156.839 47.9896 156.734 48.5L155.141 56H153.875L156.25 44.7969H157.812L159.586 50.125C159.664 50.3594 159.724 50.5781 159.766 50.7812C159.812 50.9844 159.841 51.1615 159.852 51.3125H159.898C159.982 51.1562 160.083 50.974 160.203 50.7656C160.323 50.5573 160.477 50.3333 160.664 50.0938L164.688 44.7969H166.422L164.047 56ZM168.312 56H166.969L169.336 44.7969H170.695L168.312 56ZM179.953 45.9844H176.766L174.656 56H173.312L175.438 45.9844H172.18L172.43 44.7969H180.211L179.953 45.9844ZM188.375 45.9844H185.188L183.078 56H181.734L183.859 45.9844H180.602L180.852 44.7969H188.633L188.375 45.9844ZM195.305 56L194.797 52.8672H190.047L188.234 56H186.688L193.359 44.7969H194.734L196.688 56H195.305ZM193.867 46.9141C193.862 46.862 193.857 46.8021 193.852 46.7344C193.852 46.6667 193.852 46.599 193.852 46.5312C193.852 46.4583 193.852 46.3906 193.852 46.3281C193.852 46.2604 193.852 46.2031 193.852 46.1562H193.82C193.805 46.2031 193.784 46.2604 193.758 46.3281C193.732 46.3906 193.703 46.4583 193.672 46.5312C193.641 46.599 193.607 46.6667 193.57 46.7344C193.539 46.8021 193.51 46.862 193.484 46.9141L190.719 51.6797H194.586L193.867 46.9141ZM207.305 56H205.852L201.719 47.0234C201.703 46.9818 201.685 46.9323 201.664 46.875C201.643 46.8125 201.622 46.7474 201.602 46.6797C201.581 46.612 201.562 46.5469 201.547 46.4844C201.531 46.4219 201.521 46.3724 201.516 46.3359H201.469C201.464 46.388 201.456 46.4531 201.445 46.5312C201.44 46.6042 201.432 46.6797 201.422 46.7578C201.411 46.8359 201.398 46.9141 201.383 46.9922C201.372 47.0651 201.362 47.1302 201.352 47.1875L199.484 56H198.188L200.555 44.7969H202.125L206.086 53.5859C206.112 53.6328 206.138 53.6901 206.164 53.7578C206.19 53.8203 206.216 53.888 206.242 53.9609C206.268 54.0286 206.292 54.0964 206.312 54.1641C206.339 54.2318 206.359 54.2891 206.375 54.3359H206.406C206.411 54.2734 206.419 54.2005 206.43 54.1172C206.44 54.0339 206.451 53.9479 206.461 53.8594C206.471 53.7656 206.484 53.6745 206.5 53.5859C206.516 53.4974 206.529 53.4219 206.539 53.3594L208.359 44.7969H209.688L207.305 56ZM219.977 46.6562C219.826 46.5573 219.651 46.4557 219.453 46.3516C219.26 46.2474 219.047 46.1536 218.812 46.0703C218.578 45.987 218.32 45.9193 218.039 45.8672C217.763 45.8151 217.466 45.7891 217.148 45.7891C216.367 45.7891 215.661 45.9271 215.031 46.2031C214.406 46.4792 213.875 46.8594 213.438 47.3438C213 47.8281 212.661 48.3984 212.422 49.0547C212.188 49.7057 212.07 50.4115 212.07 51.1719C212.07 51.7917 212.156 52.3411 212.328 52.8203C212.5 53.2943 212.745 53.6953 213.062 54.0234C213.38 54.3464 213.76 54.5911 214.203 54.7578C214.646 54.9245 215.135 55.0078 215.672 55.0078C216.016 55.0078 216.328 54.9896 216.609 54.9531C216.891 54.9115 217.151 54.8568 217.391 54.7891C217.63 54.7161 217.854 54.6328 218.062 54.5391C218.276 54.4401 218.482 54.3359 218.68 54.2266L218.375 55.6016C217.953 55.7943 217.5 55.9401 217.016 56.0391C216.536 56.1432 215.997 56.1953 215.398 56.1953C214.69 56.1953 214.044 56.0781 213.461 55.8438C212.883 55.6094 212.388 55.2786 211.977 54.8516C211.57 54.4193 211.255 53.901 211.031 53.2969C210.807 52.6927 210.695 52.0208 210.695 51.2812C210.695 50.3021 210.849 49.4036 211.156 48.5859C211.469 47.7682 211.909 47.0651 212.477 46.4766C213.049 45.888 213.734 45.4297 214.531 45.1016C215.333 44.7734 216.221 44.6094 217.195 44.6094C217.862 44.6094 218.451 44.6823 218.961 44.8281C219.477 44.9688 219.911 45.1302 220.266 45.3125L219.977 46.6562ZM228.227 45.9844H223.906L223.094 49.8047H227.094L226.836 50.9922H222.836L222.016 54.8125H226.609L226.375 56H220.438L222.805 44.7969H228.484L228.227 45.9844Z" fill="#2B3C8E"/>
</svg>
